Eczar-Bold.ufo
<glyph name="exclam" format="1">
  <advance width="349"/>
  <unicode hex="0021"/>
  <outline>
    <contour>
      <point x="232" y="252" type="line"/>
      <point x="278" y="695" type="line"/>
      <point x="229" y="723"/>
      <point x="127" y="721"/>
      <point x="71" y="697" type="curve"/>
      <point x="115" y="252" type="line"/>
    </contour>
    <contour>
      <point x="123" y="156"/>
      <point x="89" y="119"/>
      <point x="81" y="65" type="curve"/>
      <point x="103" y="22"/>
      <point x="138" y="-6"/>
      <point x="186" y="-20" type="curve"/>
      <point x="229" y="2"/>
      <point x="258" y="36"/>
      <point x="271" y="81" type="curve"/>
      <point x="259" y="125"/>
      <point x="219" y="162"/>
      <point x="171" y="183" type="curve"/>
    </contour>
  </outline>
</glyph>
<glyph name="ampersand" format="1">
  <advance width="701"/>
  <unicode hex="0026"/>
  <outline>
    <contour>
      <point x="255" y="373" type="line"/>
      <point x="210" y="394"/>
      <point x="189" y="437"/>
      <point x="189" y="472" type="curve" smooth="yes"/>
      <point x="189" y="512"/>
      <point x="215" y="550"/>
      <point x="250" y="564" type="curve"/>
      <point x="432" y="488" type="line"/>
      <point x="485" y="624" type="line"/>
      <point x="418" y="654"/>
      <point x="338" y="668"/>
      <point x="275" y="668" type="curve" smooth="yes"/>
      <point x="115" y="668"/>
      <point x="33" y="579"/>
      <point x="33" y="494" type="curve" smooth="yes"/>
      <point x="33" y="422"/>
      <point x="91" y="351"/>
      <point x="216" y="339" type="curve"/>
    </contour>
    <contour>
      <point x="403" y="374" type="line"/>
      <point x="448" y="336"/>
      <point x="471" y="275"/>
      <point x="471" y="217" type="curve" smooth="yes"/>
      <point x="471" y="168"/>
      <point x="454" y="123"/>
      <point x="416" y="93" type="curve"/>
      <point x="388" y="77"/>
      <point x="347" y="70"/>
      <point x="316" y="70" type="curve" smooth="yes"/>
      <point x="241" y="70"/>
      <point x="172" y="107"/>
      <point x="172" y="181" type="curve" smooth="yes"/>
      <point x="172" y="242"/>
      <point x="221" y="289"/>
      <point x="307" y="287" type="curve"/>
      <point x="324" y="361" type="line"/>
      <point x="191" y="409" type="line"/>
      <point x="186" y="383" type="line"/>
      <point x="98" y="375"/>
      <point x="12" y="312"/>
      <point x="12" y="204" type="curve" smooth="yes"/>
      <point x="12" y="66"/>
      <point x="147" y="-28"/>
      <point x="318" y="-28" type="curve" smooth="yes"/>
      <point x="504" y="-28"/>
      <point x="612" y="84"/>
      <point x="612" y="225" type="curve" smooth="yes"/>
      <point x="612" y="289"/>
      <point x="590" y="362"/>
      <point x="539" y="419" type="curve"/>
    </contour>
    <contour>
      <point x="390" y="287" type="line"/>
      <point x="551" y="395"/>
      <point x="618" y="358"/>
      <point x="696" y="308" type="curve"/>
      <point x="739" y="431" type="line"/>
      <point x="657" y="511"/>
      <point x="539" y="473"/>
      <point x="352" y="358" type="curve"/>
    </contour>
  </outline>
</glyph>
<glyph name="parenleft" format="1">
  <advance width="358"/>
  <unicode hex="0028"/>
  <outline>
    <contour>
      <point x="319" y="-98" type="line"/>
      <point x="250" y="39"/>
      <point x="206" y="171"/>
      <point x="206" y="307" type="curve" smooth="yes"/>
      <point x="206" y="429"/>
      <point x="244" y="550"/>
      <point x="322" y="676" type="curve"/>
      <point x="222" y="732" type="line"/>
      <point x="90" y="596"/>
      <point x="31" y="453"/>
      <point x="31" y="303" type="curve" smooth="yes"/>
      <point x="31" y="137"/>
      <point x="101" y="-16"/>
      <point x="217" y="-155" type="curve"/>
    </contour>
  </outline>
</glyph>
<glyph name="asterisk" format="1">
  <advance width="418"/>
  <unicode hex="002A"/>
  <outline>
    <contour>
      <point x="16" y="651" type="line"/>
      <point x="132" y="584" type="line"/>
      <point x="162" y="639" type="line"/>
      <point x="69" y="775" type="line"/>
    </contour>
    <contour>
      <point x="182" y="784" type="line"/>
      <point x="152" y="653" type="line"/>
      <point x="214" y="640" type="line"/>
      <point x="316" y="769" type="line"/>
    </contour>
    <contour>
      <point x="362" y="668" type="line"/>
      <point x="228" y="653" type="line"/>
      <point x="237" y="592" type="line"/>
      <point x="390" y="538" type="line"/>
    </contour>
    <contour>
      <point x="308" y="461" type="line"/>
      <point x="255" y="584" type="line"/>
      <point x="198" y="558" type="line"/>
      <point x="192" y="394" type="line"/>
    </contour>
    <contour>
      <point x="95" y="454" type="line"/>
      <point x="196" y="543" type="line"/>
      <point x="154" y="589" type="line"/>
      <point x="-4" y="547" type="line"/>
    </contour>
  </outline>
</glyph>
<glyph name="zero" format="1">
  <advance width="602"/>
  <unicode hex="0030"/>
  <outline>
    <contour>
      <point x="24" y="145"/>
      <point x="122" y="-15"/>
      <point x="302" y="-15" type="curve" smooth="yes"/>
      <point x="478" y="-15"/>
      <point x="576" y="137"/>
      <point x="576" y="331" type="curve" smooth="yes"/>
      <point x="576" y="539"/>
      <point x="456" y="666"/>
      <point x="304" y="666" type="curve" smooth="yes"/>
      <point x="140" y="666"/>
      <point x="24" y="518"/>
      <point x="24" y="324" type="curve" smooth="yes"/>
    </contour>
    <contour>
      <point x="270" y="571"/>
      <point x="279" y="572"/>
      <point x="287" y="572" type="curve" smooth="yes"/>
      <point x="365" y="572"/>
      <point x="398" y="443"/>
      <point x="398" y="317" type="curve" smooth="yes"/>
      <point x="398" y="227"/>
      <point x="382" y="130"/>
      <point x="345" y="85" type="curve"/>
      <point x="335" y="81"/>
      <point x="326" y="80"/>
      <point x="318" y="80" type="curve" smooth="yes"/>
      <point x="236" y="80"/>
      <point x="205" y="221"/>
      <point x="205" y="335" type="curve" smooth="yes"/>
      <point x="205" y="421"/>
      <point x="223" y="526"/>
      <point x="259" y="569" type="curve"/>
    </contour>
  </outline>
</glyph>
<glyph name="two" format="1">
  <advance width="599"/>
  <unicode hex="0032"/>
  <outline>
    <contour>
      <point x="177" y="405" type="line"/>
      <point x="231" y="597" type="line"/>
      <point x="50" y="603" type="line"/>
      <point x="45" y="553"/>
      <point x="55" y="454"/>
      <point x="67" y="405" type="curve"/>
    </contour>
    <contour>
      <point x="57" y="0" type="line"/>
      <point x="506" y="0" type="line"/>
      <point x="506" y="122" type="line"/>
      <point x="239" y="78" type="line"/>
      <point x="235" y="85" type="line"/>
      <point x="368" y="219" type="line"/>
      <point x="475" y="326"/>
      <point x="522" y="394"/>
      <point x="522" y="471" type="curve" smooth="yes"/>
      <point x="522" y="581"/>
      <point x="430" y="668"/>
      <point x="292" y="670" type="curve" smooth="yes"/>
      <point x="214" y="672"/>
      <point x="121" y="645"/>
      <point x="50" y="603" type="curve"/>
      <point x="159" y="566" type="line"/>
      <point x="188" y="577"/>
      <point x="220" y="582"/>
      <point x="241" y="582" type="curve" smooth="yes"/>
      <point x="313" y="582"/>
      <point x="345" y="540"/>
      <point x="345" y="491" type="curve" smooth="yes"/>
      <point x="345" y="440"/>
      <point x="310" y="382"/>
      <point x="205" y="272" type="curve" smooth="yes"/>
      <point x="36" y="90" type="line"/>
    </contour>
    <contour>
      <point x="481" y="226" type="line"/>
      <point x="346" y="16" type="line"/>
      <point x="523" y="0" type="line"/>
      <point x="544" y="71"/>
      <point x="555" y="148"/>
      <point x="558" y="207" type="curve"/>
    </contour>
  </outline>
</glyph>
<glyph name="five" format="1">
  <advance width="573"/>
  <unicode hex="0035"/>
  <outline>
    <contour>
      <point x="499" y="498"/>
      <point x="508" y="601"/>
      <point x="505" y="650" type="curve"/>
      <point x="337" y="646" type="line"/>
      <point x="380" y="448" type="line"/>
      <point x="486" y="448" type="line"/>
    </contour>
    <contour>
      <point x="35" y="47" type="line"/>
      <point x="110" y="1"/>
      <point x="208" y="-23"/>
      <point x="284" y="-23" type="curve" smooth="yes"/>
      <point x="444" y="-23"/>
      <point x="537" y="78"/>
      <point x="537" y="196" type="curve" smooth="yes"/>
      <point x="537" y="336"/>
      <point x="408" y="402"/>
      <point x="296" y="404" type="curve" smooth="yes"/>
      <point x="271" y="404"/>
      <point x="242" y="403"/>
      <point x="220" y="394" type="curve"/>
      <point x="234" y="561" type="line"/>
      <point x="448" y="549" type="line"/>
      <point x="457" y="650" type="line"/>
      <point x="97" y="650" type="line"/>
      <point x="67" y="321" type="line"/>
      <point x="120" y="265" type="line"/>
      <point x="151" y="275"/>
      <point x="182" y="280"/>
      <point x="208" y="280" type="curve" smooth="yes"/>
      <point x="304" y="280"/>
      <point x="379" y="244"/>
      <point x="379" y="164" type="curve" smooth="yes"/>
      <point x="379" y="140"/>
      <point x="373" y="112"/>
      <point x="342" y="80" type="curve"/>
      <point x="266" y="90"/>
      <point x="167" y="137"/>
      <point x="88" y="204" type="curve"/>
    </contour>
  </outline>
</glyph>
<glyph name="at" format="1">
  <advance width="1083"/>
  <unicode hex="0040"/>
  <outline>
    <contour>
      <point x="487" y="402" type="line"/>
      <point x="500" y="407"/>
      <point x="523" y="412"/>
      <point x="543" y="413" type="curve"/>
      <point x="567" y="401"/>
      <point x="589" y="376"/>
      <point x="589" y="313" type="curve" smooth="yes"/>
      <point x="589" y="70" type="line"/>
      <point x="604" y="67" type="line"/>
      <point x="628" y="16"/>
      <point x="671" y="-22"/>
      <point x="770" y="-17" type="curve"/>
      <point x="949" y="13"/>
      <point x="1043" y="161"/>
      <point x="1043" y="316" type="curve" smooth="yes"/>
      <point x="1043" y="516"/>
      <point x="889" y="730"/>
      <point x="556" y="730" type="curve" smooth="yes"/>
      <point x="231" y="730"/>
      <point x="50" y="527"/>
      <point x="50" y="305" type="curve" smooth="yes"/>
      <point x="50" y="184"/>
      <point x="103" y="57"/>
      <point x="215" y="-48" type="curve"/>
      <point x="307" y="9" type="line"/>
      <point x="247" y="93"/>
      <point x="217" y="185"/>
      <point x="217" y="272" type="curve" smooth="yes"/>
      <point x="217" y="450"/>
      <point x="339" y="601"/>
      <point x="561" y="601" type="curve" smooth="yes"/>
      <point x="765" y="601"/>
      <point x="879" y="473"/>
      <point x="879" y="309" type="curve" smooth="yes"/>
      <point x="879" y="234"/>
      <point x="854" y="150"/>
      <point x="812" y="112" type="curve" smooth="yes"/>
      <point x="791" y="93"/>
      <point x="762" y="85"/>
      <point x="762" y="124" type="curve" smooth="yes"/>
      <point x="762" y="321" type="line" smooth="yes"/>
      <point x="762" y="381"/>
      <point x="760" y="408"/>
      <point x="750" y="424" type="curve" smooth="yes"/>
      <point x="722" y="466"/>
      <point x="663" y="496"/>
      <point x="608" y="496" type="curve" smooth="yes"/>
      <point x="549" y="496"/>
      <point x="430" y="472"/>
      <point x="346" y="441" type="curve"/>
      <point x="342" y="391"/>
      <point x="349" y="338"/>
      <point x="364" y="289" type="curve"/>
      <point x="463" y="290" type="line"/>
    </contour>
    <contour>
      <point x="342" y="203"/>
      <point x="318" y="154"/>
      <point x="318" y="113" type="curve" smooth="yes"/>
      <point x="318" y="45"/>
      <point x="384" y="-31"/>
      <point x="504" y="-13" type="curve"/>
      <point x="626" y="66" type="line"/>
      <point x="614" y="108" type="line"/>
      <point x="587" y="99"/>
      <point x="544" y="84"/>
      <point x="506" y="81" type="curve"/>
      <point x="494" y="92"/>
      <point x="489" y="110"/>
      <point x="489" y="124" type="curve" smooth="yes"/>
      <point x="489" y="167"/>
      <point x="543" y="176"/>
      <point x="592" y="174" type="curve"/>
      <point x="620" y="174" type="line"/>
      <point x="617" y="237" type="line"/>
      <point x="399" y="231" type="line"/>
    </contour>
  </outline>
</glyph>
<glyph name="A" format="1">
  <advance width="730"/>
  <unicode hex="0041"/>
  <outline>
    <contour>
      <point x="32" y="0" type="line"/>
      <point x="156" y="0" type="line"/>
      <point x="390" y="624" type="line"/>
      <point x="294" y="644" type="line"/>
    </contour>
    <contour>
      <point x="263" y="646" type="line"/>
      <point x="505" y="0" type="line"/>
      <point x="696" y="0" type="line"/>
      <point x="419" y="686" type="line"/>
    </contour>
    <contour>
      <point x="183" y="256" type="line"/>
      <point x="183" y="172" type="line"/>
      <point x="506" y="172" type="line"/>
      <point x="506" y="256" type="line"/>
    </contour>
    <contour>
      <point x="42" y="69"/>
      <point x="9" y="52"/>
      <point x="-20" y="32" type="curve"/>
      <point x="-14" y="0" type="line"/>
      <point x="80" y="0" type="line"/>
      <point x="79" y="85" type="line"/>
    </contour>
    <contour>
      <point x="126" y="0" type="line"/>
      <point x="266" y="0" type="line"/>
      <point x="267" y="53" type="line"/>
      <point x="129" y="75" type="line"/>
    </contour>
    <contour>
      <point x="458" y="69"/>
      <point x="425" y="52"/>
      <point x="396" y="32" type="curve"/>
      <point x="402" y="0" type="line"/>
      <point x="517" y="0" type="line"/>
      <point x="495" y="85" type="line"/>
    </contour>
    <contour>
      <point x="601" y="0" type="line"/>
      <point x="741" y="0" type="line"/>
      <point x="742" y="53" type="line"/>
      <point x="604" y="75" type="line"/>
    </contour>
    <contour>
      <point x="696" y="0" type="move" name="ogonek"/>
    </contour>
    <contour>
      <point x="354" y="650" type="move" name="top"/>
    </contour>
  </outline>
</glyph>
<glyph name="D" format="1">
  <advance width="732"/>
  <unicode hex="0044"/>
  <outline>
    <contour>
      <point x="260" y="670"/>
      <point x="152" y="668"/>
      <point x="39" y="662" type="curve"/>
      <point x="281" y="567" type="line"/>
      <point x="416" y="583" type="line"/>
      <point x="487" y="537"/>
      <point x="532" y="432"/>
      <point x="532" y="328" type="curve" smooth="yes"/>
      <point x="532" y="212"/>
      <point x="477" y="92"/>
      <point x="357" y="92" type="curve" smooth="yes"/>
      <point x="329" y="92"/>
      <point x="296" y="98"/>
      <point x="260" y="113" type="curve"/>
      <point x="270" y="0" type="line"/>
      <point x="368" y="0" type="line" smooth="yes"/>
      <point x="608" y="0"/>
      <point x="721" y="164"/>
      <point x="721" y="337" type="curve" smooth="yes"/>
      <point x="721" y="498"/>
      <point x="603" y="670"/>
      <point x="372" y="670" type="curve" smooth="yes"/>
    </contour>
    <contour>
      <point x="86" y="69"/>
      <point x="53" y="52"/>
      <point x="24" y="32" type="curve"/>
      <point x="30" y="0" type="line"/>
      <point x="124" y="0" type="line"/>
      <point x="123" y="85" type="line"/>
    </contour>
    <contour>
      <point x="109" y="662" type="line"/>
      <point x="109" y="0" type="line"/>
      <point x="290" y="0" type="line"/>
      <point x="290" y="662" type="line"/>
    </contour>
    <contour>
      <point x="39" y="662" type="line"/>
      <point x="38" y="609" type="line"/>
      <point x="160" y="591" type="line"/>
      <point x="161" y="662" type="line"/>
    </contour>
    <contour>
      <point x="375" y="325" type="move" name="center"/>
    </contour>
    <contour>
      <point x="121" y="0" type="move" name="bottom"/>
    </contour>
    <contour>
      <point x="361" y="650" type="move" name="top"/>
    </contour>
  </outline>
</glyph>
<glyph name="E" format="1">
  <advance width="643"/>
  <unicode hex="0045"/>
  <outline>
    <contour>
      <point x="109" y="662" type="line"/>
      <point x="109" y="0" type="line"/>
      <point x="290" y="0" type="line"/>
      <point x="290" y="662" type="line"/>
    </contour>
    <contour>
      <point x="86" y="69"/>
      <point x="53" y="52"/>
      <point x="24" y="32" type="curve"/>
      <point x="30" y="0" type="line"/>
      <point x="124" y="0" type="line"/>
      <point x="123" y="85" type="line"/>
    </contour>
    <contour>
      <point x="257" y="90" type="line"/>
      <point x="182" y="0" type="line"/>
      <point x="580" y="0" type="line"/>
      <point x="575" y="115" type="line"/>
    </contour>
    <contour>
      <point x="259" y="368" type="line"/>
      <point x="259" y="290" type="line"/>
      <point x="499" y="280" type="line"/>
      <point x="499" y="388" type="line"/>
    </contour>
    <contour>
      <point x="177" y="662" type="line"/>
      <point x="252" y="576" type="line"/>
      <point x="574" y="554" type="line"/>
      <point x="588" y="662" type="line"/>
    </contour>
    <contour>
      <point x="35" y="662" type="line"/>
      <point x="34" y="609" type="line"/>
      <point x="156" y="591" type="line"/>
      <point x="157" y="662" type="line"/>
    </contour>
    <contour>
      <point x="428" y="16" type="line"/>
      <point x="581" y="0" type="line"/>
      <point x="589" y="59"/>
      <point x="595" y="151"/>
      <point x="593" y="208" type="curve"/>
      <point x="494" y="216" type="line"/>
    </contour>
    <contour>
      <point x="570" y="460" type="line"/>
      <point x="584" y="527"/>
      <point x="591" y="619"/>
      <point x="588" y="662" type="curve"/>
      <point x="437" y="644" type="line"/>
      <point x="470" y="460" type="line"/>
    </contour>
    <contour>
      <point x="616" y="0" type="move" name="ogonek"/>
    </contour>
    <contour>
      <point x="322" y="0" type="move" name="bottom"/>
    </contour>
    <contour>
      <point x="322" y="650" type="move" name="top"/>
    </contour>
  </outline>
</glyph>
<glyph name="H" format="1">
  <advance width="829"/>
  <unicode hex="0048"/>
  <outline>
    <contour>
      <point x="170" y="587" type="line"/>
      <point x="173" y="662" type="line"/>
      <point x="33" y="662" type="line"/>
      <point x="32" y="609" type="line"/>
    </contour>
    <contour>
      <point x="109" y="662" type="line"/>
      <point x="109" y="0" type="line"/>
      <point x="290" y="0" type="line"/>
      <point x="290" y="662" type="line"/>
    </contour>
    <contour>
      <point x="275" y="662" type="line"/>
      <point x="276" y="577" type="line"/>
      <point x="313" y="593"/>
      <point x="347" y="610"/>
      <point x="375" y="630" type="curve"/>
      <point x="369" y="662" type="line"/>
    </contour>
    <contour>
      <point x="457" y="662" type="line"/>
      <point x="456" y="609" type="line"/>
      <point x="594" y="587" type="line"/>
      <point x="597" y="662" type="line"/>
    </contour>
    <contour>
      <point x="533" y="662" type="line"/>
      <point x="533" y="0" type="line"/>
      <point x="714" y="0" type="line"/>
      <point x="714" y="662" type="line"/>
    </contour>
    <contour>
      <point x="699" y="662" type="line"/>
      <point x="700" y="577" type="line"/>
      <point x="737" y="593"/>
      <point x="771" y="610"/>
      <point x="799" y="630" type="curve"/>
      <point x="793" y="662" type="line"/>
    </contour>
    <contour>
      <point x="241" y="377" type="line"/>
      <point x="241" y="283" type="line"/>
      <point x="595" y="283" type="line"/>
      <point x="595" y="377" type="line"/>
    </contour>
    <contour>
      <point x="86" y="69"/>
      <point x="53" y="52"/>
      <point x="24" y="32" type="curve"/>
      <point x="30" y="0" type="line"/>
      <point x="124" y="0" type="line"/>
      <point x="123" y="85" type="line"/>
    </contour>
    <contour>
      <point x="240" y="0" type="line"/>
      <point x="380" y="0" type="line"/>
      <point x="381" y="53" type="line"/>
      <point x="243" y="75" type="line"/>
    </contour>
    <contour>
      <point x="510" y="69"/>
      <point x="477" y="52"/>
      <point x="448" y="32" type="curve"/>
      <point x="454" y="0" type="line"/>
      <point x="548" y="0" type="line"/>
      <point x="547" y="85" type="line"/>
    </contour>
    <contour>
      <point x="664" y="0" type="line"/>
      <point x="804" y="0" type="line"/>
      <point x="805" y="53" type="line"/>
      <point x="667" y="75" type="line"/>
    </contour>
    <contour>
      <point x="415" y="325" type="move" name="center"/>
    </contour>
    <contour>
      <point x="415" y="650" type="move" name="top"/>
    </contour>
  </outline>
</glyph>
<glyph name="O" format="1">
  <advance width="687"/>
  <unicode hex="004F"/>
  <outline>
    <contour>
      <point x="157" y="682"/>
      <point x="11" y="544"/>
      <point x="11" y="326" type="curve" smooth="yes"/>
      <point x="11" y="97"/>
      <point x="172" y="-20"/>
      <point x="348" y="-20" type="curve" smooth="yes"/>
      <point x="519" y="-20"/>
      <point x="676" y="92"/>
      <point x="676" y="322" type="curve" smooth="yes"/>
      <point x="676" y="552"/>
      <point x="520" y="682"/>
      <point x="341" y="682" type="curve" smooth="yes"/>
    </contour>
    <contour>
      <point x="286" y="580"/>
      <point x="307" y="585"/>
      <point x="328" y="585" type="curve" smooth="yes"/>
      <point x="437" y="585"/>
      <point x="486" y="454"/>
      <point x="486" y="319" type="curve" smooth="yes"/>
      <point x="486" y="214"/>
      <point x="456" y="125"/>
      <point x="413" y="85" type="curve"/>
      <point x="399" y="80"/>
      <point x="385" y="77"/>
      <point x="366" y="77" type="curve" smooth="yes"/>
      <point x="259" y="77"/>
      <point x="201" y="188"/>
      <point x="201" y="346" type="curve" smooth="yes"/>
      <point x="201" y="455"/>
      <point x="229" y="538"/>
      <point x="266" y="572" type="curve"/>
    </contour>
    <contour>
      <point x="344" y="650" type="move" name="top"/>
    </contour>
  </outline>
</glyph>
<glyph name="P" format="1">
  <advance width="657"/>
  <unicode hex="0050"/>
  <outline>
    <contour>
      <point x="31" y="662" type="line"/>
      <point x="274" y="567" type="line"/>
      <point x="409" y="583" type="line"/>
      <point x="444" y="561"/>
      <point x="462" y="500"/>
      <point x="462" y="450" type="curve" smooth="yes"/>
      <point x="462" y="385"/>
      <point x="429" y="326"/>
      <point x="352" y="326" type="curve" smooth="yes"/>
      <point x="331" y="326"/>
      <point x="293" y="330"/>
      <point x="260" y="341" type="curve"/>
      <point x="257" y="233" type="line"/>
      <point x="385" y="234" type="line" smooth="yes"/>
      <point x="542" y="235"/>
      <point x="645" y="328"/>
      <point x="645" y="447" type="curve" smooth="yes"/>
      <point x="645" y="561"/>
      <point x="553" y="672"/>
      <point x="376" y="670" type="curve" smooth="yes"/>
    </contour>
    <contour>
      <point x="87" y="69"/>
      <point x="54" y="52"/>
      <point x="25" y="32" type="curve"/>
      <point x="31" y="0" type="line"/>
      <point x="125" y="0" type="line"/>
      <point x="124" y="85" type="line"/>
    </contour>
    <contour>
      <point x="266" y="0" type="line"/>
      <point x="406" y="0" type="line"/>
      <point x="407" y="53" type="line"/>
      <point x="269" y="75" type="line"/>
    </contour>
    <contour>
      <point x="104" y="662" type="line"/>
      <point x="104" y="0" type="line"/>
      <point x="285" y="0" type="line"/>
      <point x="285" y="662" type="line"/>
    </contour>
    <contour>
      <point x="31" y="662" type="line"/>
      <point x="30" y="609" type="line"/>
      <point x="152" y="591" type="line"/>
      <point x="153" y="662" type="line"/>
    </contour>
  </outline>
</glyph>
<glyph name="R" format="1">
  <advance width="719"/>
  <unicode hex="0052"/>
  <outline>
    <contour>
      <point x="35" y="662" type="line"/>
      <point x="280" y="567" type="line"/>
      <point x="413" y="583" type="line"/>
      <point x="448" y="554"/>
      <point x="464" y="505"/>
      <point x="464" y="458" type="curve" smooth="yes"/>
      <point x="464" y="389"/>
      <point x="431" y="337"/>
      <point x="346" y="337" type="curve" smooth="yes"/>
      <point x="320" y="337"/>
      <point x="286" y="343"/>
      <point x="252" y="357" type="curve"/>
      <point x="261" y="251" type="line"/>
      <point x="395" y="252" type="line" smooth="yes"/>
      <point x="544" y="252"/>
      <point x="649" y="348"/>
      <point x="649" y="461" type="curve" smooth="yes"/>
      <point x="649" y="573"/>
      <point x="545" y="670"/>
      <point x="374" y="670" type="curve"/>
    </contour>
    <contour>
      <point x="86" y="69"/>
      <point x="53" y="52"/>
      <point x="24" y="32" type="curve"/>
      <point x="30" y="0" type="line"/>
      <point x="124" y="0" type="line"/>
      <point x="123" y="85" type="line"/>
    </contour>
    <contour>
      <point x="232" y="0" type="line"/>
      <point x="372" y="0" type="line"/>
      <point x="373" y="53" type="line"/>
      <point x="235" y="75" type="line"/>
    </contour>
    <contour>
      <point x="109" y="662" type="line"/>
      <point x="109" y="0" type="line"/>
      <point x="290" y="0" type="line"/>
      <point x="290" y="662" type="line"/>
    </contour>
    <contour>
      <point x="35" y="662" type="line"/>
      <point x="34" y="609" type="line"/>
      <point x="156" y="591" type="line"/>
      <point x="157" y="662" type="line"/>
    </contour>
    <contour>
      <point x="335" y="291" type="line"/>
      <point x="488" y="0" type="line"/>
      <point x="690" y="0" type="line"/>
      <point x="505" y="300" type="line"/>
    </contour>
    <contour>
      <point x="572" y="0" type="line"/>
      <point x="712" y="0" type="line"/>
      <point x="713" y="53" type="line"/>
      <point x="575" y="74" type="line"/>
    </contour>
    <contour>
      <point x="338" y="650" type="move" name="top"/>
    </contour>
    <contour>
      <point x="353" y="0" type="move" name="bottom"/>
    </contour>
  </outline>
</glyph>
<glyph name="Y" format="1">
  <advance width="672"/>
  <unicode hex="0059"/>
  <outline>
    <contour>
      <point x="27" y="662" type="line"/>
      <point x="256" y="232" type="line"/>
      <point x="397" y="312" type="line"/>
      <point x="378" y="350" type="line"/>
      <point x="355" y="349" type="line"/>
      <point x="327" y="436" type="line"/>
      <point x="207" y="662" type="line"/>
    </contour>
    <contour>
      <point x="-2" y="662" type="line"/>
      <point x="-3" y="609" type="line"/>
      <point x="135" y="587" type="line"/>
      <point x="138" y="662" type="line"/>
    </contour>
    <contour>
      <point x="184" y="662" type="line"/>
      <point x="193" y="577" type="line"/>
      <point x="230" y="593"/>
      <point x="264" y="610"/>
      <point x="292" y="630" type="curve"/>
      <point x="286" y="662" type="line"/>
    </contour>
    <contour>
      <point x="518" y="662" type="line"/>
      <point x="330" y="287" type="line"/>
      <point x="412" y="246" type="line"/>
      <point x="635" y="662" type="line"/>
    </contour>
    <contour>
      <point x="416" y="662" type="line"/>
      <point x="415" y="609" type="line"/>
      <point x="553" y="587" type="line"/>
      <point x="556" y="662" type="line"/>
    </contour>
    <contour>
      <point x="571" y="662" type="line"/>
      <point x="580" y="577" type="line"/>
      <point x="617" y="593"/>
      <point x="651" y="610"/>
      <point x="679" y="630" type="curve"/>
      <point x="673" y="662" type="line"/>
    </contour>
    <contour>
      <point x="249" y="0" type="line"/>
      <point x="424" y="0" type="line"/>
      <point x="424" y="320" type="line"/>
      <point x="249" y="320" type="line"/>
    </contour>
    <contour>
      <point x="229" y="69"/>
      <point x="196" y="52"/>
      <point x="167" y="32" type="curve"/>
      <point x="173" y="0" type="line"/>
      <point x="267" y="0" type="line"/>
      <point x="266" y="85" type="line"/>
    </contour>
    <contour>
      <point x="367" y="0" type="line"/>
      <point x="507" y="0" type="line"/>
      <point x="508" y="53" type="line"/>
      <point x="370" y="75" type="line"/>
    </contour>
    <contour>
      <point x="354" y="650" type="move" name="top"/>
    </contour>
  </outline>
</glyph>
<glyph name="bracketleft" format="1">
  <advance width="417"/>
  <unicode hex="005B"/>
  <outline>
    <contour>
      <point x="88" y="712" type="line"/>
      <point x="88" y="-122" type="line"/>
      <point x="383" y="-122" type="line"/>
      <point x="389" y="-60" type="line"/>
      <point x="259" y="-26" type="line"/>
      <point x="259" y="616" type="line"/>
      <point x="389" y="650" type="line"/>
      <point x="383" y="712" type="line"/>
    </contour>
  </outline>
</glyph>
<glyph name="bracketright" format="1">
  <advance width="418"/>
  <unicode hex="005D"/>
  <outline>
    <contour>
      <point x="28" y="650" type="line"/>
      <point x="158" y="616" type="line"/>
      <point x="158" y="-26" type="line"/>
      <point x="28" y="-60" type="line"/>
      <point x="34" y="-122" type="line"/>
      <point x="329" y="-122" type="line"/>
      <point x="329" y="712" type="line"/>
      <point x="34" y="712" type="line"/>
    </contour>
  </outline>
</glyph>
<glyph name="underscore" format="1">
  <advance width="532"/>
  <unicode hex="005F"/>
  <outline>
    <contour>
      <point x="10" y="-128" type="line"/>
      <point x="10" y="-217" type="line"/>
      <point x="522" y="-217" type="line"/>
      <point x="522" y="-128" type="line"/>
    </contour>
  </outline>
</glyph>
<glyph name="d" format="1">
  <advance width="592"/>
  <unicode hex="0064"/>
  <outline>
    <contour>
      <point x="582" y="101" type="line"/>
      <point x="560" y="100"/>
      <point x="546" y="98"/>
      <point x="531" y="98" type="curve" smooth="yes"/>
      <point x="516" y="98"/>
      <point x="506" y="108"/>
      <point x="506" y="122" type="curve" smooth="yes"/>
      <point x="506" y="687" type="line"/>
      <point x="452" y="737" type="line"/>
      <point x="333" y="684" type="line"/>
      <point x="333" y="75" type="line"/>
      <point x="347" y="70" type="line"/>
      <point x="370" y="18"/>
      <point x="415" y="-16"/>
      <point x="455" y="-17" type="curve"/>
      <point x="588" y="57" type="line"/>
    </contour>
    <contour>
      <point x="413" y="161" type="line"/>
      <point x="365" y="125"/>
      <point x="321" y="110"/>
      <point x="290" y="110" type="curve" smooth="yes"/>
      <point x="226" y="110"/>
      <point x="191" y="174"/>
      <point x="191" y="252" type="curve" smooth="yes"/>
      <point x="191" y="311"/>
      <point x="211" y="372"/>
      <point x="247" y="406" type="curve"/>
      <point x="317" y="408"/>
      <point x="378" y="373"/>
      <point x="414" y="322" type="curve"/>
      <point x="442" y="446" type="line"/>
      <point x="393" y="478"/>
      <point x="339" y="497"/>
      <point x="277" y="497" type="curve" smooth="yes"/>
      <point x="106" y="497"/>
      <point x="11" y="372"/>
      <point x="11" y="234" type="curve" smooth="yes"/>
      <point x="11" y="101"/>
      <point x="95" y="-19"/>
      <point x="234" y="-17" type="curve"/>
      <point x="406" y="112" type="line"/>
    </contour>
    <contour>
      <point x="376" y="629" type="line"/>
      <point x="452" y="666" type="line"/>
      <point x="452" y="737" type="line"/>
      <point x="382" y="733"/>
      <point x="312" y="721"/>
      <point x="254" y="700" type="curve"/>
      <point x="259" y="650" type="line"/>
    </contour>
    <contour>
      <point x="108" y="94" type="move" name="center"/>
    </contour>
    <contour>
      <point x="208" y="260" type="move" name="topright"/>
    </contour>
  </outline>
</glyph>
<glyph name="e" format="1">
  <advance width="500"/>
  <unicode hex="0065"/>
  <outline>
    <contour>
      <point x="447" y="134" type="line"/>
      <point x="400" y="109"/>
      <point x="362" y="96"/>
      <point x="320" y="96" type="curve" smooth="yes"/>
      <point x="235" y="96"/>
      <point x="173" y="152"/>
      <point x="173" y="255" type="curve" smooth="yes"/>
      <point x="173" y="313"/>
      <point x="193" y="387"/>
      <point x="239" y="417" type="curve"/>
      <point x="299" y="414"/>
      <point x="338" y="340"/>
      <point x="328" y="273" type="curve"/>
      <point x="484" y="287" type="line"/>
      <point x="486" y="440"/>
      <point x="366" y="500"/>
      <point x="266" y="500" type="curve" smooth="yes"/>
      <point x="132" y="500"/>
      <point x="11" y="391"/>
      <point x="11" y="234" type="curve" smooth="yes"/>
      <point x="11" y="67"/>
      <point x="151" y="-35"/>
      <point x="315" y="-12" type="curve"/>
      <point x="472" y="77" type="line"/>
    </contour>
    <contour>
      <point x="127" y="231" type="line"/>
      <point x="426" y="229" type="line"/>
      <point x="484" y="287" type="line"/>
      <point x="401" y="321" type="line"/>
      <point x="115" y="303" type="line"/>
    </contour>
    <contour>
      <point x="466" y="26" type="move" name="ogonek"/>
    </contour>
    <contour>
      <point x="265" y="0" type="move" name="bottom"/>
    </contour>
    <contour>
      <point x="261" y="468" type="move" name="top"/>
    </contour>
  </outline>
</glyph>
<glyph name="g" format="1">
  <advance width="580"/>
  <unicode hex="0067"/>
  <outline>
    <contour>
      <point x="415" y="555"/>
      <point x="384" y="448"/>
      <point x="402" y="361" type="curve"/>
      <point x="425" y="380" type="line"/>
      <point x="464" y="414"/>
      <point x="513" y="428"/>
      <point x="572" y="419" type="curve"/>
      <point x="544" y="561" type="line"/>
    </contour>
    <contour>
      <point x="410" y="156"/>
      <point x="502" y="233"/>
      <point x="502" y="329" type="curve" smooth="yes"/>
      <point x="502" y="427"/>
      <point x="406" y="504"/>
      <point x="267" y="504" type="curve" smooth="yes"/>
      <point x="122" y="504"/>
      <point x="30" y="419"/>
      <point x="30" y="326" type="curve" smooth="yes"/>
      <point x="30" y="237"/>
      <point x="112" y="156"/>
      <point x="263" y="156" type="curve" smooth="yes"/>
    </contour>
    <contour>
      <point x="291" y="446"/>
      <point x="335" y="381"/>
      <point x="335" y="319" type="curve" smooth="yes"/>
      <point x="335" y="284"/>
      <point x="324" y="247"/>
      <point x="302" y="232" type="curve"/>
      <point x="233" y="213"/>
      <point x="198" y="265"/>
      <point x="198" y="330" type="curve" smooth="yes"/>
      <point x="198" y="365"/>
      <point x="207" y="406"/>
      <point x="224" y="420" type="curve"/>
    </contour>
    <contour>
      <point x="170" y="46" type="line"/>
      <point x="14" y="-93" type="line"/>
      <point x="23" y="-208"/>
      <point x="135" y="-247"/>
      <point x="232" y="-247" type="curve" smooth="yes"/>
      <point x="434" y="-247"/>
      <point x="593" y="-82"/>
      <point x="531" y="63" type="curve"/>
      <point x="434" y="94"/>
      <point x="301" y="118"/>
      <point x="189" y="119" type="curve"/>
      <point x="210" y="140"/>
      <point x="238" y="163"/>
      <point x="269" y="181" type="curve"/>
      <point x="207" y="198" type="line"/>
      <point x="147" y="170"/>
      <point x="92" y="127"/>
      <point x="44" y="77" type="curve"/>
      <point x="65" y="3" type="line"/>
      <point x="202" y="-3"/>
      <point x="342" y="-26"/>
      <point x="423" y="-58" type="curve"/>
      <point x="393" y="-98"/>
      <point x="322" y="-119"/>
      <point x="259" y="-119" type="curve" smooth="yes"/>
      <point x="198" y="-119"/>
      <point x="148" y="-101"/>
      <point x="148" y="-61" type="curve" smooth="yes"/>
      <point x="148" y="-28"/>
      <point x="192" y="11"/>
      <point x="263" y="51" type="curve"/>
    </contour>
    <contour>
      <point x="265" y="468" type="move" name="top"/>
    </contour>
  </outline>
</glyph>
<glyph name="m" format="1">
  <advance width="948"/>
  <unicode hex="006D"/>
  <outline>
    <contour>
      <point x="133" y="391" type="line"/>
      <point x="209" y="428" type="line"/>
      <point x="209" y="498" type="line"/>
      <point x="139" y="496"/>
      <point x="69" y="483"/>
      <point x="11" y="461" type="curve"/>
      <point x="16" y="413" type="line"/>
    </contour>
    <contour>
      <point x="90" y="0" type="line"/>
      <point x="263" y="0" type="line"/>
      <point x="263" y="444" type="line"/>
      <point x="209" y="498" type="line"/>
      <point x="90" y="446" type="line"/>
    </contour>
    <contour>
      <point x="387" y="0" type="line"/>
      <point x="560" y="0" type="line"/>
      <point x="560" y="296" type="line" smooth="yes"/>
      <point x="560" y="380"/>
      <point x="558" y="406"/>
      <point x="548" y="423" type="curve" smooth="yes"/>
      <point x="513" y="478"/>
      <point x="448" y="494"/>
      <point x="409" y="495" type="curve"/>
      <point x="337" y="472"/>
      <point x="247" y="413"/>
      <point x="163" y="329" type="curve"/>
      <point x="168" y="303" type="line"/>
      <point x="216" y="339"/>
      <point x="273" y="376"/>
      <point x="319" y="378" type="curve" smooth="yes"/>
      <point x="362" y="380"/>
      <point x="387" y="346"/>
      <point x="387" y="285" type="curve" smooth="yes"/>
    </contour>
    <contour>
      <point x="685" y="0" type="line"/>
      <point x="858" y="0" type="line"/>
      <point x="858" y="296" type="line" smooth="yes"/>
      <point x="858" y="380"/>
      <point x="856" y="406"/>
      <point x="846" y="423" type="curve" smooth="yes"/>
      <point x="811" y="478"/>
      <point x="746" y="494"/>
      <point x="707" y="495" type="curve"/>
      <point x="635" y="472"/>
      <point x="545" y="413"/>
      <point x="461" y="329" type="curve"/>
      <point x="466" y="303" type="line"/>
      <point x="514" y="339"/>
      <point x="571" y="376"/>
      <point x="617" y="378" type="curve" smooth="yes"/>
      <point x="660" y="380"/>
      <point x="685" y="346"/>
      <point x="685" y="285" type="curve" smooth="yes"/>
    </contour>
    <contour>
      <point x="130" y="0" type="line"/>
      <point x="140" y="83" type="line"/>
      <point x="102" y="74"/>
      <point x="54" y="57"/>
      <point x="16" y="35" type="curve"/>
      <point x="18" y="0" type="line"/>
    </contour>
    <contour>
      <point x="319" y="0" type="line"/>
      <point x="321" y="49" type="line"/>
      <point x="284" y="75"/>
      <point x="240" y="93"/>
      <point x="198" y="103" type="curve"/>
      <point x="173" y="0" type="line"/>
    </contour>
    <contour>
      <point x="617" y="0" type="line"/>
      <point x="620" y="49" type="line"/>
      <point x="582" y="75"/>
      <point x="537" y="93"/>
      <point x="495" y="103" type="curve"/>
      <point x="470" y="0" type="line"/>
    </contour>
    <contour>
      <point x="932" y="0" type="line"/>
      <point x="935" y="49" type="line"/>
      <point x="897" y="75"/>
      <point x="840" y="93"/>
      <point x="798" y="103" type="curve"/>
      <point x="773" y="0" type="line"/>
    </contour>
  </outline>
</glyph>
<glyph name="n" format="1">
  <advance width="650"/>
  <unicode hex="006E"/>
  <outline>
    <contour>
      <point x="133" y="391" type="line"/>
      <point x="209" y="428" type="line"/>
      <point x="209" y="498" type="line"/>
      <point x="139" y="496"/>
      <point x="69" y="483"/>
      <point x="11" y="461" type="curve"/>
      <point x="16" y="413" type="line"/>
    </contour>
    <contour>
      <point x="90" y="0" type="line"/>
      <point x="263" y="0" type="line"/>
      <point x="263" y="444" type="line"/>
      <point x="209" y="498" type="line"/>
      <point x="90" y="446" type="line"/>
    </contour>
    <contour>
      <point x="130" y="0" type="line"/>
      <point x="140" y="83" type="line"/>
      <point x="102" y="74"/>
      <point x="54" y="57"/>
      <point x="16" y="35" type="curve"/>
      <point x="18" y="0" type="line"/>
    </contour>
    <contour>
      <point x="319" y="0" type="line"/>
      <point x="321" y="49" type="line"/>
      <point x="284" y="75"/>
      <point x="240" y="93"/>
      <point x="198" y="103" type="curve"/>
      <point x="173" y="0" type="line"/>
    </contour>
    <contour>
      <point x="634" y="0" type="line"/>
      <point x="637" y="49" type="line"/>
      <point x="599" y="75"/>
      <point x="542" y="93"/>
      <point x="500" y="103" type="curve"/>
      <point x="475" y="0" type="line"/>
    </contour>
    <contour>
      <point x="392" y="0" type="line"/>
      <point x="565" y="0" type="line"/>
      <point x="565" y="296" type="line" smooth="yes"/>
      <point x="565" y="380"/>
      <point x="563" y="406"/>
      <point x="553" y="423" type="curve" smooth="yes"/>
      <point x="518" y="478"/>
      <point x="453" y="494"/>
      <point x="414" y="495" type="curve"/>
      <point x="342" y="472"/>
      <point x="252" y="413"/>
      <point x="168" y="329" type="curve"/>
      <point x="173" y="303" type="line"/>
      <point x="221" y="339"/>
      <point x="278" y="376"/>
      <point x="324" y="378" type="curve" smooth="yes"/>
      <point x="367" y="380"/>
      <point x="392" y="346"/>
      <point x="392" y="285" type="curve" smooth="yes"/>
    </contour>
    <contour>
      <point x="325" y="468" type="move" name="top"/>
    </contour>
    <contour>
      <point x="333" y="0" type="move" name="bottom"/>
    </contour>
  </outline>
</glyph>
<glyph name="r" format="1">
  <advance width="496"/>
  <unicode hex="0072"/>
  <outline>
    <contour>
      <point x="133" y="391" type="line"/>
      <point x="209" y="428" type="line"/>
      <point x="209" y="498" type="line"/>
      <point x="139" y="496"/>
      <point x="69" y="483"/>
      <point x="11" y="461" type="curve"/>
      <point x="16" y="413" type="line"/>
    </contour>
    <contour>
      <point x="90" y="0" type="line"/>
      <point x="263" y="0" type="line"/>
      <point x="263" y="423" type="line"/>
      <point x="209" y="498" type="line"/>
      <point x="90" y="446" type="line"/>
    </contour>
    <contour>
      <point x="130" y="0" type="line"/>
      <point x="140" y="83" type="line"/>
      <point x="102" y="74"/>
      <point x="54" y="57"/>
      <point x="16" y="35" type="curve"/>
      <point x="18" y="0" type="line"/>
    </contour>
    <contour>
      <point x="370" y="0" type="line"/>
      <point x="372" y="49" type="line"/>
      <point x="335" y="72"/>
      <point x="283" y="87"/>
      <point x="241" y="97" type="curve"/>
      <point x="216" y="0" type="line"/>
    </contour>
    <contour>
      <point x="183" y="314" type="line"/>
      <point x="155" y="249" type="line"/>
      <point x="278" y="339" type="line"/>
      <point x="317" y="334"/>
      <point x="355" y="303"/>
      <point x="385" y="278" type="curve"/>
      <point x="500" y="423" type="line"/>
      <point x="477" y="484"/>
      <point x="403" y="512"/>
      <point x="342" y="494" type="curve"/>
    </contour>
    <contour>
      <point x="263" y="468" type="move" name="top"/>
    </contour>
    <contour>
      <point x="193" y="0" type="move" name="bottom"/>
    </contour>
  </outline>
</glyph>
<glyph name="t" format="1">
  <advance width="402"/>
  <unicode hex="0074"/>
  <outline>
    <contour>
      <point x="369" y="120" type="line"/>
      <point x="344" y="115"/>
      <point x="312" y="111"/>
      <point x="289" y="111" type="curve" smooth="yes"/>
      <point x="263" y="111"/>
      <point x="251" y="121"/>
      <point x="251" y="154" type="curve" smooth="yes"/>
      <point x="251" y="444" type="line"/>
      <point x="221" y="607" type="line"/>
      <point x="142" y="607" type="line"/>
      <point x="78" y="451" type="line"/>
      <point x="78" y="92" type="line" smooth="yes"/>
      <point x="78" y="33"/>
      <point x="144" y="-20"/>
      <point x="211" y="-17" type="curve"/>
      <point x="376" y="68" type="line"/>
    </contour>
    <contour>
      <point x="192" y="362" type="line"/>
      <point x="206" y="431" type="line"/>
      <point x="179" y="522" type="line"/>
      <point x="109" y="488"/>
      <point x="50" y="454"/>
      <point x="2" y="415" type="curve"/>
      <point x="5" y="361" type="line"/>
    </contour>
    <contour>
      <point x="201" y="360" type="line"/>
      <point x="335" y="360" type="line"/>
      <point x="385" y="423" type="line"/>
      <point x="384" y="473" type="line"/>
      <point x="201" y="473" type="line"/>
    </contour>
    <contour>
      <point x="207" y="234" type="move" name="center"/>
    </contour>
    <contour>
      <point x="197" y="0" type="move" name="bottom"/>
    </contour>
    <contour>
      <point x="394" y="468" type="move" name="topright"/>
    </contour>
  </outline>
</glyph>
<glyph name="v" format="1">
  <advance width="556"/>
  <unicode hex="0076"/>
  <outline>
    <contour>
      <point x="-23" y="424" type="line"/>
      <point x="151" y="325" type="line"/>
      <point x="196" y="479" type="line"/>
      <point x="-22" y="479" type="line"/>
    </contour>
    <contour>
      <point x="225" y="-11"/>
      <point x="305" y="-10"/>
      <point x="349" y="3" type="curve"/>
      <point x="417" y="156"/>
      <point x="477" y="325"/>
      <point x="542" y="479" type="curve"/>
      <point x="355" y="479" type="line"/>
      <point x="342" y="375"/>
      <point x="323" y="254"/>
      <point x="303" y="150" type="curve"/>
      <point x="289" y="150" type="line"/>
      <point x="275" y="226" type="line"/>
      <point x="196" y="479" type="line"/>
      <point x="16" y="455" type="line"/>
      <point x="185" y="-4" type="line"/>
    </contour>
    <contour>
      <point x="403" y="479" type="line"/>
      <point x="490" y="393" type="line"/>
      <point x="515" y="403"/>
      <point x="537" y="415"/>
      <point x="559" y="430" type="curve"/>
      <point x="556" y="479" type="line"/>
    </contour>
  </outline>
</glyph>
<glyph name="w" format="1">
  <advance width="793"/>
  <unicode hex="0077"/>
  <outline>
    <contour>
      <point x="-23" y="424" type="line"/>
      <point x="145" y="325" type="line"/>
      <point x="187" y="479" type="line"/>
      <point x="-22" y="479" type="line"/>
    </contour>
    <contour>
      <point x="776" y="479" type="line"/>
      <point x="588" y="479" type="line"/>
      <point x="561" y="136" type="line"/>
      <point x="548" y="136" type="line"/>
      <point x="459" y="475" type="line"/>
      <point x="283" y="467" type="line"/>
      <point x="447" y="-4" type="line"/>
      <point x="487" y="-12"/>
      <point x="561" y="-10"/>
      <point x="607" y="5" type="curve"/>
    </contour>
    <contour>
      <point x="639" y="479" type="line"/>
      <point x="726" y="393" type="line"/>
      <point x="751" y="403"/>
      <point x="773" y="415"/>
      <point x="795" y="430" type="curve"/>
      <point x="792" y="479" type="line"/>
    </contour>
    <contour>
      <point x="362" y="313" type="line"/>
      <point x="298" y="136" type="line"/>
      <point x="284" y="136" type="line"/>
      <point x="188" y="479" type="line"/>
      <point x="11" y="455" type="line"/>
      <point x="168" y="-4" type="line"/>
      <point x="209" y="-11"/>
      <point x="288" y="-10"/>
      <point x="333" y="5" type="curve"/>
      <point x="407" y="176" type="line"/>
      <point x="426" y="274" type="line"/>
    </contour>
    <contour>
      <point x="152" y="200" type="move" name="top"/>
    </contour>
  </outline>
</glyph>
<glyph name="x" format="1">
  <advance width="584"/>
  <unicode hex="0078"/>
  <outline>
    <contour>
      <point x="14" y="424" type="line"/>
      <point x="191" y="325" type="line"/>
      <point x="221" y="479" type="line"/>
      <point x="14" y="479" type="line"/>
    </contour>
    <contour>
      <point x="237" y="403"/>
      <point x="259" y="415"/>
      <point x="281" y="430" type="curve"/>
      <point x="278" y="479" type="line"/>
      <point x="167" y="479" type="line"/>
      <point x="212" y="393" type="line" smooth="yes"/>
    </contour>
    <contour>
      <point x="422" y="375" type="line"/>
      <point x="530" y="479" type="line"/>
      <point x="311" y="479" type="line"/>
      <point x="311" y="424" type="line"/>
    </contour>
    <contour>
      <point x="404" y="479" type="line"/>
      <point x="473" y="390" type="line"/>
      <point x="500" y="398"/>
      <point x="538" y="417"/>
      <point x="560" y="430" type="curve"/>
      <point x="557" y="479" type="line"/>
    </contour>
    <contour>
      <point x="373" y="0" type="line"/>
      <point x="558" y="0" type="line"/>
      <point x="213" y="479" type="line"/>
      <point x="41" y="444" type="line"/>
    </contour>
    <contour>
      <point x="513" y="414" type="line"/>
      <point x="528" y="479" type="line"/>
      <point x="372" y="479" type="line"/>
      <point x="311" y="302" type="line"/>
      <point x="345" y="220" type="line"/>
    </contour>
    <contour>
      <point x="16" y="17" type="line"/>
      <point x="42" y="0" type="line"/>
      <point x="196" y="0" type="line"/>
      <point x="264" y="183" type="line"/>
      <point x="216" y="258" type="line"/>
    </contour>
    <contour>
      <point x="110" y="0" type="line"/>
      <point x="120" y="83" type="line"/>
      <point x="82" y="74"/>
      <point x="34" y="57"/>
      <point x="-4" y="35" type="curve"/>
      <point x="-2" y="0" type="line"/>
    </contour>
    <contour>
      <point x="274" y="0" type="line"/>
      <point x="276" y="49" type="line"/>
      <point x="239" y="75"/>
      <point x="195" y="93"/>
      <point x="153" y="103" type="curve"/>
      <point x="124" y="0" type="line"/>
    </contour>
    <contour>
      <point x="436" y="0" type="line"/>
      <point x="426" y="83" type="line"/>
      <point x="388" y="74"/>
      <point x="340" y="57"/>
      <point x="302" y="35" type="curve"/>
      <point x="304" y="0" type="line"/>
    </contour>
    <contour>
      <point x="579" y="0" type="line"/>
      <point x="581" y="49" type="line"/>
      <point x="544" y="75"/>
      <point x="500" y="93"/>
      <point x="458" y="103" type="curve"/>
      <point x="429" y="0" type="line"/>
    </contour>
  </outline>
</glyph>
<glyph name="z" format="1">
  <advance width="525"/>
  <unicode hex="007A"/>
  <outline>
    <contour>
      <point x="49" y="375" type="line"/>
      <point x="403" y="429" type="line"/>
      <point x="443" y="479" type="line"/>
      <point x="47" y="479" type="line"/>
    </contour>
    <contour>
      <point x="446" y="144" type="line"/>
      <point x="399" y="131" type="line"/>
      <point x="125" y="78" type="line"/>
      <point x="95" y="30" type="line"/>
      <point x="465" y="-18" type="line"/>
      <point x="479" y="41"/>
      <point x="490" y="95"/>
      <point x="501" y="158" type="curve"/>
    </contour>
    <contour>
      <point x="144" y="298" type="line"/>
      <point x="202" y="443" type="line"/>
      <point x="48" y="479" type="line"/>
      <point x="40" y="426"/>
      <point x="42" y="351"/>
      <point x="52" y="298" type="curve"/>
    </contour>
    <contour>
      <point x="452" y="500" type="line"/>
      <point x="394" y="463" type="line"/>
      <point x="327" y="467" type="line"/>
      <point x="16" y="33" type="line"/>
      <point x="77" y="-18" type="line"/>
      <point x="149" y="36" type="line"/>
      <point x="212" y="45" type="line"/>
      <point x="508" y="447" type="line"/>
    </contour>
    <contour>
      <point x="269" y="468" type="move" name="top"/>
    </contour>
  </outline>
</glyph>
<glyph name="braceright" format="1">
  <advance width="532"/>
  <unicode hex="007D"/>
  <outline>
    <contour>
      <point x="277" y="-135"/>
      <point x="373" y="-42"/>
      <point x="373" y="28" type="curve" smooth="yes"/>
      <point x="373" y="142" type="line" smooth="yes"/>
      <point x="373" y="223"/>
      <point x="378" y="262"/>
      <point x="466" y="268" type="curve"/>
      <point x="460" y="327" type="line"/>
      <point x="380" y="333"/>
      <point x="373" y="374"/>
      <point x="373" y="443" type="curve" smooth="yes"/>
      <point x="373" y="543" type="line" smooth="yes"/>
      <point x="373" y="622"/>
      <point x="291" y="715"/>
      <point x="90" y="729" type="curve"/>
      <point x="84" y="620" type="line"/>
      <point x="201" y="620" type="line"/>
      <point x="189" y="449" type="line" smooth="yes"/>
      <point x="185" y="397"/>
      <point x="207" y="346"/>
      <point x="245" y="304" type="curve"/>
      <point x="245" y="295" type="line"/>
      <point x="207" y="252"/>
      <point x="185" y="202"/>
      <point x="189" y="149" type="curve" smooth="yes"/>
      <point x="201" y="-24" type="line"/>
      <point x="87" y="-36" type="line"/>
      <point x="97" y="-145" type="line"/>
    </contour>
  </outline>
</glyph>
<glyph name="cent" format="1">
  <advance width="475"/>
  <unicode hex="00A2"/>
  <outline>
    <contour>
      <point x="216" y="465" type="line"/>
      <point x="314" y="465" type="line"/>
      <point x="314" y="599" type="line"/>
      <point x="216" y="599" type="line"/>
    </contour>
    <contour>
      <point x="216" y="-117" type="line"/>
      <point x="314" y="-117" type="line"/>
      <point x="314" y="17" type="line"/>
      <point x="216" y="17" type="line"/>
    </contour>
    <component base="c" yOffset="19" yScale="0.938"/>
  </outline>
</glyph>
<glyph name="sterling" format="1">
  <advance width="591"/>
  <unicode hex="00A3"/>
  <outline>
    <contour>
      <point x="162" y="670"/>
      <point x="71" y="559"/>
      <point x="71" y="461" type="curve" smooth="yes"/>
      <point x="71" y="335"/>
      <point x="220" y="218"/>
      <point x="52" y="0" type="curve"/>
      <point x="155" y="0" type="line"/>
      <point x="391" y="192"/>
      <point x="254" y="363"/>
      <point x="254" y="488" type="curve" smooth="yes"/>
      <point x="254" y="522"/>
      <point x="263" y="555"/>
      <point x="297" y="576" type="curve"/>
      <point x="365" y="568"/>
      <point x="420" y="547"/>
      <point x="474" y="492" type="curve"/>
      <point x="534" y="621" type="line"/>
      <point x="481" y="648"/>
      <point x="403" y="670"/>
      <point x="330" y="670" type="curve" smooth="yes"/>
    </contour>
    <contour>
      <point x="78" y="69"/>
      <point x="45" y="52"/>
      <point x="16" y="32" type="curve"/>
      <point x="22" y="0" type="line"/>
      <point x="116" y="0" type="line"/>
      <point x="115" y="85" type="line"/>
    </contour>
    <contour>
      <point x="232" y="96" type="line"/>
      <point x="126" y="0" type="line"/>
      <point x="553" y="0" type="line"/>
      <point x="536" y="115" type="line"/>
    </contour>
    <contour>
      <point x="425" y="302" type="line"/>
      <point x="419" y="337" type="line"/>
      <point x="258" y="337" type="line"/>
      <point x="221" y="321" type="line"/>
      <point x="61" y="321" type="line"/>
      <point x="18" y="281" type="line"/>
      <point x="24" y="246" type="line"/>
      <point x="206" y="246" type="line"/>
      <point x="243" y="262" type="line"/>
      <point x="382" y="262" type="line"/>
    </contour>
    <contour>
      <point x="534" y="482"/>
      <point x="538" y="578"/>
      <point x="534" y="621" type="curve"/>
      <point x="345" y="611" type="line"/>
      <point x="433" y="429" type="line"/>
      <point x="521" y="429" type="line"/>
    </contour>
    <contour>
      <point x="465" y="231" type="line"/>
      <point x="370" y="16" type="line"/>
      <point x="552" y="0" type="line"/>
      <point x="559" y="47"/>
      <point x="556" y="169"/>
      <point x="547" y="224" type="curve"/>
    </contour>
  </outline>
</glyph>
<glyph name="copyright" format="1">
  <advance width="784"/>
  <unicode hex="00A9"/>
  <outline>
    <contour>
      <point x="592" y="-24"/>
      <point x="750" y="132"/>
      <point x="750" y="331" type="curve" smooth="yes"/>
      <point x="750" y="532"/>
      <point x="587" y="691"/>
      <point x="389" y="691" type="curve" smooth="yes"/>
      <point x="191" y="691"/>
      <point x="33" y="532"/>
      <point x="33" y="332" type="curve" smooth="yes"/>
      <point x="33" y="130"/>
      <point x="193" y="-24"/>
      <point x="392" y="-24" type="curve" smooth="yes"/>
    </contour>
    <contour>
      <point x="233" y="53"/>
      <point x="112" y="173"/>
      <point x="112" y="330" type="curve" smooth="yes"/>
      <point x="112" y="489"/>
      <point x="238" y="613"/>
      <point x="392" y="613" type="curve" smooth="yes"/>
      <point x="546" y="613"/>
      <point x="672" y="488"/>
      <point x="672" y="333" type="curve" smooth="yes"/>
      <point x="672" y="179"/>
      <point x="550" y="53"/>
      <point x="389" y="53" type="curve" smooth="yes"/>
    </contour>
    <contour>
      <point x="540" y="249" type="line"/>
      <point x="511" y="239"/>
      <point x="489" y="233"/>
      <point x="461" y="233" type="curve" smooth="yes"/>
      <point x="376" y="233"/>
      <point x="331" y="284"/>
      <point x="331" y="349" type="curve" smooth="yes"/>
      <point x="331" y="384"/>
      <point x="345" y="429"/>
      <point x="374" y="458" type="curve"/>
      <point x="416" y="438"/>
      <point x="439" y="407"/>
      <point x="460" y="360" type="curve"/>
      <point x="570" y="420" type="line"/>
      <point x="533" y="503"/>
      <point x="472" y="529"/>
      <point x="405" y="529" type="curve" smooth="yes"/>
      <point x="287" y="529"/>
      <point x="200" y="448"/>
      <point x="200" y="330" type="curve" smooth="yes"/>
      <point x="200" y="200"/>
      <point x="306" y="125"/>
      <point x="430" y="136" type="curve"/>
      <point x="558" y="204" type="line"/>
    </contour>
  </outline>
</glyph>
<glyph name="ordfeminine" format="1">
  <advance width="441"/>
  <unicode hex="00AA"/>
  <outline>
    <contour>
      <point x="52" y="435"/>
      <point x="38" y="404"/>
      <point x="38" y="378" type="curve" smooth="yes"/>
      <point x="38" y="330"/>
      <point x="82" y="286"/>
      <point x="163" y="298" type="curve"/>
      <point x="247" y="355" type="line"/>
      <point x="237" y="377" type="line"/>
      <point x="220" y="372"/>
      <point x="184" y="363"/>
      <point x="161" y="362" type="curve"/>
      <point x="153" y="367"/>
      <point x="149" y="375"/>
      <point x="149" y="385" type="curve" smooth="yes"/>
      <point x="149" y="412"/>
      <point x="184" y="419"/>
      <point x="214" y="417" type="curve" smooth="yes"/>
      <point x="241" y="414" type="line"/>
      <point x="241" y="458" type="line"/>
      <point x="89" y="456" type="line"/>
    </contour>
    <contour>
      <point x="54" y="560"/>
      <point x="58" y="519"/>
      <point x="65" y="489" type="curve"/>
      <point x="137" y="491" type="line"/>
      <point x="154" y="566" type="line"/>
      <point x="163" y="568"/>
      <point x="178" y="570"/>
      <point x="194" y="570" type="curve"/>
      <point x="210" y="563"/>
      <point x="225" y="545"/>
      <point x="225" y="507" type="curve" smooth="yes"/>
      <point x="225" y="353" type="line"/>
      <point x="231" y="351" type="line"/>
      <point x="247" y="316"/>
      <point x="278" y="296"/>
      <point x="307" y="295" type="curve"/>
      <point x="399" y="347" type="line"/>
      <point x="396" y="376" type="line"/>
      <point x="381" y="375"/>
      <point x="372" y="374"/>
      <point x="361" y="374" type="curve" smooth="yes"/>
      <point x="350" y="374"/>
      <point x="345" y="381"/>
      <point x="345" y="391" type="curve"/>
      <point x="345" y="510" type="line" smooth="yes"/>
      <point x="345" y="547"/>
      <point x="344" y="563"/>
      <point x="338" y="575" type="curve" smooth="yes"/>
      <point x="318" y="604"/>
      <point x="287" y="625"/>
      <point x="245" y="628" type="curve" smooth="yes"/>
      <point x="190" y="628"/>
      <point x="111" y="614"/>
      <point x="56" y="591" type="curve"/>
    </contour>
    <contour>
      <point x="31" y="255" type="line"/>
      <point x="31" y="192" type="line"/>
      <point x="411" y="192" type="line"/>
      <point x="411" y="255" type="line"/>
    </contour>
  </outline>
</glyph>
<glyph name="degree" format="1">
  <advance width="369"/>
  <unicode hex="00B0"/>
  <outline>
    <contour>
      <point x="192" y="456"/>
      <point x="183" y="455"/>
      <point x="175" y="455" type="curve" smooth="yes"/>
      <point x="135" y="455"/>
      <point x="116" y="489"/>
      <point x="116" y="522" type="curve" smooth="yes"/>
      <point x="116" y="540"/>
      <point x="122" y="558"/>
      <point x="132" y="571" type="curve"/>
      <point x="142" y="576"/>
      <point x="152" y="578"/>
      <point x="162" y="578" type="curve" smooth="yes"/>
      <point x="199" y="578"/>
      <point x="219" y="543"/>
      <point x="219" y="509" type="curve" smooth="yes"/>
      <point x="219" y="490"/>
      <point x="213" y="472"/>
      <point x="201" y="459" type="curve"/>
    </contour>
    <contour>
      <point x="30" y="434"/>
      <point x="96" y="379"/>
      <point x="172" y="379" type="curve" smooth="yes"/>
      <point x="252" y="379"/>
      <point x="309" y="433"/>
      <point x="309" y="517" type="curve" smooth="yes"/>
      <point x="309" y="596"/>
      <point x="248" y="657"/>
      <point x="168" y="657" type="curve" smooth="yes"/>
      <point x="90" y="657"/>
      <point x="30" y="596"/>
      <point x="30" y="517" type="curve" smooth="yes"/>
    </contour>
  </outline>
</glyph>
<glyph name="multiply" format="1">
  <advance width="557"/>
  <unicode hex="00D7"/>
  <outline>
    <contour>
      <point x="281" y="311" type="line"/>
      <point x="135" y="461" type="line"/>
      <point x="60" y="389" type="line"/>
      <point x="207" y="238" type="line"/>
      <point x="62" y="90" type="line"/>
      <point x="134" y="19" type="line"/>
      <point x="278" y="168" type="line"/>
      <point x="423" y="18" type="line"/>
      <point x="497" y="92" type="line"/>
      <point x="350" y="240" type="line"/>
      <point x="497" y="390" type="line"/>
      <point x="424" y="460" type="line"/>
    </contour>
  </outline>
</glyph>
<glyph name="Oslash" format="1">
  <advance width="708"/>
  <unicode hex="00D8"/>
  <outline>
    <contour>
      <point x="176" y="-90" type="line"/>
      <point x="612" y="703" type="line"/>
      <point x="537" y="746" type="line"/>
      <point x="101" y="-49" type="line"/>
    </contour>
    <component base="O"/>
  </outline>
</glyph>
<glyph name="germandbls" format="1">
  <advance width="647"/>
  <unicode hex="00DF"/>
  <outline>
    <contour>
      <point x="238" y="687"/>
      <point x="82" y="640"/>
      <point x="82" y="478" type="curve" smooth="yes"/>
      <point x="82" y="0" type="line"/>
      <point x="254" y="0" type="line"/>
      <point x="254" y="436" type="line"/>
      <point x="248" y="567" type="line"/>
      <point x="278" y="585"/>
      <point x="323" y="588"/>
      <point x="349" y="582" type="curve"/>
      <point x="410" y="510"/>
      <point x="354" y="411"/>
      <point x="305" y="339" type="curve"/>
      <point x="317" y="222"/>
      <point x="467" y="210"/>
      <point x="467" y="130" type="curve" smooth="yes"/>
      <point x="467" y="116"/>
      <point x="461" y="102"/>
      <point x="449" y="88" type="curve"/>
      <point x="408" y="97"/>
      <point x="365" y="125"/>
      <point x="335" y="152" type="curve"/>
      <point x="294" y="8" type="line"/>
      <point x="340" y="-8"/>
      <point x="394" y="-18"/>
      <point x="439" y="-18" type="curve" smooth="yes"/>
      <point x="547" y="-18"/>
      <point x="631" y="39"/>
      <point x="631" y="137" type="curve" smooth="yes"/>
      <point x="631" y="272"/>
      <point x="470" y="306"/>
      <point x="453" y="374" type="curve"/>
      <point x="512" y="418"/>
      <point x="537" y="462"/>
      <point x="537" y="510" type="curve" smooth="yes"/>
      <point x="537" y="601"/>
      <point x="446" y="687"/>
      <point x="317" y="687" type="curve" smooth="yes"/>
    </contour>
    <contour>
      <point x="190" y="356" type="line"/>
      <point x="203" y="425" type="line"/>
      <point x="136" y="485" type="line"/>
      <point x="86" y="468"/>
      <point x="40" y="444"/>
      <point x="0" y="409" type="curve"/>
      <point x="2" y="354" type="line"/>
    </contour>
    <contour>
      <point x="124" y="0" type="line"/>
      <point x="134" y="83" type="line"/>
      <point x="96" y="74"/>
      <point x="48" y="57"/>
      <point x="10" y="35" type="curve"/>
      <point x="12" y="0" type="line"/>
    </contour>
  </outline>
</glyph>
<glyph name="Dcroat" format="1">
  <advance width="756"/>
  <unicode hex="0110"/>
  <outline>
    <contour>
      <point x="424" y="311" type="line"/>
      <point x="418" y="346" type="line"/>
      <point x="56" y="346" type="line"/>
      <point x="13" y="303" type="line"/>
      <point x="19" y="268" type="line"/>
      <point x="381" y="268" type="line"/>
    </contour>
    <component base="D"/>
  </outline>
</glyph>
<glyph name="dcroat" format="1">
  <advance width="606"/>
  <unicode hex="0111"/>
  <outline>
    <contour>
      <point x="599" y="568" type="line"/>
      <point x="593" y="603" type="line"/>
      <point x="261" y="603" type="line"/>
      <point x="218" y="567" type="line"/>
      <point x="224" y="532" type="line"/>
      <point x="556" y="532" type="line"/>
    </contour>
    <component base="d"/>
  </outline>
</glyph>
<glyph name="Lslash" format="1">
  <advance width="635"/>
  <unicode hex="0141"/>
  <outline>
    <contour>
      <point x="27" y="277" type="line"/>
      <point x="56" y="216" type="line"/>
      <point x="421" y="386" type="line"/>
      <point x="436" y="438" type="line"/>
      <point x="420" y="462" type="line"/>
    </contour>
    <component base="L" xOffset="18"/>
  </outline>
</glyph>
<glyph name="lslash" format="1">
  <advance width="432"/>
  <unicode hex="0142"/>
  <outline>
    <contour>
      <point x="6" y="325" type="line"/>
      <point x="41" y="258" type="line"/>
      <point x="374" y="426" type="line"/>
      <point x="374" y="482" type="line"/>
      <point x="348" y="498" type="line"/>
    </contour>
    <component base="l" xOffset="23"/>
  </outline>
</glyph>
<glyph name="gravecomb" format="1">
  <advance width="0"/>
  <unicode hex="0300"/>
  <outline>
    <contour>
      <point x="100" y="602" type="line"/>
      <point x="-54" y="790" type="line"/>
      <point x="-162" y="695" type="line"/>
      <point x="-102" y="647"/>
      <point x="-43" y="588"/>
      <point x="13" y="534" type="curve"/>
    </contour>
    <contour>
      <point x="0" y="473" type="move" name="_top"/>
    </contour>
  </outline>
</glyph>
<glyph name="acutecomb" format="1">
  <advance width="0"/>
  <unicode hex="0301"/>
  <outline>
    <contour>
      <point x="44" y="588"/>
      <point x="103" y="647"/>
      <point x="163" y="695" type="curve"/>
      <point x="55" y="790" type="line"/>
      <point x="-99" y="602" type="line"/>
      <point x="-12" y="534" type="line"/>
    </contour>
    <contour>
      <point x="0" y="473" type="move" name="_top"/>
    </contour>
  </outline>
</glyph>
<glyph name="circumflexcomb" format="1">
  <advance width="0"/>
  <unicode hex="0302"/>
  <outline>
    <contour>
      <point x="-121" y="529" type="line"/>
      <point x="1" y="643" type="line"/>
      <point x="139" y="534" type="line"/>
      <point x="194" y="587" type="line"/>
      <point x="63" y="743" type="line"/>
      <point x="-52" y="743" type="line"/>
      <point x="-186" y="579" type="line"/>
    </contour>
    <contour>
      <point x="0" y="473" type="move" name="_top"/>
    </contour>
  </outline>
</glyph>
<glyph name="tildecomb" format="1">
  <advance width="0"/>
  <unicode hex="0303"/>
  <outline>
    <contour>
      <point x="-157" y="550" type="line"/>
      <point x="-115" y="601"/>
      <point x="-91" y="628"/>
      <point x="-70" y="628" type="curve" smooth="yes"/>
      <point x="-34" y="628"/>
      <point x="47" y="544"/>
      <point x="98" y="544" type="curve" smooth="yes"/>
      <point x="140" y="544"/>
      <point x="187" y="600"/>
      <point x="236" y="696" type="curve"/>
      <point x="182" y="735" type="line"/>
      <point x="100" y="652" type="line"/>
      <point x="48" y="691"/>
      <point x="-35" y="742"/>
      <point x="-65" y="742" type="curve"/>
      <point x="-115" y="742"/>
      <point x="-148" y="705"/>
      <point x="-214" y="594" type="curve"/>
    </contour>
    <contour>
      <point x="0" y="473" type="move" name="_top"/>
    </contour>
  </outline>
</glyph>
<glyph name="brevecomb" format="1">
  <advance width="0"/>
  <unicode hex="0306"/>
  <outline>
    <contour>
      <point x="59" y="719" type="line"/>
      <point x="59" y="670"/>
      <point x="31" y="643"/>
      <point x="-3" y="643" type="curve" smooth="yes"/>
      <point x="-35" y="643"/>
      <point x="-65" y="665"/>
      <point x="-70" y="720" type="curve"/>
      <point x="-168" y="715" type="line"/>
      <point x="-161" y="602"/>
      <point x="-78" y="550"/>
      <point x="4" y="550" type="curve" smooth="yes"/>
      <point x="90" y="550"/>
      <point x="168" y="605"/>
      <point x="170" y="715" type="curve"/>
    </contour>
    <contour>
      <point x="0" y="473" type="move" name="_top"/>
    </contour>
  </outline>
</glyph>
<glyph name="dotaccentcomb" format="1">
  <advance width="0"/>
  <unicode hex="0307"/>
  <outline>
    <contour>
      <point x="82" y="685"/>
      <point x="42" y="721"/>
      <point x="-3" y="739" type="curve"/>
      <point x="-46" y="716"/>
      <point x="-80" y="680"/>
      <point x="-87" y="629" type="curve"/>
      <point x="-66" y="589"/>
      <point x="-34" y="563"/>
      <point x="13" y="549" type="curve"/>
      <point x="53" y="570"/>
      <point x="79" y="602"/>
      <point x="92" y="644" type="curve"/>
    </contour>
    <contour>
      <point x="0" y="473" type="move" name="_top"/>
    </contour>
  </outline>
</glyph>
<glyph name="dieresiscomb" format="1">
  <advance width="0"/>
  <unicode hex="0308"/>
  <outline>
    <contour>
      <point x="-44" y="687"/>
      <point x="-83" y="721"/>
      <point x="-128" y="739" type="curve"/>
      <point x="-171" y="716"/>
      <point x="-204" y="680"/>
      <point x="-211" y="629" type="curve"/>
      <point x="-190" y="590"/>
      <point x="-159" y="564"/>
      <point x="-112" y="549" type="curve"/>
      <point x="-72" y="570"/>
      <point x="-46" y="601"/>
      <point x="-32" y="644" type="curve"/>
    </contour>
    <contour>
      <point x="200" y="687"/>
      <point x="160" y="721"/>
      <point x="116" y="739" type="curve"/>
      <point x="73" y="716"/>
      <point x="40" y="680"/>
      <point x="32" y="629" type="curve"/>
      <point x="53" y="590"/>
      <point x="85" y="564"/>
      <point x="131" y="549" type="curve"/>
      <point x="172" y="570"/>
      <point x="198" y="601"/>
      <point x="212" y="644" type="curve"/>
    </contour>
    <contour>
      <point x="0" y="473" type="move" name="_top"/>
    </contour>
  </outline>
</glyph>
<glyph name="ringcomb" format="1">
  <advance width="0"/>
  <unicode hex="030A"/>
  <outline>
    <contour>
      <point x="-123" y="758"/>
      <point x="-66" y="710"/>
      <point x="4" y="710" type="curve" smooth="yes"/>
      <point x="74" y="710"/>
      <point x="123" y="759"/>
      <point x="123" y="829" type="curve" smooth="yes"/>
      <point x="123" y="903"/>
      <point x="69" y="956"/>
      <point x="0" y="956" type="curve" smooth="yes"/>
      <point x="-71" y="956"/>
      <point x="-123" y="902"/>
      <point x="-123" y="832" type="curve" smooth="yes"/>
    </contour>
    <contour>
      <point x="-58" y="849"/>
      <point x="-33" y="874"/>
      <point x="1" y="874" type="curve" smooth="yes"/>
      <point x="33" y="874"/>
      <point x="59" y="850"/>
      <point x="59" y="815" type="curve" smooth="yes"/>
      <point x="59" y="781"/>
      <point x="35" y="758"/>
      <point x="2" y="758" type="curve" smooth="yes"/>
      <point x="-30" y="758"/>
      <point x="-58" y="780"/>
      <point x="-58" y="816" type="curve" smooth="yes"/>
    </contour>
    <contour>
      <point x="0" y="650" type="move" name="_top"/>
    </contour>
  </outline>
</glyph>
<glyph name="cedillacomb" format="1">
  <advance width="0"/>
  <unicode hex="0327"/>
  <outline>
    <contour>
      <point x="31" y="6" type="line"/>
      <point x="-36" y="6" type="line"/>
      <point x="-99" y="-70" type="line"/>
      <point x="-72" y="-115" type="line"/>
      <point x="30" y="-106"/>
      <point x="25" y="-196"/>
      <point x="-97" y="-237" type="curve"/>
      <point x="-78" y="-271" type="line"/>
      <point x="51" y="-269"/>
      <point x="121" y="-207"/>
      <point x="125" y="-146" type="curve" smooth="yes"/>
      <point x="129" y="-101"/>
      <point x="76" y="-57"/>
      <point x="-5" y="-57" type="curve"/>
    </contour>
    <contour>
      <point x="0" y="0" type="move" name="_bottom"/>
    </contour>
  </outline>
</glyph>
<glyph name="ogonekcomb" format="1">
  <advance width="0"/>
  <unicode hex="0328"/>
  <outline>
    <contour>
      <point x="-14" y="51" type="line"/>
      <point x="-164" y="5"/>
      <point x="-241" y="-71"/>
      <point x="-241" y="-144" type="curve" smooth="yes"/>
      <point x="-241" y="-208"/>
      <point x="-181" y="-266"/>
      <point x="-90" y="-256" type="curve"/>
      <point x="36" y="-190" type="line"/>
      <point x="13" y="-139" type="line"/>
      <point x="-67" y="-185"/>
      <point x="-122" y="-163"/>
      <point x="-122" y="-111" type="curve" smooth="yes"/>
      <point x="-122" y="-59"/>
      <point x="-67" y="-17"/>
      <point x="10" y="29" type="curve" smooth="yes"/>
    </contour>
    <contour>
      <point x="0" y="9" type="move" name="_ogonek"/>
    </contour>
  </outline>
</glyph>
<glyph name="uni0904" format="1">
  <advance width="859"/>
  <unicode hex="0904"/>
  <outline>
    <component base="uni0905"/>
    <component base="uni0946" xOffset="846"/>
    <contour>
      <point x="841" y="655" type="move" name="bindu"/>
    </contour>
  </outline>
</glyph>
<glyph name="dvAa" format="1">
  <advance width="1162"/>
  <unicode hex="0906"/>
  <outline>
    <component base="dvA"/>
    <component base="dvMatraAa" xOffset="859"/>
    <contour>
      <point x="851" y="660" type="move" name="bindu"/>
    </contour>
    <contour>
      <point x="843" y="660" type="move" name="candrabindu"/>
    </contour>
  </outline>
</glyph>
<glyph name="uni0906" format="1">
  <advance width="1162"/>
  <unicode hex="0906"/>
  <outline>
    <component base="uni0905"/>
    <component base="uni093E" xOffset="859"/>
    <contour>
      <point x="851" y="660" type="move" name="bindu"/>
    </contour>
    <contour>
      <point x="843" y="660" type="move" name="candrabindu"/>
    </contour>
  </outline>
</glyph>
<glyph name="uni090E" format="1">
  <advance width="604"/>
  <unicode hex="090E"/>
  <outline>
    <component base="uni090F"/>
    <component base="uni0946" xOffset="597"/>
    <contour>
      <point x="590" y="655" type="move" name="bindu"/>
    </contour>
  </outline>
</glyph>
<glyph name="uni0910" format="1">
  <advance width="604"/>
  <unicode hex="0910"/>
  <outline>
    <component base="uni090F"/>
    <component base="uni0947" xOffset="608"/>
    <contour>
      <point x="550" y="655" type="move" name="bindu"/>
    </contour>
  </outline>
</glyph>
<glyph name="uni0912" format="1">
  <advance width="1162"/>
  <unicode hex="0912"/>
  <outline>
    <component base="uni0905"/>
    <component base="uni094A" xOffset="859"/>
    <contour>
      <point x="1144" y="655" type="move" name="bindu"/>
    </contour>
    <contour>
      <point x="991" y="465" type="move" name="top"/>
    </contour>
  </outline>
</glyph>
<glyph name="uni091D" format="1">
  <advance width="862"/>
  <unicode hex="091D"/>
  <outline>
    <contour>
      <point x="627" y="19" type="line"/>
      <point x="741" y="-43" type="line"/>
      <point x="787" y="-21" type="line"/>
      <point x="787" y="490" type="line"/>
      <point x="683" y="564" type="line"/>
      <point x="627" y="590" type="line"/>
    </contour>
    <contour>
      <point x="897" y="538" type="line"/>
      <point x="918" y="580" type="line"/>
      <point x="862" y="655" type="line"/>
      <point x="512" y="655" type="line"/>
      <point x="491" y="613" type="line"/>
      <point x="547" y="538" type="line"/>
    </contour>
    <contour>
      <point x="377" y="257" type="line"/>
      <point x="467" y="182"/>
      <point x="577" y="143"/>
      <point x="642" y="167" type="curve"/>
      <point x="639" y="321" type="line"/>
      <point x="588" y="265"/>
      <point x="479" y="275"/>
      <point x="391" y="311" type="curve"/>
    </contour>
    <component base="uni0907"/>
    <contour>
      <point x="580" y="660" type="move" name="candrabindu"/>
    </contour>
    <contour>
      <point x="965" y="660" type="move" name="candrabinduCXT"/>
    </contour>
    <contour>
      <point x="561" y="660" type="move" name="bindu"/>
    </contour>
    <contour>
      <point x="697" y="473" type="move" name="top"/>
    </contour>
    <contour>
      <point x="606" y="1" type="move" name="bottom"/>
    </contour>
  </outline>
</glyph>
<glyph name="dvRra" format="1">
  <advance width="477"/>
  <unicode hex="0931"/>
  <outline>
    <component base="dvRa"/>
    <component base="dvNukta" xOffset="127" yOffset="54"/>
    <contour>
      <point x="280" y="660" type="move" name="candrabindu"/>
    </contour>
    <contour>
      <point x="569" y="660" type="move" name="candrabinduCXT"/>
    </contour>
    <contour>
      <point x="264" y="660" type="move" name="bindu"/>
    </contour>
    <contour>
      <point x="299" y="473" type="move" name="top"/>
    </contour>
    <contour>
      <point x="270" y="-135" type="move" name="bottom"/>
    </contour>
  </outline>
</glyph>
<glyph name="dvLlla" format="1">
  <advance width="787"/>
  <unicode hex="0934"/>
  <outline>
    <component base="dvLla"/>
    <component base="dvNukta" xOffset="395" yOffset="21"/>
    <contour>
      <point x="491" y="660" type="move" name="candrabindu"/>
    </contour>
    <contour>
      <point x="777" y="660" type="move" name="candrabinduCXT"/>
    </contour>
    <contour>
      <point x="516" y="660" type="move" name="bindu"/>
    </contour>
    <contour>
      <point x="530" y="473" type="move" name="top"/>
    </contour>
    <contour>
      <point x="394" y="-219" type="move" name="bottom"/>
    </contour>
  </outline>
</glyph>
<glyph name="dvMatraOOE" format="1">
  <advance width="303"/>
  <unicode hex="093B"/>
  <outline>
    <contour>
      <point x="74" y="835" type="line"/>
      <point x="74" y="602" type="line"/>
      <point x="155" y="561" type="line"/>
      <point x="185" y="578" type="line"/>
      <point x="185" y="835" type="line"/>
    </contour>
    <component base="dvMatraAa"/>
  </outline>
</glyph>
<glyph name="uni093B" format="1">
  <advance width="303"/>
  <unicode hex="093B"/>
  <outline>
    <contour>
      <point x="74" y="835" type="line"/>
      <point x="74" y="602" type="line"/>
      <point x="155" y="561" type="line"/>
      <point x="185" y="578" type="line"/>
      <point x="185" y="835" type="line"/>
    </contour>
    <component base="uni093E"/>
  </outline>
</glyph>
<glyph name="uni094A" format="1">
  <advance width="303"/>
  <unicode hex="094A"/>
  <outline>
    <component base="uni093E"/>
    <component base="uni0946" xOffset="300"/>
    <contour>
      <point x="301" y="655" type="move" name="bindu"/>
    </contour>
  </outline>
</glyph>
<glyph name="dvOm" format="1">
  <advance width="1107"/>
  <unicode hex="0950"/>
  <outline>
    <contour>
      <point x="15" y="276" type="line"/>
      <point x="125" y="35"/>
      <point x="255" y="-19"/>
      <point x="347" y="-19" type="curve" smooth="yes"/>
      <point x="472" y="-19"/>
      <point x="547" y="81"/>
      <point x="547" y="171" type="curve" smooth="yes"/>
      <point x="547" y="238"/>
      <point x="506" y="328"/>
      <point x="388" y="382" type="curve"/>
      <point x="345" y="417" type="line"/>
      <point x="293" y="426"/>
      <point x="222" y="402"/>
      <point x="179" y="364" type="curve"/>
      <point x="269" y="229" type="line"/>
      <point x="409" y="314" type="line"/>
      <point x="319" y="295" type="line"/>
      <point x="388" y="301"/>
      <point x="420" y="256"/>
      <point x="420" y="213" type="curve" smooth="yes"/>
      <point x="420" y="166"/>
      <point x="379" y="117"/>
      <point x="309" y="117" type="curve" smooth="yes"/>
      <point x="218" y="117"/>
      <point x="156" y="198"/>
      <point x="95" y="327" type="curve"/>
    </contour>
    <contour>
      <point x="186" y="460" type="line"/>
      <point x="245" y="517"/>
      <point x="317" y="556"/>
      <point x="369" y="551" type="curve"/>
      <point x="375" y="545"/>
      <point x="379" y="536"/>
      <point x="379" y="525" type="curve" smooth="yes"/>
      <point x="379" y="478"/>
      <point x="329" y="419"/>
      <point x="239" y="391" type="curve"/>
      <point x="397" y="321" type="line"/>
      <point x="465" y="360"/>
      <point x="500" y="428"/>
      <point x="500" y="480" type="curve" smooth="yes"/>
      <point x="500" y="562"/>
      <point x="411" y="668"/>
      <point x="296" y="668" type="curve" smooth="yes"/>
      <point x="222" y="668"/>
      <point x="150" y="623"/>
      <point x="101" y="571" type="curve"/>
    </contour>
    <contour>
      <point x="458" y="263" type="line"/>
      <point x="517" y="191"/>
      <point x="553" y="174"/>
      <point x="600" y="174" type="curve" smooth="yes"/>
      <point x="793" y="174"/>
      <point x="811" y="469"/>
      <point x="909" y="469" type="curve" smooth="yes"/>
      <point x="936" y="469"/>
      <point x="959" y="446"/>
      <point x="959" y="409" type="curve" smooth="yes"/>
      <point x="959" y="339"/>
      <point x="880" y="230"/>
      <point x="751" y="160" type="curve"/>
      <point x="877" y="55" type="line"/>
      <point x="1014" y="118"/>
      <point x="1092" y="239"/>
      <point x="1092" y="348" type="curve" smooth="yes"/>
      <point x="1092" y="467"/>
      <point x="1002" y="584"/>
      <point x="868" y="584" type="curve" smooth="yes"/>
      <point x="651" y="584"/>
      <point x="653" y="275"/>
      <point x="537" y="275" type="curve" smooth="yes"/>
      <point x="512" y="275"/>
      <point x="488" y="289"/>
      <point x="469" y="311" type="curve"/>
    </contour>
    <contour>
      <point x="727" y="827" type="line"/>
      <point x="714" y="751"/>
      <point x="672" y="703"/>
      <point x="608" y="703" type="curve" smooth="yes"/>
      <point x="553" y="703"/>
      <point x="505" y="740"/>
      <point x="461" y="826" type="curve"/>
      <point x="390" y="768" type="line"/>
      <point x="444" y="640"/>
      <point x="547" y="577"/>
      <point x="641" y="577" type="curve" smooth="yes"/>
      <point x="752" y="577"/>
      <point x="832" y="665"/>
      <point x="847" y="771" type="curve"/>
    </contour>
    <contour>
      <point x="646" y="784"/>
      <point x="680" y="826"/>
      <point x="693" y="862" type="curve"/>
      <point x="673" y="888"/>
      <point x="632" y="926"/>
      <point x="596" y="941" type="curve"/>
      <point x="565" y="923"/>
      <point x="534" y="880"/>
      <point x="514" y="842" type="curve"/>
      <point x="536" y="812"/>
      <point x="583" y="776"/>
      <point x="616" y="763" type="curve"/>
    </contour>
  </outline>
</glyph>
<glyph name="uni0958" format="1">
  <advance width="815"/>
  <unicode hex="0958"/>
  <outline>
    <component base="uni093C" xOffset="166" yOffset="94"/>
    <component base="uni0915"/>
    <contour>
      <point x="444" y="660" type="move" name="candrabindu"/>
    </contour>
    <contour>
      <point x="743" y="660" type="move" name="candrabinduCXT"/>
    </contour>
    <contour>
      <point x="404" y="660" type="move" name="bindu"/>
    </contour>
    <contour>
      <point x="433" y="473" type="move" name="top"/>
    </contour>
    <contour>
      <point x="309" y="-82" type="move" name="bottom"/>
    </contour>
  </outline>
</glyph>
<glyph name="dvKhha" format="1">
  <advance width="886"/>
  <unicode hex="0959"/>
  <outline>
    <component base="dvKha"/>
    <component base="dvNukta" xOffset="176" yOffset="33"/>
    <contour>
      <point x="536" y="660" type="move" name="candrabindu"/>
    </contour>
    <contour>
      <point x="988" y="660" type="move" name="candrabinduCXT"/>
    </contour>
    <contour>
      <point x="516" y="660" type="move" name="bindu"/>
    </contour>
    <contour>
      <point x="721" y="473" type="move" name="top"/>
    </contour>
    <contour>
      <point x="629" y="-78" type="move" name="bottom"/>
    </contour>
  </outline>
</glyph>
<glyph name="uni0959" format="1">
  <advance width="886"/>
  <unicode hex="0959"/>
  <outline>
    <component base="uni0916"/>
    <component base="uni093C" xOffset="176" yOffset="33"/>
    <contour>
      <point x="536" y="660" type="move" name="candrabindu"/>
    </contour>
    <contour>
      <point x="988" y="660" type="move" name="candrabinduCXT"/>
    </contour>
    <contour>
      <point x="516" y="660" type="move" name="bindu"/>
    </contour>
    <contour>
      <point x="721" y="473" type="move" name="top"/>
    </contour>
    <contour>
      <point x="629" y="-78" type="move" name="bottom"/>
    </contour>
  </outline>
</glyph>
<glyph name="uni095A" format="1">
  <advance width="665"/>
  <unicode hex="095A"/>
  <outline>
    <component base="uni0917"/>
    <component base="uni093C" xOffset="276" yOffset="87"/>
    <contour>
      <point x="385" y="660" type="move" name="candrabindu"/>
    </contour>
    <contour>
      <point x="768" y="660" type="move" name="candrabinduCXT"/>
    </contour>
    <contour>
      <point x="361" y="660" type="move" name="bindu"/>
    </contour>
    <contour>
      <point x="500" y="473" type="move" name="top"/>
    </contour>
    <contour>
      <point x="409" y="-108" type="move" name="bottom"/>
    </contour>
  </outline>
</glyph>
<glyph name="uni095B" format="1">
  <advance width="744"/>
  <unicode hex="095B"/>
  <outline>
    <component base="uni091C"/>
    <component base="uni093C" xOffset="317" yOffset="31"/>
    <contour>
      <point x="564" y="660" type="move" name="candrabindu"/>
    </contour>
    <contour>
      <point x="847" y="660" type="move" name="candrabinduCXT"/>
    </contour>
    <contour>
      <point x="583" y="660" type="move" name="bindu"/>
    </contour>
    <contour>
      <point x="579" y="473" type="move" name="top"/>
    </contour>
    <contour>
      <point x="471" y="-147" type="move" name="bottom"/>
    </contour>
  </outline>
</glyph>
<glyph name="dvDddha" format="1">
  <advance width="621"/>
  <unicode hex="095C"/>
  <outline>
    <component base="dvDda"/>
    <component base="dvNukta" xOffset="342" yOffset="-61"/>
    <contour>
      <point x="423" y="660" type="move" name="candrabindu"/>
    </contour>
    <contour>
      <point x="701" y="660" type="move" name="candrabinduCXT"/>
    </contour>
    <contour>
      <point x="440" y="660" type="move" name="bindu"/>
    </contour>
    <contour>
      <point x="456" y="473" type="move" name="top"/>
    </contour>
    <contour>
      <point x="300" y="-314" type="move" name="bottom"/>
    </contour>
  </outline>
</glyph>
<glyph name="dvRha" format="1">
  <advance width="626"/>
  <unicode hex="095D"/>
  <outline>
    <component base="dvDdha"/>
    <component base="dvNukta" xOffset="363" yOffset="-66"/>
    <contour>
      <point x="399" y="660" type="move" name="candrabindu"/>
    </contour>
    <contour>
      <point x="656" y="660" type="move" name="candrabinduCXT"/>
    </contour>
    <contour>
      <point x="415" y="660" type="move" name="bindu"/>
    </contour>
    <contour>
      <point x="438" y="473" type="move" name="top"/>
    </contour>
    <contour>
      <point x="349" y="-303" type="move" name="bottom"/>
    </contour>
  </outline>
</glyph>
<glyph name="uni095D" format="1">
  <advance width="626"/>
  <unicode hex="095D"/>
  <outline>
    <component base="uni0922"/>
    <component base="uni093C" xOffset="363" yOffset="-66"/>
    <contour>
      <point x="399" y="660" type="move" name="candrabindu"/>
    </contour>
    <contour>
      <point x="656" y="660" type="move" name="candrabinduCXT"/>
    </contour>
    <contour>
      <point x="415" y="660" type="move" name="bindu"/>
    </contour>
    <contour>
      <point x="438" y="473" type="move" name="top"/>
    </contour>
    <contour>
      <point x="349" y="-303" type="move" name="bottom"/>
    </contour>
  </outline>
</glyph>
<glyph name="dvFa" format="1">
  <advance width="840"/>
  <unicode hex="095E"/>
  <outline>
    <component base="dvPha"/>
    <component base="dvNukta" xOffset="180" yOffset="130"/>
    <contour>
      <point x="455" y="660" type="move" name="candrabindu"/>
    </contour>
    <contour>
      <point x="795" y="660" type="move" name="candrabinduCXT"/>
    </contour>
    <contour>
      <point x="415" y="660" type="move" name="bindu"/>
    </contour>
    <contour>
      <point x="445" y="473" type="move" name="top"/>
    </contour>
    <contour>
      <point x="325" y="-82" type="move" name="bottom"/>
    </contour>
  </outline>
</glyph>
<glyph name="uni095E" format="1">
  <advance width="840"/>
  <unicode hex="095E"/>
  <outline>
    <component base="uni092B"/>
    <component base="uni093C" xOffset="180" yOffset="130"/>
    <contour>
      <point x="455" y="660" type="move" name="candrabindu"/>
    </contour>
    <contour>
      <point x="795" y="660" type="move" name="candrabinduCXT"/>
    </contour>
    <contour>
      <point x="415" y="660" type="move" name="bindu"/>
    </contour>
    <contour>
      <point x="445" y="473" type="move" name="top"/>
    </contour>
    <contour>
      <point x="325" y="-82" type="move" name="bottom"/>
    </contour>
  </outline>
</glyph>
<glyph name="uni095F" format="1">
  <advance width="658"/>
  <unicode hex="095F"/>
  <outline>
    <component base="uni092F"/>
    <component base="uni093C" xOffset="206" yOffset="88"/>
    <contour>
      <point x="380" y="660" type="move" name="candrabindu"/>
    </contour>
    <contour>
      <point x="760" y="660" type="move" name="candrabinduCXT"/>
    </contour>
    <contour>
      <point x="351" y="660" type="move" name="bindu"/>
    </contour>
    <contour>
      <point x="493" y="473" type="move" name="top"/>
    </contour>
    <contour>
      <point x="383" y="-108" type="move" name="bottom"/>
    </contour>
  </outline>
</glyph>
<glyph name="dvDanda" format="1">
  <advance width="485"/>
  <unicode hex="0964"/>
  <outline>
    <contour>
      <point x="267" y="678" type="line"/>
      <point x="220" y="656" type="line"/>
      <point x="220" y="18" type="line"/>
      <point x="333" y="-62" type="line"/>
      <point x="380" y="-40" type="line"/>
      <point x="380" y="599" type="line"/>
    </contour>
  </outline>
</glyph>
<glyph name="dvZero" format="1">
  <advance width="539"/>
  <unicode hex="0966"/>
  <outline>
    <contour>
      <point x="361" y="369"/>
      <point x="371" y="339"/>
      <point x="371" y="310" type="curve" smooth="yes"/>
      <point x="371" y="237"/>
      <point x="307" y="171"/>
      <point x="204" y="201" type="curve"/>
      <point x="183" y="224"/>
      <point x="173" y="252"/>
      <point x="173" y="280" type="curve" smooth="yes"/>
      <point x="173" y="352"/>
      <point x="238" y="431"/>
      <point x="341" y="394" type="curve"/>
    </contour>
    <contour>
      <point x="421" y="61"/>
      <point x="512" y="144"/>
      <point x="512" y="259" type="curve" smooth="yes"/>
      <point x="512" y="398"/>
      <point x="378" y="545"/>
      <point x="240" y="545" type="curve" smooth="yes"/>
      <point x="138" y="545"/>
      <point x="26" y="466"/>
      <point x="26" y="337" type="curve" smooth="yes"/>
      <point x="26" y="188"/>
      <point x="176" y="61"/>
      <point x="311" y="61" type="curve" smooth="yes"/>
    </contour>
  </outline>
</glyph>
<glyph name="dvThree" format="1">
  <advance width="605"/>
  <unicode hex="0969"/>
  <outline>
    <contour>
      <point x="204" y="233" type="line"/>
      <point x="374" y="299" type="line"/>
      <point x="312" y="294" type="line"/>
      <point x="379" y="287"/>
      <point x="411" y="258"/>
      <point x="411" y="221" type="curve" smooth="yes"/>
      <point x="411" y="169"/>
      <point x="348" y="126"/>
      <point x="270" y="126" type="curve" smooth="yes"/>
      <point x="239" y="126"/>
      <point x="208" y="133"/>
      <point x="177" y="146" type="curve"/>
      <point x="200" y="14" type="line"/>
      <point x="239" y="-4"/>
      <point x="281" y="-11"/>
      <point x="321" y="-11" type="curve" smooth="yes"/>
      <point x="457" y="-11"/>
      <point x="557" y="69"/>
      <point x="557" y="176" type="curve" smooth="yes"/>
      <point x="557" y="276"/>
      <point x="471" y="344"/>
      <point x="331" y="402" type="curve"/>
      <point x="295" y="414" type="line"/>
      <point x="244" y="423"/>
      <point x="164" y="407"/>
      <point x="119" y="370" type="curve"/>
    </contour>
    <contour>
      <point x="433" y="-171" type="line"/>
      <point x="432" y="-126" type="line"/>
      <point x="193" y="80" type="line"/>
      <point x="140" y="51" type="line"/>
      <point x="356" y="-223" type="line"/>
    </contour>
    <contour>
      <point x="62" y="67" type="line"/>
      <point x="93" y="39"/>
      <point x="162" y="-3"/>
      <point x="215" y="-12" type="curve"/>
      <point x="279" y="31" type="line"/>
      <point x="171" y="209" type="line"/>
      <point x="121" y="205" type="line"/>
    </contour>
    <contour>
      <point x="109" y="449" type="line"/>
      <point x="171" y="501"/>
      <point x="255" y="550"/>
      <point x="321" y="563" type="curve"/>
      <point x="346" y="547"/>
      <point x="358" y="522"/>
      <point x="358" y="499" type="curve" smooth="yes"/>
      <point x="358" y="451"/>
      <point x="311" y="406"/>
      <point x="228" y="391" type="curve"/>
      <point x="375" y="299" type="line"/>
      <point x="446" y="329"/>
      <point x="503" y="394"/>
      <point x="503" y="468" type="curve" smooth="yes"/>
      <point x="503" y="575"/>
      <point x="385" y="678"/>
      <point x="250" y="678" type="curve" smooth="yes"/>
      <point x="177" y="678"/>
      <point x="81" y="647"/>
      <point x="16" y="588" type="curve"/>
    </contour>
  </outline>
</glyph>
<glyph name="dvFour" format="1">
  <advance width="582"/>
  <unicode hex="096A"/>
  <outline>
    <contour>
      <point x="250" y="99"/>
      <point x="246" y="116"/>
      <point x="246" y="130" type="curve" smooth="yes"/>
      <point x="246" y="169"/>
      <point x="274" y="213"/>
      <point x="336" y="287" type="curve" smooth="yes"/>
      <point x="414" y="377"/>
      <point x="537" y="503"/>
      <point x="582" y="548" type="curve"/>
      <point x="473" y="653" type="line"/>
      <point x="381" y="562"/>
      <point x="284" y="460"/>
      <point x="223" y="387" type="curve" smooth="yes"/>
      <point x="153" y="303"/>
      <point x="109" y="234"/>
      <point x="109" y="167" type="curve" smooth="yes"/>
      <point x="109" y="58"/>
      <point x="228" y="-37"/>
      <point x="334" y="-37" type="curve" smooth="yes"/>
      <point x="425" y="-37"/>
      <point x="489" y="33"/>
      <point x="489" y="122" type="curve" smooth="yes"/>
      <point x="489" y="189"/>
      <point x="450" y="251"/>
      <point x="397" y="315" type="curve" smooth="yes"/>
      <point x="291" y="444"/>
      <point x="85" y="613"/>
      <point x="39" y="654" type="curve"/>
      <point x="-36" y="565" type="line"/>
      <point x="40" y="500"/>
      <point x="169" y="387"/>
      <point x="253" y="297" type="curve" smooth="yes"/>
      <point x="331" y="213"/>
      <point x="350" y="172"/>
      <point x="350" y="140" type="curve" smooth="yes"/>
      <point x="350" y="94"/>
      <point x="312" y="63"/>
      <point x="261" y="85" type="curve"/>
    </contour>
  </outline>
</glyph>
<glyph name="dvSeven" format="1">
  <advance width="630"/>
  <unicode hex="096D"/>
  <outline>
    <contour>
      <point x="-29" y="530" type="line"/>
      <point x="5" y="276"/>
      <point x="161" y="-18"/>
      <point x="388" y="-18" type="curve" smooth="yes"/>
      <point x="516" y="-18"/>
      <point x="609" y="77"/>
      <point x="609" y="228" type="curve" smooth="yes"/>
      <point x="609" y="392"/>
      <point x="500" y="583"/>
      <point x="357" y="583" type="curve" smooth="yes"/>
      <point x="272" y="583"/>
      <point x="217" y="514"/>
      <point x="217" y="443" type="curve" smooth="yes"/>
      <point x="217" y="389"/>
      <point x="248" y="333"/>
      <point x="298" y="289" type="curve" smooth="yes"/>
      <point x="337" y="255"/>
      <point x="387" y="229"/>
      <point x="437" y="229" type="curve" smooth="yes"/>
      <point x="466" y="229"/>
      <point x="497" y="238"/>
      <point x="527" y="258" type="curve"/>
      <point x="530" y="425" type="line"/>
      <point x="503" y="354"/>
      <point x="397" y="323"/>
      <point x="356" y="336" type="curve"/>
      <point x="336" y="375"/>
      <point x="354" y="445"/>
      <point x="413" y="445" type="curve" smooth="yes"/>
      <point x="468" y="445"/>
      <point x="489" y="385"/>
      <point x="489" y="314" type="curve" smooth="yes"/>
      <point x="489" y="205"/>
      <point x="440" y="140"/>
      <point x="360" y="140" type="curve" smooth="yes"/>
      <point x="256" y="140"/>
      <point x="147" y="243"/>
      <point x="94" y="569" type="curve"/>
    </contour>
  </outline>
</glyph>
<glyph name="uni0974" format="1">
  <advance width="1162"/>
  <unicode hex="0974"/>
  <outline>
    <contour>
      <point x="939" y="835" type="line"/>
      <point x="939" y="602" type="line"/>
      <point x="1020" y="561" type="line"/>
      <point x="1050" y="578" type="line"/>
      <point x="1050" y="835" type="line"/>
    </contour>
    <component base="uni0906"/>
  </outline>
</glyph>
<glyph name="dvUE" format="1">
  <advance width="859"/>
  <unicode hex="0976"/>
  <outline>
    <component base="dvA"/>
    <component base="dvMatraUE" xOffset="808"/>
    <contour>
      <point x="698" y="660" type="move" name="bindu"/>
    </contour>
    <contour>
      <point x="679" y="660" type="move" name="candrabindu"/>
    </contour>
  </outline>
</glyph>
<glyph name="uni0977" format="1">
  <advance width="859"/>
  <unicode hex="0977"/>
  <outline>
    <component base="uni0905"/>
    <component base="uni0957" xOffset="805"/>
    <contour>
      <point x="698" y="660" type="move" name="bindu"/>
    </contour>
    <contour>
      <point x="679" y="660" type="move" name="candrabindu"/>
    </contour>
  </outline>
</glyph>
<glyph name="dvZha" format="1">
  <advance width="744"/>
  <unicode hex="0979"/>
  <outline>
    <component base="dvJa"/>
    <component base="dvNukta" xOffset="183" yOffset="35"/>
    <component base="dvNukta" xOffset="303" yOffset="-92"/>
    <component base="dvNukta" xOffset="418" yOffset="35"/>
    <contour>
      <point x="564" y="660" type="move" name="candrabindu"/>
    </contour>
    <contour>
      <point x="847" y="660" type="move" name="candrabinduCXT"/>
    </contour>
    <contour>
      <point x="583" y="660" type="move" name="bindu"/>
    </contour>
    <contour>
      <point x="579" y="473" type="move" name="top"/>
    </contour>
    <contour>
      <point x="459" y="-268" type="move" name="bottom"/>
    </contour>
  </outline>
</glyph>
<glyph name="uni0979" format="1">
  <advance width="744"/>
  <unicode hex="0979"/>
  <outline>
    <component base="uni091C"/>
    <component base="uni093C" xOffset="183" yOffset="35"/>
    <component base="uni093C" xOffset="303" yOffset="-92"/>
    <component base="uni093C" xOffset="418" yOffset="35"/>
    <contour>
      <point x="564" y="660" type="move" name="candrabindu"/>
    </contour>
    <contour>
      <point x="847" y="660" type="move" name="candrabinduCXT"/>
    </contour>
    <contour>
      <point x="583" y="660" type="move" name="bindu"/>
    </contour>
    <contour>
      <point x="579" y="473" type="move" name="top"/>
    </contour>
    <contour>
      <point x="459" y="-268" type="move" name="bottom"/>
    </contour>
  </outline>
</glyph>
<glyph name="zerowidthjoiner" format="1">
  <advance width="0"/>
  <unicode hex="200D"/>
  <outline>
    <contour>
      <point x="100" y="725" type="line"/>
      <point x="100" y="793" type="line"/>
      <point x="-99" y="793" type="line"/>
      <point x="-99" y="725" type="line"/>
      <point x="-76" y="725" type="line"/>
      <point x="-76" y="771" type="line"/>
      <point x="77" y="771" type="line"/>
      <point x="77" y="725" type="line"/>
    </contour>
  </outline>
</glyph>
<glyph name="quoteleft" format="1">
  <advance width="257"/>
  <unicode hex="2018"/>
  <outline>
    <contour>
      <point x="179" y="755" type="line"/>
      <point x="88" y="712"/>
      <point x="24" y="636"/>
      <point x="24" y="561" type="curve" smooth="yes"/>
      <point x="24" y="523"/>
      <point x="42" y="471"/>
      <point x="115" y="443" type="curve"/>
      <point x="160" y="456"/>
      <point x="198" y="504"/>
      <point x="206" y="543" type="curve"/>
      <point x="149" y="595" type="line"/>
      <point x="157" y="641"/>
      <point x="181" y="677"/>
      <point x="217" y="708" type="curve"/>
    </contour>
  </outline>
</glyph>
<glyph name="quoteright" format="1">
  <advance width="257"/>
  <unicode hex="2019"/>
  <outline>
    <contour>
      <point x="78" y="443" type="line"/>
      <point x="169" y="486"/>
      <point x="233" y="562"/>
      <point x="233" y="636" type="curve" smooth="yes"/>
      <point x="233" y="673"/>
      <point x="215" y="728"/>
      <point x="143" y="755" type="curve"/>
      <point x="97" y="743"/>
      <point x="59" y="694"/>
      <point x="51" y="656" type="curve"/>
      <point x="108" y="604" type="line"/>
      <point x="101" y="558"/>
      <point x="76" y="520"/>
      <point x="40" y="490" type="curve"/>
    </contour>
  </outline>
</glyph>
<glyph name="ellipsis" format="1">
  <advance width="939"/>
  <unicode hex="2026"/>
  <outline>
    <contour>
      <point x="275" y="127"/>
      <point x="235" y="162"/>
      <point x="187" y="183" type="curve"/>
      <point x="139" y="158"/>
      <point x="105" y="119"/>
      <point x="97" y="66" type="curve"/>
      <point x="119" y="24"/>
      <point x="154" y="-4"/>
      <point x="202" y="-20" type="curve"/>
      <point x="245" y="3"/>
      <point x="274" y="37"/>
      <point x="287" y="82" type="curve"/>
    </contour>
    <contour>
      <point x="581" y="127"/>
      <point x="541" y="162"/>
      <point x="493" y="183" type="curve"/>
      <point x="445" y="158"/>
      <point x="411" y="119"/>
      <point x="403" y="66" type="curve"/>
      <point x="425" y="24"/>
      <point x="460" y="-4"/>
      <point x="508" y="-20" type="curve"/>
      <point x="551" y="3"/>
      <point x="580" y="37"/>
      <point x="593" y="82" type="curve"/>
    </contour>
    <contour>
      <point x="887" y="127"/>
      <point x="847" y="162"/>
      <point x="799" y="183" type="curve"/>
      <point x="751" y="158"/>
      <point x="717" y="119"/>
      <point x="709" y="66" type="curve"/>
      <point x="731" y="24"/>
      <point x="766" y="-4"/>
      <point x="814" y="-20" type="curve"/>
      <point x="857" y="3"/>
      <point x="886" y="37"/>
      <point x="899" y="82" type="curve"/>
    </contour>
  </outline>
</glyph>
<glyph name="perthousand" format="1">
  <advance width="1195"/>
  <unicode hex="2030"/>
  <outline>
    <contour>
      <point x="232" y="-38" type="line"/>
      <point x="641" y="538" type="line"/>
      <point x="571" y="591" type="line"/>
      <point x="163" y="17" type="line"/>
    </contour>
    <contour>
      <point x="227" y="354"/>
      <point x="221" y="353"/>
      <point x="214" y="353" type="curve" smooth="yes"/>
      <point x="166" y="353"/>
      <point x="144" y="406"/>
      <point x="144" y="448" type="curve" smooth="yes"/>
      <point x="144" y="471"/>
      <point x="152" y="493"/>
      <point x="165" y="510" type="curve"/>
      <point x="174" y="513"/>
      <point x="182" y="515"/>
      <point x="189" y="515" type="curve" smooth="yes"/>
      <point x="229" y="515"/>
      <point x="257" y="473"/>
      <point x="257" y="423" type="curve" smooth="yes"/>
      <point x="257" y="401"/>
      <point x="252" y="375"/>
      <point x="233" y="355" type="curve"/>
    </contour>
    <contour>
      <point x="42" y="340"/>
      <point x="117" y="265"/>
      <point x="205" y="265" type="curve" smooth="yes"/>
      <point x="296" y="265"/>
      <point x="361" y="339"/>
      <point x="361" y="435" type="curve" smooth="yes"/>
      <point x="361" y="524"/>
      <point x="290" y="607"/>
      <point x="200" y="607" type="curve" smooth="yes"/>
      <point x="112" y="607"/>
      <point x="42" y="524"/>
      <point x="42" y="435" type="curve" smooth="yes"/>
    </contour>
    <contour>
      <point x="654" y="66"/>
      <point x="649" y="65"/>
      <point x="643" y="65" type="curve" smooth="yes"/>
      <point x="597" y="65"/>
      <point x="571" y="112"/>
      <point x="571" y="158" type="curve" smooth="yes"/>
      <point x="571" y="178"/>
      <point x="576" y="203"/>
      <point x="592" y="222" type="curve"/>
      <point x="601" y="226"/>
      <point x="609" y="228"/>
      <point x="616" y="228" type="curve" smooth="yes"/>
      <point x="657" y="228"/>
      <point x="684" y="181"/>
      <point x="684" y="135" type="curve" smooth="yes"/>
      <point x="684" y="112"/>
      <point x="679" y="87"/>
      <point x="660" y="67" type="curve"/>
    </contour>
    <contour>
      <point x="469" y="52"/>
      <point x="544" y="-23"/>
      <point x="632" y="-23" type="curve" smooth="yes"/>
      <point x="723" y="-23"/>
      <point x="788" y="51"/>
      <point x="788" y="147" type="curve" smooth="yes"/>
      <point x="788" y="236"/>
      <point x="717" y="319"/>
      <point x="627" y="319" type="curve" smooth="yes"/>
      <point x="539" y="319"/>
      <point x="469" y="236"/>
      <point x="469" y="147" type="curve" smooth="yes"/>
    </contour>
    <contour>
      <point x="1018" y="66"/>
      <point x="1013" y="65"/>
      <point x="1007" y="65" type="curve" smooth="yes"/>
      <point x="961" y="65"/>
      <point x="935" y="112"/>
      <point x="935" y="158" type="curve" smooth="yes"/>
      <point x="935" y="177"/>
      <point x="940" y="203"/>
      <point x="956" y="222" type="curve"/>
      <point x="965" y="226"/>
      <point x="973" y="228"/>
      <point x="980" y="228" type="curve" smooth="yes"/>
      <point x="1021" y="228"/>
      <point x="1048" y="181"/>
      <point x="1048" y="135" type="curve" smooth="yes"/>
      <point x="1048" y="113"/>
      <point x="1043" y="87"/>
      <point x="1024" y="67" type="curve"/>
    </contour>
    <contour>
      <point x="833" y="52"/>
      <point x="908" y="-23"/>
      <point x="996" y="-23" type="curve" smooth="yes"/>
      <point x="1087" y="-23"/>
      <point x="1152" y="51"/>
      <point x="1152" y="147" type="curve" smooth="yes"/>
      <point x="1152" y="236"/>
      <point x="1081" y="319"/>
      <point x="991" y="319" type="curve" smooth="yes"/>
      <point x="903" y="319"/>
      <point x="833" y="236"/>
      <point x="833" y="147" type="curve" smooth="yes"/>
    </contour>
  </outline>
</glyph>
<glyph name="guilsinglleft" format="1">
  <advance width="363"/>
  <unicode hex="2039"/>
  <outline>
    <contour>
      <point x="54" y="214" type="line"/>
      <point x="221" y="33" type="line"/>
      <point x="309" y="95" type="line"/>
      <point x="211" y="253" type="line"/>
      <point x="303" y="420" type="line"/>
      <point x="220" y="476" type="line"/>
      <point x="54" y="293" type="line"/>
    </contour>
  </outline>
</glyph>
<glyph name="fraction" format="1">
  <advance width="184"/>
  <unicode hex="2044"/>
  <outline>
    <contour>
      <point x="-145" y="13" type="line"/>
      <point x="441" y="626" type="line"/>
      <point x="377" y="690" type="line"/>
      <point x="-211" y="75" type="line"/>
    </contour>
  </outline>
</glyph>
<glyph name="foursuperior" format="1">
  <advance width="330"/>
  <unicode hex="2074"/>
  <outline>
    <contour>
      <point x="76" y="526" type="line"/>
      <point x="199" y="696" type="line"/>
      <point x="220" y="692" type="line"/>
      <point x="205" y="739" type="line"/>
      <point x="167" y="751" type="line"/>
      <point x="-2" y="537" type="line"/>
      <point x="19" y="489" type="line"/>
      <point x="292" y="489" type="line"/>
      <point x="310" y="510" type="line"/>
      <point x="310" y="547" type="line"/>
      <point x="54" y="544" type="line"/>
    </contour>
    <contour>
      <point x="155" y="418" type="line"/>
      <point x="253" y="418" type="line"/>
      <point x="253" y="736" type="line"/>
      <point x="166" y="751" type="line"/>
      <point x="175" y="689" type="line"/>
      <point x="155" y="582" type="line"/>
    </contour>
    <contour>
      <point x="290" y="418" type="line"/>
      <point x="290" y="447" type="line"/>
      <point x="229" y="460" type="line"/>
      <point x="227" y="418" type="line"/>
    </contour>
    <contour>
      <point x="165" y="418" type="line"/>
      <point x="165" y="465" type="line"/>
      <point x="140" y="459"/>
      <point x="107" y="446"/>
      <point x="87" y="433" type="curve"/>
      <point x="90" y="418" type="line"/>
    </contour>
  </outline>
</glyph>
<glyph name="trademark" format="1">
  <advance width="886"/>
  <unicode hex="2122"/>
  <outline>
    <contour>
      <point x="129" y="728" type="line"/>
      <point x="129" y="448" type="line"/>
      <point x="240" y="448" type="line"/>
      <point x="240" y="728" type="line"/>
    </contour>
    <contour>
      <point x="116" y="483"/>
      <point x="94" y="473"/>
      <point x="81" y="462" type="curve"/>
      <point x="84" y="448" type="line"/>
      <point x="135" y="448" type="line"/>
      <point x="134" y="492" type="line"/>
    </contour>
    <contour>
      <point x="220" y="448" type="line"/>
      <point x="286" y="448" type="line"/>
      <point x="287" y="473" type="line"/>
      <point x="222" y="485" type="line"/>
    </contour>
    <contour>
      <point x="202" y="734"/>
      <point x="168" y="734"/>
      <point x="4" y="737" type="curve"/>
      <point x="30" y="682" type="line"/>
      <point x="184" y="692" type="line"/>
      <point x="337" y="682" type="line"/>
      <point x="364" y="737" type="line"/>
    </contour>
    <contour>
      <point x="351" y="608" type="line"/>
      <point x="359" y="629"/>
      <point x="366" y="715"/>
      <point x="364" y="737" type="curve"/>
      <point x="270" y="730" type="line"/>
      <point x="291" y="608" type="line" smooth="yes"/>
    </contour>
    <contour>
      <point x="96" y="730" type="line"/>
      <point x="4" y="737" type="line"/>
      <point x="1" y="715"/>
      <point x="8" y="629"/>
      <point x="15" y="608" type="curve"/>
      <point x="76" y="608" type="line"/>
    </contour>
    <contour>
      <point x="395" y="735" type="line"/>
      <point x="394" y="710" type="line"/>
      <point x="459" y="698" type="line"/>
      <point x="461" y="735" type="line"/>
    </contour>
    <contour>
      <point x="431" y="735" type="line"/>
      <point x="419" y="449" type="line"/>
      <point x="490" y="449" type="line"/>
      <point x="495" y="592" type="line"/>
      <point x="487" y="680" type="line"/>
      <point x="558" y="735" type="line"/>
    </contour>
    <contour>
      <point x="408" y="483"/>
      <point x="392" y="474"/>
      <point x="379" y="463" type="curve"/>
      <point x="382" y="449" type="line"/>
      <point x="427" y="449" type="line"/>
      <point x="427" y="493" type="line"/>
    </contour>
    <contour>
      <point x="468" y="449" type="line"/>
      <point x="535" y="449" type="line"/>
      <point x="535" y="474" type="line" smooth="yes"/>
      <point x="469" y="486" type="line"/>
    </contour>
    <contour>
      <point x="462" y="715" type="line"/>
      <point x="571" y="446" type="line"/>
      <point x="645" y="456" type="line"/>
      <point x="646" y="518" type="line"/>
      <point x="558" y="735" type="line"/>
    </contour>
    <contour>
      <point x="600" y="465" type="line"/>
      <point x="645" y="456" type="line"/>
      <point x="751" y="719" type="line"/>
      <point x="708" y="735" type="line"/>
    </contour>
    <contour>
      <point x="708" y="735" type="line"/>
      <point x="723" y="678" type="line"/>
      <point x="716" y="589" type="line"/>
      <point x="724" y="449" type="line"/>
      <point x="823" y="449" type="line"/>
      <point x="811" y="735" type="line"/>
    </contour>
    <contour>
      <point x="801" y="735" type="line"/>
      <point x="801" y="691" type="line"/>
      <point x="820" y="701"/>
      <point x="836" y="710"/>
      <point x="849" y="721" type="curve"/>
      <point x="846" y="735" type="line"/>
    </contour>
    <contour>
      <point x="711" y="483"/>
      <point x="695" y="474"/>
      <point x="682" y="463" type="curve"/>
      <point x="685" y="449" type="line"/>
      <point x="730" y="449" type="line"/>
      <point x="730" y="493" type="line"/>
    </contour>
    <contour>
      <point x="795" y="449" type="line"/>
      <point x="862" y="449" type="line"/>
      <point x="862" y="474" type="line"/>
      <point x="796" y="486" type="line"/>
    </contour>
    <contour>
      <point x="200" y="412" type="move" name="center"/>
    </contour>
    <contour>
      <point x="213" y="269" type="move" name="bottom"/>
    </contour>
    <contour>
      <point x="213" y="555" type="move" name="top"/>
    </contour>
  </outline>
</glyph>
<glyph name="Ohm" format="1">
  <advance width="734"/>
  <unicode hex="2126"/>
  <outline>
    <contour>
      <point x="441" y="13" type="line"/>
      <point x="591" y="78"/>
      <point x="703" y="210"/>
      <point x="703" y="365" type="curve" smooth="yes"/>
      <point x="703" y="542"/>
      <point x="550" y="670"/>
      <point x="372" y="670" type="curve" smooth="yes"/>
      <point x="189" y="670"/>
      <point x="31" y="535"/>
      <point x="31" y="356" type="curve" smooth="yes"/>
      <point x="31" y="198"/>
      <point x="149" y="83"/>
      <point x="313" y="18" type="curve"/>
      <point x="350" y="85" type="line"/>
      <point x="255" y="168"/>
      <point x="215" y="284"/>
      <point x="215" y="379" type="curve" smooth="yes"/>
      <point x="215" y="497"/>
      <point x="273" y="583"/>
      <point x="375" y="583" type="curve" smooth="yes"/>
      <point x="480" y="583"/>
      <point x="537" y="496"/>
      <point x="537" y="379" type="curve" smooth="yes"/>
      <point x="537" y="287"/>
      <point x="500" y="172"/>
      <point x="409" y="81" type="curve"/>
    </contour>
    <contour>
      <point x="245" y="80"/>
      <point x="120" y="60"/>
      <point x="60" y="32" type="curve"/>
      <point x="66" y="0" type="line"/>
      <point x="350" y="0" type="line"/>
      <point x="350" y="85" type="line"/>
    </contour>
    <contour>
      <point x="409" y="0" type="line"/>
      <point x="679" y="0" type="line"/>
      <point x="680" y="53" type="line"/>
      <point x="409" y="81" type="line"/>
    </contour>
  </outline>
</glyph>
<glyph name="partialdiff" format="1">
  <advance width="600"/>
  <unicode hex="2202"/>
  <outline>
    <contour>
      <point x="429" y="409" type="line"/>
      <point x="282" y="474" type="line"/>
      <point x="159" y="474"/>
      <point x="55" y="355"/>
      <point x="55" y="212" type="curve" smooth="yes"/>
      <point x="55" y="73"/>
      <point x="148" y="-33"/>
      <point x="296" y="-33" type="curve" smooth="yes"/>
      <point x="448" y="-33"/>
      <point x="556" y="92"/>
      <point x="556" y="290" type="curve" smooth="yes"/>
      <point x="556" y="486"/>
      <point x="454" y="683"/>
      <point x="201" y="761" type="curve"/>
      <point x="166" y="684" type="line"/>
      <point x="313" y="633"/>
      <point x="396" y="476"/>
      <point x="396" y="314" type="curve" smooth="yes"/>
      <point x="396" y="207"/>
      <point x="362" y="104"/>
      <point x="298" y="60" type="curve"/>
      <point x="239" y="68"/>
      <point x="214" y="128"/>
      <point x="216" y="192" type="curve" smooth="yes"/>
      <point x="220" y="285"/>
      <point x="289" y="386"/>
      <point x="429" y="364" type="curve"/>
    </contour>
  </outline>
</glyph>
<glyph name="increment" format="1">
  <advance width="725"/>
  <unicode hex="2206"/>
  <outline>
    <contour>
      <point x="40" y="35" type="line"/>
      <point x="46" y="0" type="line"/>
      <point x="650" y="0" type="line"/>
      <point x="691" y="33" type="line"/>
      <point x="687" y="71" type="line"/>
      <point x="95" y="71" type="line"/>
    </contour>
    <contour>
      <point x="40" y="35" type="line"/>
      <point x="151" y="23" type="line"/>
      <point x="365" y="609" type="line"/>
      <point x="272" y="634" type="line"/>
    </contour>
    <contour>
      <point x="271" y="634" type="line"/>
      <point x="525" y="0" type="line"/>
      <point x="685" y="71" type="line"/>
      <point x="427" y="674" type="line"/>
    </contour>
  </outline>
</glyph>
<glyph name="minus" format="1">
  <advance width="596"/>
  <unicode hex="2212"/>
  <outline>
    <contour>
      <point x="54" y="306" type="line"/>
      <point x="54" y="207" type="line"/>
      <point x="542" y="207" type="line"/>
      <point x="542" y="306" type="line"/>
    </contour>
  </outline>
</glyph>
<glyph name="bulletoperator" format="1">
  <advance width="282"/>
  <unicode hex="2219"/>
  <outline>
    <contour>
      <point x="174" y="192"/>
      <point x="209" y="238"/>
      <point x="224" y="277" type="curve"/>
      <point x="203" y="305"/>
      <point x="158" y="346"/>
      <point x="119" y="362" type="curve"/>
      <point x="85" y="343"/>
      <point x="51" y="297"/>
      <point x="30" y="254" type="curve"/>
      <point x="53" y="222"/>
      <point x="105" y="183"/>
      <point x="140" y="169" type="curve"/>
    </contour>
  </outline>
</glyph>
<glyph name="radical" format="1">
  <advance width="775"/>
  <unicode hex="221A"/>
  <outline>
    <contour>
      <point x="291" y="473" type="line"/>
      <point x="431" y="-51" type="line"/>
      <point x="343" y="-50" type="line"/>
      <point x="580" y="751" type="line"/>
      <point x="703" y="708" type="line"/>
      <point x="469" y="-78" type="line"/>
      <point x="431" y="-92"/>
      <point x="356" y="-97"/>
      <point x="314" y="-95" type="curve"/>
      <point x="167" y="399" type="line"/>
      <point x="251" y="353" type="line"/>
      <point x="99" y="254" type="line"/>
      <point x="36" y="341" type="line"/>
      <point x="184" y="473" type="line"/>
    </contour>
  </outline>
</glyph>
<glyph name="notequal" format="1">
  <advance width="580"/>
  <unicode hex="2260"/>
  <outline>
    <contour>
      <point x="168" y="-12" type="line"/>
      <point x="477" y="489" type="line"/>
      <point x="427" y="517" type="line"/>
      <point x="118" y="18" type="line"/>
    </contour>
    <component base="equal"/>
  </outline>
</glyph>
<glyph name="dottedCircle" format="1">
  <advance width="729"/>
  <unicode hex="25CC"/>
  <outline>
    <contour>
      <point x="279" y="434"/>
      <point x="294" y="456"/>
      <point x="294" y="478" type="curve" smooth="yes"/>
      <point x="294" y="501"/>
      <point x="279" y="522"/>
      <point x="251" y="522" type="curve" smooth="yes"/>
      <point x="222" y="522"/>
      <point x="209" y="501"/>
      <point x="209" y="478" type="curve" smooth="yes"/>
      <point x="209" y="456"/>
      <point x="222" y="434"/>
      <point x="251" y="434" type="curve" smooth="yes"/>
    </contour>
    <contour>
      <point x="393" y="463"/>
      <point x="408" y="485"/>
      <point x="408" y="507" type="curve" smooth="yes"/>
      <point x="408" y="530"/>
      <point x="393" y="551"/>
      <point x="365" y="551" type="curve" smooth="yes"/>
      <point x="336" y="551"/>
      <point x="323" y="530"/>
      <point x="323" y="507" type="curve" smooth="yes"/>
      <point x="323" y="485"/>
      <point x="336" y="463"/>
      <point x="365" y="463" type="curve" smooth="yes"/>
    </contour>
    <contour>
      <point x="505" y="434"/>
      <point x="520" y="456"/>
      <point x="520" y="478" type="curve" smooth="yes"/>
      <point x="520" y="501"/>
      <point x="505" y="522"/>
      <point x="477" y="522" type="curve" smooth="yes"/>
      <point x="448" y="522"/>
      <point x="435" y="501"/>
      <point x="435" y="478" type="curve" smooth="yes"/>
      <point x="435" y="456"/>
      <point x="448" y="434"/>
      <point x="477" y="434" type="curve" smooth="yes"/>
    </contour>
    <contour>
      <point x="589" y="351"/>
      <point x="604" y="373"/>
      <point x="604" y="395" type="curve" smooth="yes"/>
      <point x="604" y="418"/>
      <point x="589" y="439"/>
      <point x="561" y="439" type="curve" smooth="yes"/>
      <point x="532" y="439"/>
      <point x="519" y="418"/>
      <point x="519" y="395" type="curve" smooth="yes"/>
      <point x="519" y="373"/>
      <point x="532" y="351"/>
      <point x="561" y="351" type="curve" smooth="yes"/>
    </contour>
    <contour>
      <point x="196" y="351"/>
      <point x="211" y="373"/>
      <point x="211" y="395" type="curve" smooth="yes"/>
      <point x="211" y="418"/>
      <point x="196" y="439"/>
      <point x="168" y="439" type="curve" smooth="yes"/>
      <point x="139" y="439"/>
      <point x="126" y="418"/>
      <point x="126" y="395" type="curve" smooth="yes"/>
      <point x="126" y="373"/>
      <point x="139" y="351"/>
      <point x="168" y="351" type="curve" smooth="yes"/>
    </contour>
    <contour>
      <point x="167" y="238"/>
      <point x="182" y="260"/>
      <point x="182" y="282" type="curve" smooth="yes"/>
      <point x="182" y="305"/>
      <point x="167" y="326"/>
      <point x="139" y="326" type="curve" smooth="yes"/>
      <point x="110" y="326"/>
      <point x="97" y="305"/>
      <point x="97" y="282" type="curve" smooth="yes"/>
      <point x="97" y="260"/>
      <point x="110" y="238"/>
      <point x="139" y="238" type="curve" smooth="yes"/>
    </contour>
    <contour>
      <point x="196" y="126"/>
      <point x="211" y="148"/>
      <point x="211" y="170" type="curve" smooth="yes"/>
      <point x="211" y="193"/>
      <point x="196" y="214"/>
      <point x="168" y="214" type="curve" smooth="yes"/>
      <point x="139" y="214"/>
      <point x="126" y="193"/>
      <point x="126" y="170" type="curve" smooth="yes"/>
      <point x="126" y="148"/>
      <point x="139" y="126"/>
      <point x="168" y="126" type="curve" smooth="yes"/>
    </contour>
    <contour>
      <point x="280" y="42"/>
      <point x="295" y="64"/>
      <point x="295" y="86" type="curve" smooth="yes"/>
      <point x="295" y="109"/>
      <point x="280" y="130"/>
      <point x="252" y="130" type="curve" smooth="yes"/>
      <point x="223" y="130"/>
      <point x="210" y="109"/>
      <point x="210" y="86" type="curve" smooth="yes"/>
      <point x="210" y="64"/>
      <point x="223" y="42"/>
      <point x="252" y="42" type="curve" smooth="yes"/>
    </contour>
    <contour>
      <point x="394" y="14"/>
      <point x="409" y="36"/>
      <point x="409" y="58" type="curve" smooth="yes"/>
      <point x="409" y="81"/>
      <point x="394" y="102"/>
      <point x="366" y="102" type="curve" smooth="yes"/>
      <point x="337" y="102"/>
      <point x="324" y="81"/>
      <point x="324" y="58" type="curve" smooth="yes"/>
      <point x="324" y="36"/>
      <point x="337" y="14"/>
      <point x="366" y="14" type="curve" smooth="yes"/>
    </contour>
    <contour>
      <point x="505" y="42"/>
      <point x="520" y="64"/>
      <point x="520" y="86" type="curve" smooth="yes"/>
      <point x="520" y="109"/>
      <point x="505" y="130"/>
      <point x="477" y="130" type="curve" smooth="yes"/>
      <point x="448" y="130"/>
      <point x="435" y="109"/>
      <point x="435" y="86" type="curve" smooth="yes"/>
      <point x="435" y="64"/>
      <point x="448" y="42"/>
      <point x="477" y="42" type="curve" smooth="yes"/>
    </contour>
    <contour>
      <point x="589" y="126"/>
      <point x="604" y="148"/>
      <point x="604" y="170" type="curve" smooth="yes"/>
      <point x="604" y="193"/>
      <point x="589" y="214"/>
      <point x="561" y="214" type="curve" smooth="yes"/>
      <point x="532" y="214"/>
      <point x="519" y="193"/>
      <point x="519" y="170" type="curve" smooth="yes"/>
      <point x="519" y="148"/>
      <point x="532" y="126"/>
      <point x="561" y="126" type="curve" smooth="yes"/>
    </contour>
    <contour>
      <point x="617" y="238"/>
      <point x="632" y="260"/>
      <point x="632" y="282" type="curve" smooth="yes"/>
      <point x="632" y="305"/>
      <point x="617" y="326"/>
      <point x="589" y="326" type="curve" smooth="yes"/>
      <point x="560" y="326"/>
      <point x="547" y="305"/>
      <point x="547" y="282" type="curve" smooth="yes"/>
      <point x="547" y="260"/>
      <point x="560" y="238"/>
      <point x="589" y="238" type="curve" smooth="yes"/>
    </contour>
  </outline>
</glyph>
<glyph name="dvHeadline" format="1">
  <advance width="303"/>
  <unicode hex="A8FB"/>
  <outline>
    <contour>
      <point x="338" y="538" type="line"/>
      <point x="359" y="580" type="line"/>
      <point x="303" y="655" type="line"/>
      <point x="-36" y="655" type="line"/>
      <point x="-57" y="613" type="line"/>
      <point x="0" y="538" type="line"/>
    </contour>
  </outline>
</glyph>
<glyph name="brevecomb.case" format="1">
  <advance width="0"/>
  <outline>
    <contour>
      <point x="59" y="883" type="line"/>
      <point x="55" y="835"/>
      <point x="28" y="813"/>
      <point x="-5" y="813" type="curve" smooth="yes"/>
      <point x="-36" y="813"/>
      <point x="-63" y="834"/>
      <point x="-70" y="885" type="curve"/>
      <point x="-169" y="879" type="line"/>
      <point x="-158" y="776"/>
      <point x="-84" y="722"/>
      <point x="4" y="722" type="curve" smooth="yes"/>
      <point x="85" y="722"/>
      <point x="160" y="770"/>
      <point x="170" y="881" type="curve"/>
    </contour>
    <contour>
      <point x="-1" y="650" type="move" name="_top"/>
    </contour>
  </outline>
</glyph>
<glyph name="dvB" format="1">
  <advance width="467"/>
  <outline>
    <contour>
      <point x="279" y="478" type="line"/>
      <point x="131" y="510"/>
      <point x="20" y="415"/>
      <point x="20" y="303" type="curve" smooth="yes"/>
      <point x="20" y="162"/>
      <point x="194" y="55"/>
      <point x="333" y="55" type="curve" smooth="yes"/>
      <point x="506" y="55"/>
      <point x="595" y="223"/>
      <point x="505" y="367" type="curve"/>
      <point x="403" y="335" type="line"/>
      <point x="432" y="233"/>
      <point x="344" y="170"/>
      <point x="264" y="170" type="curve" smooth="yes"/>
      <point x="243" y="170"/>
      <point x="219" y="174"/>
      <point x="201" y="185" type="curve"/>
      <point x="150" y="252"/>
      <point x="192" y="357"/>
      <point x="300" y="357" type="curve" smooth="yes"/>
      <point x="349" y="357"/>
      <point x="399" y="335"/>
      <point x="454" y="291" type="curve"/>
      <point x="505" y="367" type="line"/>
    </contour>
    <contour>
      <point x="501" y="538" type="line"/>
      <point x="522" y="580" type="line"/>
      <point x="466" y="655" type="line"/>
      <point x="-36" y="655" type="line"/>
      <point x="-57" y="613" type="line"/>
      <point x="0" y="538" type="line"/>
    </contour>
    <contour>
      <point x="349" y="136" type="line"/>
      <point x="405" y="166" type="line"/>
      <point x="246" y="404" type="line"/>
      <point x="185" y="379" type="line"/>
    </contour>
  </outline>
</glyph>
<glyph name="dvBJYa" format="1">
  <advance width="1542"/>
  <outline>
    <component base="uni092C094D"/>
    <component base="dvJYa" xOffset="404"/>
    <contour>
      <point x="1264" y="660" type="move" name="candrabindu"/>
    </contour>
    <contour>
      <point x="1644" y="660" type="move" name="candrabinduCXT"/>
    </contour>
    <contour>
      <point x="1236" y="660" type="move" name="bindu"/>
    </contour>
    <contour>
      <point x="1377" y="473" type="move" name="top"/>
    </contour>
    <contour>
      <point x="1286" y="1" type="move" name="bottom"/>
    </contour>
  </outline>
</glyph>
<glyph name="dvBLYa" format="1">
  <advance width="1578"/>
  <outline>
    <component base="dvB"/>
    <component base="dvL.alt" xOffset="382"/>
    <component base="dvYa" xOffset="921"/>
    <contour>
      <point x="1301" y="660" type="move" name="candrabindu"/>
    </contour>
    <contour>
      <point x="1681" y="660" type="move" name="candrabinduCXT"/>
    </contour>
    <contour>
      <point x="1272" y="660" type="move" name="bindu"/>
    </contour>
    <contour>
      <point x="1413" y="473" type="move" name="top"/>
    </contour>
    <contour>
      <point x="1322" y="1" type="move" name="bottom"/>
    </contour>
  </outline>
</glyph>
<glyph name="dvBhRYa" format="1">
  <advance width="1097"/>
  <outline>
    <contour>
      <point x="259" y="-22" type="line"/>
      <point x="370" y="-105" type="line"/>
      <point x="631" y="135" type="line"/>
      <point x="572" y="246" type="line" smooth="yes"/>
    </contour>
    <component base="dvBh"/>
    <component base="dvYa" xOffset="440"/>
    <contour>
      <point x="821" y="660" type="move" name="candrabindu"/>
    </contour>
    <contour>
      <point x="1200" y="660" type="move" name="candrabinduCXT"/>
    </contour>
    <contour>
      <point x="792" y="660" type="move" name="bindu"/>
    </contour>
    <contour>
      <point x="932" y="473" type="move" name="top"/>
    </contour>
    <contour>
      <point x="841" y="1" type="move" name="bottom"/>
    </contour>
  </outline>
</glyph>
<glyph name="dvCChVa" format="1">
  <advance width="1247"/>
  <outline>
    <component base="dvC"/>
    <component base="dvChVa" xOffset="459"/>
    <contour>
      <point x="879" y="660" type="move" name="candrabindu"/>
    </contour>
    <contour>
      <point x="1292" y="660" type="move" name="candrabinduCXT"/>
    </contour>
    <contour>
      <point x="858" y="660" type="move" name="bindu"/>
    </contour>
    <contour>
      <point x="1035" y="473" type="move" name="top"/>
    </contour>
    <contour>
      <point x="876" y="-366" type="move" name="bottom"/>
    </contour>
  </outline>
</glyph>
<glyph name="dvCCha" format="1">
  <advance width="1247"/>
  <outline>
    <component base="uni091A094D"/>
    <component base="uni091B" xOffset="459"/>
    <contour>
      <point x="879" y="660" type="move" name="candrabindu"/>
    </contour>
    <contour>
      <point x="1292" y="660" type="move" name="candrabinduCXT"/>
    </contour>
    <contour>
      <point x="858" y="660" type="move" name="bindu"/>
    </contour>
    <contour>
      <point x="1035" y="473" type="move" name="top"/>
    </contour>
    <contour>
      <point x="823" y="-76" type="move" name="bottom"/>
    </contour>
  </outline>
</glyph>
<glyph name="dvCh" format="1">
  <advance width="788"/>
  <outline>
    <contour>
      <point x="429" y="187" type="line"/>
      <point x="362" y="292" type="line"/>
      <point x="218" y="326"/>
      <point x="119" y="247"/>
      <point x="119" y="152" type="curve" smooth="yes"/>
      <point x="119" y="42"/>
      <point x="251" y="-69"/>
      <point x="415" y="-69" type="curve" smooth="yes"/>
      <point x="612" y="-69"/>
      <point x="754" y="89"/>
      <point x="754" y="253" type="curve" smooth="yes"/>
      <point x="754" y="390"/>
      <point x="653" y="516"/>
      <point x="536" y="516" type="curve" smooth="yes"/>
      <point x="452" y="516"/>
      <point x="384" y="452"/>
      <point x="384" y="373" type="curve" smooth="yes"/>
      <point x="384" y="281"/>
      <point x="478" y="195"/>
      <point x="598" y="144" type="curve"/>
      <point x="630" y="202" type="line"/>
      <point x="551" y="233"/>
      <point x="525" y="290"/>
      <point x="525" y="334" type="curve" smooth="yes"/>
      <point x="525" y="378"/>
      <point x="555" y="415"/>
      <point x="606" y="398" type="curve"/>
      <point x="620" y="382"/>
      <point x="627" y="344"/>
      <point x="627" y="313" type="curve" smooth="yes"/>
      <point x="627" y="180"/>
      <point x="505" y="48"/>
      <point x="331" y="48" type="curve" smooth="yes"/>
      <point x="312" y="48"/>
      <point x="300" y="50"/>
      <point x="285" y="54" type="curve"/>
      <point x="273" y="64"/>
      <point x="266" y="82"/>
      <point x="266" y="97" type="curve" smooth="yes"/>
      <point x="266" y="141"/>
      <point x="319" y="174"/>
      <point x="397" y="146" type="curve"/>
    </contour>
    <contour>
      <point x="823" y="538" type="line"/>
      <point x="844" y="580" type="line"/>
      <point x="787" y="655" type="line"/>
      <point x="-36" y="655" type="line"/>
      <point x="-57" y="613" type="line"/>
      <point x="0" y="538" type="line"/>
    </contour>
    <contour>
      <point x="341" y="407" type="line"/>
      <point x="275" y="504" type="line"/>
      <point x="175" y="504" type="line" smooth="yes"/>
      <point x="65" y="504"/>
      <point x="18" y="440"/>
      <point x="18" y="377" type="curve" smooth="yes"/>
      <point x="18" y="306"/>
      <point x="77" y="241"/>
      <point x="175" y="195" type="curve"/>
      <point x="230" y="246" type="line"/>
      <point x="175" y="277"/>
      <point x="158" y="296"/>
      <point x="158" y="319" type="curve" smooth="yes"/>
      <point x="158" y="353"/>
      <point x="196" y="366"/>
      <point x="235" y="366" type="curve" smooth="yes"/>
      <point x="319" y="366" type="line"/>
    </contour>
  </outline>
</glyph>
<glyph name="dvChRYa" format="1">
  <advance width="1410"/>
  <outline>
    <component base="dvChYa"/>
    <component base="dvRakar" xOffset="394" yOffset="17"/>
    <contour>
      <point x="1133" y="660" type="move" name="candrabindu"/>
    </contour>
    <contour>
      <point x="1513" y="660" type="move" name="candrabinduCXT"/>
    </contour>
    <contour>
      <point x="1104" y="660" type="move" name="bindu"/>
    </contour>
    <contour>
      <point x="1245" y="473" type="move" name="top"/>
    </contour>
    <contour>
      <point x="1154" y="-41" type="move" name="bottom"/>
    </contour>
  </outline>
</glyph>
<glyph name="dvDBhYa" format="1">
  <advance width="1580"/>
  <outline>
    <component base="dvDBha"/>
    <component base="dvYa.post" xOffset="900"/>
    <contour>
      <point x="1303" y="660" type="move" name="candrabindu"/>
    </contour>
    <contour>
      <point x="1683" y="660" type="move" name="candrabinduCXT"/>
    </contour>
    <contour>
      <point x="1274" y="660" type="move" name="bindu"/>
    </contour>
    <contour>
      <point x="1415" y="473" type="move" name="top"/>
    </contour>
    <contour>
      <point x="1324" y="-41" type="move" name="bottom"/>
    </contour>
  </outline>
</glyph>
<glyph name="dvDVYa" format="1">
  <advance width="1228"/>
  <outline>
    <component base="dvDVa"/>
    <component base="dvYa.post" xOffset="548"/>
    <contour>
      <point x="951" y="660" type="move" name="candrabindu"/>
    </contour>
    <contour>
      <point x="1330" y="660" type="move" name="candrabinduCXT"/>
    </contour>
    <contour>
      <point x="922" y="660" type="move" name="bindu"/>
    </contour>
    <contour>
      <point x="1063" y="473" type="move" name="top"/>
    </contour>
    <contour>
      <point x="972" y="-41" type="move" name="bottom"/>
    </contour>
  </outline>
</glyph>
<glyph name="dvDhVa" format="1">
  <advance width="1096"/>
  <outline>
    <component base="dvDh"/>
    <component base="dvVa" xOffset="456"/>
    <contour>
      <point x="916" y="660" type="move" name="candrabindu"/>
    </contour>
    <contour>
      <point x="1198" y="660" type="move" name="candrabinduCXT"/>
    </contour>
    <contour>
      <point x="934" y="660" type="move" name="bindu"/>
    </contour>
    <contour>
      <point x="931" y="473" type="move" name="top"/>
    </contour>
    <contour>
      <point x="839" y="1" type="move" name="bottom"/>
    </contour>
  </outline>
</glyph>
<glyph name="dvFSa" format="1">
  <advance width="1434"/>
  <outline>
    <component base="uni095E094D"/>
    <component base="uni0938" xOffset="653"/>
    <contour>
      <point x="1125" y="660" type="move" name="candrabindu"/>
    </contour>
    <contour>
      <point x="1537" y="660" type="move" name="candrabinduCXT"/>
    </contour>
    <contour>
      <point x="1090" y="660" type="move" name="bindu"/>
    </contour>
    <contour>
      <point x="1269" y="473" type="move" name="top"/>
    </contour>
    <contour>
      <point x="1178" y="1" type="move" name="bottom"/>
    </contour>
  </outline>
</glyph>
<glyph name="dvFTa" format="1">
  <advance width="1245"/>
  <outline>
    <component base="dvF"/>
    <component base="dvTa" xOffset="617"/>
    <contour>
      <point x="1065" y="660" type="move" name="candrabindu"/>
    </contour>
    <contour>
      <point x="1348" y="660" type="move" name="candrabinduCXT"/>
    </contour>
    <contour>
      <point x="1084" y="660" type="move" name="bindu"/>
    </contour>
    <contour>
      <point x="1080" y="473" type="move" name="top"/>
    </contour>
    <contour>
      <point x="989" y="1" type="move" name="bottom"/>
    </contour>
  </outline>
</glyph>
<glyph name="dvFZa" format="1">
  <advance width="1383"/>
  <outline>
    <component base="uni095E094D"/>
    <component base="uni095B" xOffset="639"/>
    <contour>
      <point x="1203" y="660" type="move" name="candrabindu"/>
    </contour>
    <contour>
      <point x="1486" y="660" type="move" name="candrabinduCXT"/>
    </contour>
    <contour>
      <point x="1222" y="660" type="move" name="bindu"/>
    </contour>
    <contour>
      <point x="1218" y="473" type="move" name="top"/>
    </contour>
    <contour>
      <point x="1127" y="-160" type="move" name="bottom"/>
    </contour>
  </outline>
</glyph>
<glyph name="dvG" format="1">
  <advance width="365"/>
  <outline>
    <contour>
      <point x="17" y="292" type="line"/>
      <point x="43" y="214"/>
      <point x="146" y="124"/>
      <point x="223" y="98" type="curve"/>
      <point x="284" y="131" type="line"/>
      <point x="284" y="305" type="line"/>
      <point x="219" y="346" type="line"/>
      <point x="51" y="346" type="line"/>
    </contour>
    <contour>
      <point x="400" y="538" type="line"/>
      <point x="421" y="580" type="line"/>
      <point x="365" y="655" type="line"/>
      <point x="-36" y="655" type="line"/>
      <point x="-57" y="613" type="line"/>
      <point x="0" y="538" type="line"/>
    </contour>
    <contour>
      <point x="130" y="244" type="line"/>
      <point x="284" y="204" type="line"/>
      <point x="284" y="490" type="line"/>
      <point x="180" y="564" type="line"/>
      <point x="124" y="590" type="line"/>
    </contour>
  </outline>
</glyph>
<glyph name="dvGhR" format="1">
  <advance width="445"/>
  <outline>
    <contour>
      <point x="45" y="593" type="line"/>
      <point x="25" y="568"/>
      <point x="15" y="542"/>
      <point x="15" y="517" type="curve" smooth="yes"/>
      <point x="15" y="441"/>
      <point x="90" y="371"/>
      <point x="223" y="322" type="curve"/>
      <point x="255" y="375" type="line"/>
      <point x="202" y="395"/>
      <point x="176" y="434"/>
      <point x="176" y="471" type="curve" smooth="yes"/>
      <point x="176" y="505"/>
      <point x="198" y="537"/>
      <point x="241" y="551" type="curve"/>
    </contour>
    <contour>
      <point x="512" y="538" type="line"/>
      <point x="533" y="580" type="line"/>
      <point x="477" y="655" type="line"/>
      <point x="-51" y="655" type="line"/>
      <point x="-72" y="613" type="line"/>
      <point x="-15" y="538" type="line"/>
    </contour>
    <contour>
      <point x="423" y="340" type="line"/>
      <point x="357" y="444" type="line"/>
      <point x="200" y="476"/>
      <point x="102" y="382"/>
      <point x="102" y="287" type="curve" smooth="yes"/>
      <point x="102" y="215"/>
      <point x="156" y="154"/>
      <point x="219" y="116" type="curve" smooth="yes"/>
      <point x="267" y="86"/>
      <point x="323" y="67"/>
      <point x="378" y="67" type="curve" smooth="yes"/>
      <point x="392" y="67"/>
      <point x="407" y="68"/>
      <point x="421" y="71" type="curve"/>
      <point x="535" y="163" type="line"/>
      <point x="509" y="304" type="line"/>
      <point x="486" y="281"/>
      <point x="458" y="256"/>
      <point x="426" y="234" type="curve" smooth="yes"/>
      <point x="374" y="200"/>
      <point x="311" y="180"/>
      <point x="262" y="193" type="curve"/>
      <point x="228" y="243"/>
      <point x="283" y="315"/>
      <point x="402" y="299" type="curve"/>
    </contour>
    <contour>
      <point x="119" y="11" type="line"/>
      <point x="235" y="-84" type="line"/>
      <point x="598" y="188" type="line"/>
      <point x="509" y="304" type="line"/>
      <point x="496" y="268" type="line" smooth="yes"/>
    </contour>
  </outline>
</glyph>
<glyph name="dvGhhRa" format="1">
  <advance width="665"/>
  <outline>
    <component base="dvGRa"/>
    <component base="uni093C" xOffset="385" yOffset="21"/>
    <contour>
      <point x="385" y="660" type="move" name="candrabindu"/>
    </contour>
    <contour>
      <point x="768" y="660" type="move" name="candrabinduCXT"/>
    </contour>
    <contour>
      <point x="361" y="660" type="move" name="bindu"/>
    </contour>
    <contour>
      <point x="500" y="473" type="move" name="top"/>
    </contour>
    <contour>
      <point x="399" y="-214" type="move" name="bottom"/>
    </contour>
  </outline>
</glyph>
<glyph name="dvJ.alt" format="1">
  <advance width="481"/>
  <outline>
    <contour>
      <point x="-5" y="393" type="line"/>
      <point x="51" y="185"/>
      <point x="146" y="19"/>
      <point x="298" y="19" type="curve" smooth="yes"/>
      <point x="398" y="19"/>
      <point x="454" y="90"/>
      <point x="454" y="168" type="curve" smooth="yes"/>
      <point x="454" y="262"/>
      <point x="374" y="348"/>
      <point x="225" y="387" type="curve"/>
      <point x="195" y="395" type="line"/>
      <point x="195" y="356" type="line"/>
      <point x="270" y="329" type="line"/>
      <point x="342" y="281"/>
      <point x="331" y="180"/>
      <point x="253" y="180" type="curve" smooth="yes"/>
      <point x="178" y="180"/>
      <point x="141" y="275"/>
      <point x="95" y="426" type="curve"/>
    </contour>
    <contour>
      <point x="589" y="538" type="line"/>
      <point x="610" y="580" type="line"/>
      <point x="554" y="655" type="line"/>
      <point x="-36" y="655" type="line"/>
      <point x="-57" y="613" type="line"/>
      <point x="0" y="538" type="line"/>
    </contour>
    <contour>
      <point x="611" y="331" type="line"/>
      <point x="557" y="417"/>
      <point x="518" y="436"/>
      <point x="400" y="436" type="curve" smooth="yes"/>
      <point x="195" y="436" type="line"/>
      <point x="195" y="387" type="line"/>
      <point x="332" y="300" type="line"/>
      <point x="440" y="300" type="line" smooth="yes"/>
      <point x="499" y="300"/>
      <point x="528" y="294"/>
      <point x="570" y="263" type="curve"/>
    </contour>
  </outline>
</glyph>
<glyph name="dvJYa" format="1">
  <advance width="1138"/>
  <outline>
    <component base="dvJ.alt"/>
    <component base="dvYa" xOffset="481"/>
    <contour>
      <point x="861" y="660" type="move" name="candrabindu"/>
    </contour>
    <contour>
      <point x="1241" y="660" type="move" name="candrabinduCXT"/>
    </contour>
    <contour>
      <point x="832" y="660" type="move" name="bindu"/>
    </contour>
    <contour>
      <point x="973" y="473" type="move" name="top"/>
    </contour>
    <contour>
      <point x="882" y="1" type="move" name="bottom"/>
    </contour>
  </outline>
</glyph>
<glyph name="dvJh.NEP" format="1">
  <advance width="734"/>
  <outline>
    <contour>
      <point x="68" y="295" type="line"/>
      <point x="93" y="216"/>
      <point x="199" y="116"/>
      <point x="276" y="90" type="curve"/>
      <point x="336" y="123" type="line"/>
      <point x="336" y="308" type="line"/>
      <point x="269" y="348" type="line"/>
      <point x="102" y="348" type="line"/>
    </contour>
    <contour>
      <point x="448" y="19" type="line"/>
      <point x="562" y="-43" type="line"/>
      <point x="608" y="-21" type="line"/>
      <point x="608" y="490" type="line"/>
      <point x="504" y="564" type="line"/>
      <point x="448" y="590" type="line"/>
    </contour>
    <contour>
      <point x="773" y="538" type="line"/>
      <point x="794" y="580" type="line"/>
      <point x="738" y="655" type="line"/>
      <point x="386" y="655" type="line"/>
      <point x="365" y="613" type="line"/>
      <point x="421" y="538" type="line"/>
    </contour>
    <contour>
      <point x="542" y="348" type="line"/>
      <point x="214" y="348" type="line"/>
      <point x="245" y="212" type="line"/>
      <point x="564" y="212" type="line"/>
    </contour>
    <contour>
      <point x="19" y="678"/>
      <point x="-33" y="618"/>
      <point x="-33" y="555" type="curve" smooth="yes"/>
      <point x="-33" y="506"/>
      <point x="-2" y="456"/>
      <point x="82" y="399" type="curve"/>
      <point x="139" y="446" type="line"/>
      <point x="63" y="502"/>
      <point x="102" y="569"/>
      <point x="163" y="566" type="curve"/>
      <point x="176" y="550"/>
      <point x="180" y="523"/>
      <point x="180" y="495" type="curve" smooth="yes"/>
      <point x="181" y="239" type="line"/>
      <point x="334" y="219" type="line"/>
      <point x="334" y="448" type="line"/>
      <point x="334" y="555"/>
      <point x="220" y="678"/>
      <point x="101" y="678" type="curve" smooth="yes"/>
    </contour>
    <contour>
      <point x="866" y="316" type="line"/>
      <point x="820" y="392"/>
      <point x="764" y="428"/>
      <point x="702" y="428" type="curve" smooth="yes"/>
      <point x="630" y="428"/>
      <point x="552" y="378"/>
      <point x="475" y="285" type="curve"/>
      <point x="539" y="159" type="line"/>
      <point x="594" y="231"/>
      <point x="663" y="286"/>
      <point x="723" y="286" type="curve" smooth="yes"/>
      <point x="752" y="286"/>
      <point x="778" y="274"/>
      <point x="798" y="249" type="curve" smooth="yes"/>
    </contour>
  </outline>
</glyph>
<glyph name="dvK" format="1">
  <advance width="619"/>
  <outline>
    <contour>
      <point x="668" y="538" type="line"/>
      <point x="689" y="580" type="line"/>
      <point x="632" y="655" type="line"/>
      <point x="-36" y="655" type="line"/>
      <point x="-57" y="613" type="line"/>
      <point x="0" y="538" type="line"/>
    </contour>
    <contour>
      <point x="329" y="19" type="line"/>
      <point x="443" y="-43" type="line"/>
      <point x="489" y="-21" type="line"/>
      <point x="489" y="490" type="line"/>
      <point x="385" y="564" type="line"/>
      <point x="329" y="590" type="line"/>
    </contour>
    <contour>
      <point x="744" y="333" type="line"/>
      <point x="710" y="393"/>
      <point x="656" y="437"/>
      <point x="590" y="437" type="curve" smooth="yes"/>
      <point x="494" y="437"/>
      <point x="424" y="344"/>
      <point x="375" y="255" type="curve"/>
      <point x="439" y="129" type="line"/>
      <point x="492" y="208"/>
      <point x="571" y="289"/>
      <point x="618" y="289" type="curve" smooth="yes"/>
      <point x="635" y="289"/>
      <point x="649" y="279"/>
      <point x="657" y="269" type="curve" smooth="yes"/>
      <point x="669" y="257" type="line"/>
    </contour>
    <contour>
      <point x="241" y="469" type="line"/>
      <point x="110" y="498"/>
      <point x="19" y="407"/>
      <point x="19" y="307" type="curve" smooth="yes"/>
      <point x="19" y="174"/>
      <point x="175" y="87"/>
      <point x="281" y="87" type="curve" smooth="yes"/>
      <point x="346" y="87"/>
      <point x="388" y="120"/>
      <point x="425" y="163" type="curve"/>
      <point x="353" y="311" type="line"/>
      <point x="318" y="236"/>
      <point x="245" y="199"/>
      <point x="193" y="203" type="curve"/>
      <point x="151" y="266"/>
      <point x="189" y="353"/>
      <point x="275" y="353" type="curve" smooth="yes"/>
      <point x="314" y="353"/>
      <point x="353" y="335"/>
      <point x="403" y="300" type="curve"/>
      <point x="421" y="374" type="line"/>
    </contour>
  </outline>
</glyph>
<glyph name="dvKR" format="1">
  <advance width="631"/>
  <outline>
    <contour>
      <point x="334" y="19" type="line"/>
      <point x="448" y="-43" type="line"/>
      <point x="494" y="-21" type="line"/>
      <point x="494" y="490" type="line"/>
      <point x="390" y="564" type="line"/>
      <point x="334" y="590" type="line"/>
    </contour>
    <contour>
      <point x="-1" y="32" type="line"/>
      <point x="115" y="-63" type="line"/>
      <point x="438" y="171" type="line"/>
      <point x="371" y="278" type="line" smooth="yes"/>
    </contour>
    <contour>
      <point x="246" y="469" type="line"/>
      <point x="109" y="499"/>
      <point x="25" y="410"/>
      <point x="25" y="310" type="curve" smooth="yes"/>
      <point x="25" y="174"/>
      <point x="180" y="87"/>
      <point x="286" y="87" type="curve" smooth="yes"/>
      <point x="295" y="87"/>
      <point x="304" y="88"/>
      <point x="312" y="89" type="curve"/>
      <point x="435" y="177" type="line"/>
      <point x="358" y="311" type="line"/>
      <point x="323" y="236"/>
      <point x="257" y="204"/>
      <point x="205" y="208" type="curve"/>
      <point x="166" y="265"/>
      <point x="193" y="353"/>
      <point x="279" y="353" type="curve" smooth="yes"/>
      <point x="319" y="353"/>
      <point x="360" y="333"/>
      <point x="407" y="300" type="curve"/>
      <point x="426" y="374" type="line"/>
    </contour>
    <contour>
      <point x="764" y="344" type="line"/>
      <point x="730" y="403"/>
      <point x="669" y="447"/>
      <point x="603" y="447" type="curve" smooth="yes"/>
      <point x="507" y="447"/>
      <point x="437" y="354"/>
      <point x="388" y="266" type="curve"/>
      <point x="452" y="139" type="line"/>
      <point x="505" y="218"/>
      <point x="584" y="300"/>
      <point x="631" y="300" type="curve" smooth="yes"/>
      <point x="648" y="300"/>
      <point x="662" y="290"/>
      <point x="670" y="280" type="curve" smooth="yes"/>
      <point x="682" y="268" type="line"/>
    </contour>
    <contour>
      <point x="673" y="538" type="line"/>
      <point x="694" y="580" type="line"/>
      <point x="637" y="655" type="line"/>
      <point x="-36" y="655" type="line"/>
      <point x="-57" y="613" type="line"/>
      <point x="0" y="538" type="line"/>
    </contour>
  </outline>
</glyph>
<glyph name="dvKSPLa.MAR" format="1">
  <advance width="2191"/>
  <outline>
    <component base="dvK"/>
    <component base="dvS" xOffset="645"/>
    <component base="dvP" xOffset="1107"/>
    <component base="dvLa.MAR" xOffset="1426"/>
    <contour>
      <point x="1928" y="660" type="move" name="candrabindu"/>
    </contour>
    <contour>
      <point x="2213" y="660" type="move" name="candrabinduCXT"/>
    </contour>
    <contour>
      <point x="1937" y="660" type="move" name="bindu"/>
    </contour>
    <contour>
      <point x="1938" y="473" type="move" name="top"/>
    </contour>
    <contour>
      <point x="1784" y="-71" type="move" name="bottom"/>
    </contour>
  </outline>
</glyph>
<glyph name="dvKSPRa" format="1">
  <advance width="1700"/>
  <outline>
    <component base="uni0915094D"/>
    <component base="uni0938094D" xOffset="616"/>
    <component base="dvPRa" xOffset="1054"/>
    <contour>
      <point x="1405" y="660" type="move" name="candrabindu"/>
    </contour>
    <contour>
      <point x="1802" y="660" type="move" name="candrabinduCXT"/>
    </contour>
    <contour>
      <point x="1393" y="660" type="move" name="bindu"/>
    </contour>
    <contour>
      <point x="1535" y="473" type="move" name="top"/>
    </contour>
    <contour>
      <point x="1443" y="-34" type="move" name="bottom"/>
    </contour>
  </outline>
</glyph>
<glyph name="dvKTYa" format="1">
  <advance width="1617"/>
  <outline>
    <component base="dvK"/>
    <component base="dvT" xOffset="621"/>
    <component base="dvYa" xOffset="960"/>
    <contour>
      <point x="1340" y="660" type="move" name="candrabindu"/>
    </contour>
    <contour>
      <point x="1720" y="660" type="move" name="candrabinduCXT"/>
    </contour>
    <contour>
      <point x="1311" y="660" type="move" name="bindu"/>
    </contour>
    <contour>
      <point x="1452" y="473" type="move" name="top"/>
    </contour>
    <contour>
      <point x="1361" y="1" type="move" name="bottom"/>
    </contour>
  </outline>
</glyph>
<glyph name="dvKYa" format="1">
  <advance width="1269"/>
  <outline>
    <component base="dvK"/>
    <component base="dvYa" xOffset="611"/>
    <contour>
      <point x="991" y="660" type="move" name="candrabindu"/>
    </contour>
    <contour>
      <point x="1371" y="660" type="move" name="candrabinduCXT"/>
    </contour>
    <contour>
      <point x="962" y="660" type="move" name="bindu"/>
    </contour>
    <contour>
      <point x="1104" y="473" type="move" name="top"/>
    </contour>
    <contour>
      <point x="1012" y="1" type="move" name="bottom"/>
    </contour>
  </outline>
</glyph>
<glyph name="dvKh" format="1">
  <advance width="673"/>
  <outline>
    <contour>
      <point x="736" y="538" type="line"/>
      <point x="757" y="580" type="line"/>
      <point x="701" y="655" type="line"/>
      <point x="204" y="655" type="line"/>
      <point x="183" y="613" type="line"/>
      <point x="240" y="538" type="line"/>
    </contour>
    <contour>
      <point x="513" y="538" type="line"/>
      <point x="534" y="580" type="line"/>
      <point x="478" y="655" type="line"/>
      <point x="-36" y="655" type="line"/>
      <point x="-57" y="613" type="line"/>
      <point x="0" y="538" type="line"/>
    </contour>
    <contour>
      <point x="356" y="490" type="line"/>
      <point x="254" y="562" type="line"/>
      <point x="198" y="588" type="line"/>
      <point x="198" y="370" type="line" smooth="yes"/>
      <point x="199" y="321"/>
      <point x="145" y="293"/>
      <point x="86" y="271" type="curve"/>
      <point x="188" y="161" type="line"/>
      <point x="268" y="220" type="line" smooth="yes"/>
      <point x="327" y="261"/>
      <point x="356" y="295"/>
      <point x="356" y="360" type="curve" smooth="yes"/>
    </contour>
    <contour>
      <point x="593" y="97" type="line"/>
      <point x="531" y="85"/>
      <point x="476" y="76"/>
      <point x="422" y="76" type="curve" smooth="yes"/>
      <point x="313" y="76"/>
      <point x="234" y="113"/>
      <point x="204" y="250" type="curve"/>
      <point x="263" y="354" type="line"/>
      <point x="63" y="355" type="line"/>
      <point x="29" y="275" type="line"/>
      <point x="123" y="62"/>
      <point x="320" y="-51"/>
      <point x="495" y="-51" type="curve"/>
      <point x="540" y="-51"/>
      <point x="581" y="-44"/>
      <point x="619" y="-30" type="curve"/>
    </contour>
    <contour>
      <point x="762" y="365"/>
      <point x="672" y="485"/>
      <point x="527" y="485" type="curve" smooth="yes"/>
      <point x="419" y="485"/>
      <point x="361" y="409"/>
      <point x="361" y="325" type="curve" smooth="yes"/>
      <point x="361" y="209"/>
      <point x="486" y="123"/>
      <point x="603" y="123" type="curve" smooth="yes"/>
      <point x="695" y="123"/>
      <point x="762" y="186"/>
      <point x="762" y="270" type="curve" smooth="yes"/>
    </contour>
    <contour>
      <point x="469" y="296"/>
      <point x="518" y="374"/>
      <point x="595" y="374" type="curve" smooth="yes"/>
      <point x="620" y="374"/>
      <point x="647" y="364"/>
      <point x="663" y="346" type="curve"/>
      <point x="669" y="276"/>
      <point x="585" y="215"/>
      <point x="508" y="239" type="curve"/>
    </contour>
  </outline>
</glyph>
<glyph name="dvKhhMa" format="1">
  <advance width="1372"/>
  <outline>
    <component base="uni0959094D"/>
    <component base="uni092E" xOffset="688"/>
    <contour>
      <point x="1074" y="660" type="move" name="candrabindu"/>
    </contour>
    <contour>
      <point x="1474" y="660" type="move" name="candrabinduCXT"/>
    </contour>
    <contour>
      <point x="1056" y="660" type="move" name="bindu"/>
    </contour>
    <contour>
      <point x="1207" y="473" type="move" name="top"/>
    </contour>
    <contour>
      <point x="1116" y="1" type="move" name="bottom"/>
    </contour>
  </outline>
</glyph>
<glyph name="dvKhhRa" format="1">
  <advance width="886"/>
  <outline>
    <component base="uni093C" xOffset="190" yOffset="49"/>
    <component base="dvKhRa"/>
    <contour>
      <point x="536" y="660" type="move" name="candrabindu"/>
    </contour>
    <contour>
      <point x="988" y="660" type="move" name="candrabinduCXT"/>
    </contour>
    <contour>
      <point x="516" y="660" type="move" name="bindu"/>
    </contour>
    <contour>
      <point x="721" y="473" type="move" name="top"/>
    </contour>
    <contour>
      <point x="629" y="-145" type="move" name="bottom"/>
    </contour>
  </outline>
</glyph>
<glyph name="dvKhhSa" format="1">
  <advance width="1465"/>
  <outline>
    <component base="dvKhh"/>
    <component base="dvSa" xOffset="684"/>
    <contour>
      <point x="1285" y="660" type="move" name="candrabindu"/>
    </contour>
    <contour>
      <point x="1567" y="660" type="move" name="candrabinduCXT"/>
    </contour>
    <contour>
      <point x="1304" y="660" type="move" name="bindu"/>
    </contour>
    <contour>
      <point x="1300" y="473" type="move" name="top"/>
    </contour>
    <contour>
      <point x="1209" y="1" type="move" name="bottom"/>
    </contour>
  </outline>
</glyph>
<glyph name="dvKhhTa" format="1">
  <advance width="1301"/>
  <outline>
    <component base="uni0959094D"/>
    <component base="uni0924" xOffset="673"/>
    <contour>
      <point x="1121" y="660" type="move" name="candrabindu"/>
    </contour>
    <contour>
      <point x="1403" y="660" type="move" name="candrabinduCXT"/>
    </contour>
    <contour>
      <point x="1140" y="660" type="move" name="bindu"/>
    </contour>
    <contour>
      <point x="1136" y="473" type="move" name="top"/>
    </contour>
    <contour>
      <point x="1045" y="1" type="move" name="bottom"/>
    </contour>
  </outline>
</glyph>
<glyph name="dvKhhVa" format="1">
  <advance width="1341"/>
  <outline>
    <component base="uni0959094D"/>
    <component base="uni0935" xOffset="701"/>
    <contour>
      <point x="1161" y="660" type="move" name="candrabindu"/>
    </contour>
    <contour>
      <point x="1443" y="660" type="move" name="candrabinduCXT"/>
    </contour>
    <contour>
      <point x="1179" y="660" type="move" name="bindu"/>
    </contour>
    <contour>
      <point x="1176" y="473" type="move" name="top"/>
    </contour>
    <contour>
      <point x="1084" y="1" type="move" name="bottom"/>
    </contour>
  </outline>
</glyph>
<glyph name="dvKhhYa" format="1">
  <advance width="1339"/>
  <outline>
    <component base="dvKhh"/>
    <component base="dvYa" xOffset="682"/>
    <contour>
      <point x="1062" y="660" type="move" name="candrabindu"/>
    </contour>
    <contour>
      <point x="1442" y="660" type="move" name="candrabinduCXT"/>
    </contour>
    <contour>
      <point x="1033" y="660" type="move" name="bindu"/>
    </contour>
    <contour>
      <point x="1174" y="473" type="move" name="top"/>
    </contour>
    <contour>
      <point x="1083" y="1" type="move" name="bottom"/>
    </contour>
  </outline>
</glyph>
<glyph name="dvLKYa" format="1">
  <advance width="1771"/>
  <outline>
    <component base="dvL"/>
    <component base="dvKYa" xOffset="503"/>
    <contour>
      <point x="1494" y="660" type="move" name="candrabindu"/>
    </contour>
    <contour>
      <point x="1874" y="660" type="move" name="candrabinduCXT"/>
    </contour>
    <contour>
      <point x="1465" y="660" type="move" name="bindu"/>
    </contour>
    <contour>
      <point x="1606" y="473" type="move" name="top"/>
    </contour>
    <contour>
      <point x="1515" y="1" type="move" name="bottom"/>
    </contour>
  </outline>
</glyph>
<glyph name="dvLThYa" format="1">
  <advance width="1617"/>
  <outline>
    <component base="dvL.alt"/>
    <component base="dvTh" xOffset="540"/>
    <component base="dvYa" xOffset="959"/>
    <contour>
      <point x="1339" y="660" type="move" name="candrabindu"/>
    </contour>
    <contour>
      <point x="1719" y="660" type="move" name="candrabinduCXT"/>
    </contour>
    <contour>
      <point x="1311" y="660" type="move" name="bindu"/>
    </contour>
    <contour>
      <point x="1452" y="473" type="move" name="top"/>
    </contour>
    <contour>
      <point x="1361" y="1" type="move" name="bottom"/>
    </contour>
  </outline>
</glyph>
<glyph name="dvNBh" format="1">
  <advance width="756"/>
  <outline>
    <contour>
      <point x="281" y="538" type="line"/>
      <point x="302" y="580" type="line"/>
      <point x="246" y="655" type="line"/>
      <point x="-36" y="655" type="line"/>
      <point x="-57" y="613" type="line"/>
      <point x="0" y="538" type="line"/>
    </contour>
    <contour>
      <point x="8" y="332" type="line"/>
      <point x="24" y="252"/>
      <point x="95" y="150"/>
      <point x="172" y="108" type="curve"/>
      <point x="238" y="140" type="line"/>
      <point x="238" y="344" type="line"/>
      <point x="171" y="387" type="line"/>
      <point x="45" y="387" type="line"/>
    </contour>
    <contour>
      <point x="479" y="282" type="line"/>
      <point x="425" y="368"/>
      <point x="386" y="387"/>
      <point x="268" y="387" type="curve" smooth="yes"/>
      <point x="63" y="387" type="line"/>
      <point x="63" y="338" type="line"/>
      <point x="183" y="243" type="line"/>
      <point x="308" y="243" type="line" smooth="yes"/>
      <point x="367" y="243"/>
      <point x="388" y="238"/>
      <point x="430" y="207" type="curve"/>
    </contour>
    <component base="dvBh" xOffset="311"/>
  </outline>
</glyph>
<glyph name="dvNJYa" format="1">
  <advance width="1472"/>
  <outline>
    <component base="dvN"/>
    <component base="dvJYa" xOffset="333"/>
    <contour>
      <point x="1194" y="660" type="move" name="candrabindu"/>
    </contour>
    <contour>
      <point x="1574" y="660" type="move" name="candrabinduCXT"/>
    </contour>
    <contour>
      <point x="1165" y="660" type="move" name="bindu"/>
    </contour>
    <contour>
      <point x="1307" y="473" type="move" name="top"/>
    </contour>
    <contour>
      <point x="1215" y="1" type="move" name="bottom"/>
    </contour>
  </outline>
</glyph>
<glyph name="dvNTSa" format="1">
  <advance width="1408"/>
  <outline>
    <component base="dvN"/>
    <component base="dvT.alt1" xOffset="277"/>
    <component base="dvSa" xOffset="627"/>
    <contour>
      <point x="1099" y="660" type="move" name="candrabindu"/>
    </contour>
    <contour>
      <point x="1510" y="660" type="move" name="candrabinduCXT"/>
    </contour>
    <contour>
      <point x="1064" y="660" type="move" name="bindu"/>
    </contour>
    <contour>
      <point x="1243" y="473" type="move" name="top"/>
    </contour>
    <contour>
      <point x="1151" y="1" type="move" name="bottom"/>
    </contour>
  </outline>
</glyph>
<glyph name="dvNTYa" format="1">
  <advance width="1315"/>
  <outline>
    <component base="dvN"/>
    <component base="dvTYa" xOffset="312"/>
    <contour>
      <point x="1037" y="660" type="move" name="candrabindu"/>
    </contour>
    <contour>
      <point x="1417" y="660" type="move" name="candrabinduCXT"/>
    </contour>
    <contour>
      <point x="1009" y="660" type="move" name="bindu"/>
    </contour>
    <contour>
      <point x="1150" y="473" type="move" name="top"/>
    </contour>
    <contour>
      <point x="1059" y="1" type="move" name="bottom"/>
    </contour>
  </outline>
</glyph>
<glyph name="dvNThVa" format="1">
  <advance width="1381"/>
  <outline>
    <component base="uni0928094D"/>
    <component base="uni0925094D" xOffset="323"/>
    <component base="uni0935" xOffset="741"/>
    <contour>
      <point x="1201" y="660" type="move" name="candrabindu"/>
    </contour>
    <contour>
      <point x="1483" y="660" type="move" name="candrabinduCXT"/>
    </contour>
    <contour>
      <point x="1219" y="660" type="move" name="bindu"/>
    </contour>
    <contour>
      <point x="1216" y="473" type="move" name="top"/>
    </contour>
    <contour>
      <point x="1124" y="1" type="move" name="bottom"/>
    </contour>
  </outline>
</glyph>
<glyph name="dvNThYa" format="1">
  <advance width="1401"/>
  <outline>
    <component base="dvN"/>
    <component base="dvTh" xOffset="323"/>
    <component base="dvYa" xOffset="744"/>
    <contour>
      <point x="1124" y="660" type="move" name="candrabindu"/>
    </contour>
    <contour>
      <point x="1504" y="660" type="move" name="candrabinduCXT"/>
    </contour>
    <contour>
      <point x="1095" y="660" type="move" name="bindu"/>
    </contour>
    <contour>
      <point x="1236" y="473" type="move" name="top"/>
    </contour>
    <contour>
      <point x="1145" y="1" type="move" name="bottom"/>
    </contour>
  </outline>
</glyph>
<glyph name="dvNine.ss05" format="1">
  <advance width="586"/>
  <outline>
    <contour>
      <point x="171" y="328" type="line"/>
      <point x="123" y="280"/>
      <point x="103" y="236"/>
      <point x="103" y="186" type="curve" smooth="yes"/>
      <point x="103" y="67"/>
      <point x="219" y="-1"/>
      <point x="310" y="-1" type="curve" smooth="yes"/>
      <point x="348" y="-1"/>
      <point x="378" y="11"/>
      <point x="464" y="51" type="curve"/>
      <point x="469" y="15"/>
      <point x="422" y="-39"/>
      <point x="387" y="-72" type="curve"/>
      <point x="527" y="-143" type="line"/>
      <point x="664" y="-9"/>
      <point x="539" y="179"/>
      <point x="418" y="179" type="curve" smooth="yes"/>
      <point x="373" y="179"/>
      <point x="319" y="152"/>
      <point x="231" y="116" type="curve"/>
      <point x="223" y="164"/>
      <point x="255" y="239"/>
      <point x="308" y="275" type="curve"/>
    </contour>
    <contour>
      <point x="517" y="268" type="line"/>
      <point x="538" y="310" type="line"/>
      <point x="481" y="406" type="line"/>
      <point x="205" y="406" type="line"/>
      <point x="191" y="392" type="line"/>
      <point x="11" y="392" type="line"/>
      <point x="-11" y="350" type="line"/>
      <point x="42" y="268" type="line"/>
    </contour>
    <contour>
      <point x="258" y="379"/>
      <point x="225" y="430"/>
      <point x="225" y="464" type="curve" smooth="yes"/>
      <point x="225" y="506"/>
      <point x="272" y="532"/>
      <point x="339" y="532" type="curve" smooth="yes"/>
      <point x="385" y="532"/>
      <point x="437" y="520"/>
      <point x="491" y="494" type="curve"/>
      <point x="494" y="637" type="line"/>
      <point x="434" y="664"/>
      <point x="373" y="678"/>
      <point x="312" y="678" type="curve" smooth="yes"/>
      <point x="173" y="678"/>
      <point x="90" y="605"/>
      <point x="90" y="516" type="curve" smooth="yes"/>
      <point x="90" y="449"/>
      <point x="137" y="376"/>
      <point x="249" y="312" type="curve"/>
      <point x="313" y="362" type="line"/>
    </contour>
  </outline>
</glyph>
<glyph name="dvPTYa" format="1">
  <advance width="1312"/>
  <outline>
    <component base="dvP"/>
    <component base="dvTYa" xOffset="310"/>
    <contour>
      <point x="1035" y="660" type="move" name="candrabindu"/>
    </contour>
    <contour>
      <point x="1415" y="660" type="move" name="candrabinduCXT"/>
    </contour>
    <contour>
      <point x="1006" y="660" type="move" name="bindu"/>
    </contour>
    <contour>
      <point x="1147" y="473" type="move" name="top"/>
    </contour>
    <contour>
      <point x="1056" y="1" type="move" name="bottom"/>
    </contour>
  </outline>
</glyph>
<glyph name="dvPh.alt" format="1">
  <advance width="641"/>
  <outline>
    <contour>
      <point x="718" y="538" type="line"/>
      <point x="739" y="580" type="line"/>
      <point x="682" y="655" type="line"/>
      <point x="-36" y="655" type="line"/>
      <point x="-57" y="613" type="line"/>
      <point x="0" y="538" type="line"/>
    </contour>
    <contour>
      <point x="44" y="394" type="line" smooth="yes"/>
      <point x="44" y="269"/>
      <point x="208" y="129"/>
      <point x="321" y="129" type="curve" smooth="yes"/>
      <point x="375" y="129"/>
      <point x="429" y="162"/>
      <point x="469" y="227" type="curve"/>
      <point x="379" y="360" type="line"/>
      <point x="358" y="299"/>
      <point x="315" y="263"/>
      <point x="264" y="263" type="curve" smooth="yes"/>
      <point x="242" y="263"/>
      <point x="225" y="271"/>
      <point x="213" y="284" type="curve"/>
      <point x="213" y="490" type="line"/>
      <point x="108" y="564" type="line"/>
      <point x="44" y="590" type="line"/>
    </contour>
    <contour>
      <point x="346" y="19" type="line"/>
      <point x="460" y="-43" type="line"/>
      <point x="506" y="-21" type="line"/>
      <point x="506" y="490" type="line"/>
      <point x="402" y="564" type="line"/>
      <point x="346" y="590" type="line"/>
    </contour>
    <contour>
      <point x="780" y="282" type="line"/>
      <point x="738" y="341"/>
      <point x="678" y="393"/>
      <point x="608" y="393" type="curve" smooth="yes"/>
      <point x="536" y="393"/>
      <point x="462" y="334"/>
      <point x="422" y="269" type="curve"/>
      <point x="485" y="151" type="line"/>
      <point x="545" y="224"/>
      <point x="603" y="257"/>
      <point x="658" y="257" type="curve" smooth="yes"/>
      <point x="691" y="257"/>
      <point x="715" y="245"/>
      <point x="735" y="223" type="curve"/>
    </contour>
  </outline>
</glyph>
<glyph name="dvPh" format="1">
  <advance width="641"/>
  <outline>
    <contour>
      <point x="718" y="538" type="line"/>
      <point x="739" y="580" type="line"/>
      <point x="682" y="655" type="line"/>
      <point x="-36" y="655" type="line"/>
      <point x="-57" y="613" type="line"/>
      <point x="0" y="538" type="line"/>
    </contour>
    <contour>
      <point x="44" y="394" type="line" smooth="yes"/>
      <point x="44" y="269"/>
      <point x="208" y="129"/>
      <point x="321" y="129" type="curve" smooth="yes"/>
      <point x="375" y="129"/>
      <point x="429" y="162"/>
      <point x="469" y="227" type="curve"/>
      <point x="379" y="360" type="line"/>
      <point x="358" y="299"/>
      <point x="315" y="263"/>
      <point x="264" y="263" type="curve" smooth="yes"/>
      <point x="242" y="263"/>
      <point x="225" y="271"/>
      <point x="213" y="284" type="curve"/>
      <point x="213" y="490" type="line"/>
      <point x="108" y="564" type="line"/>
      <point x="44" y="590" type="line"/>
    </contour>
    <contour>
      <point x="346" y="19" type="line"/>
      <point x="460" y="-43" type="line"/>
      <point x="506" y="-21" type="line"/>
      <point x="506" y="490" type="line"/>
      <point x="402" y="564" type="line"/>
      <point x="346" y="590" type="line"/>
    </contour>
    <contour>
      <point x="768" y="333" type="line"/>
      <point x="734" y="393"/>
      <point x="673" y="437"/>
      <point x="607" y="437" type="curve" smooth="yes"/>
      <point x="511" y="437"/>
      <point x="441" y="344"/>
      <point x="392" y="255" type="curve"/>
      <point x="449" y="129" type="line"/>
      <point x="502" y="208"/>
      <point x="588" y="289"/>
      <point x="635" y="289" type="curve" smooth="yes"/>
      <point x="652" y="289"/>
      <point x="666" y="279"/>
      <point x="674" y="269" type="curve" smooth="yes"/>
      <point x="686" y="257" type="line"/>
    </contour>
  </outline>
</glyph>
<glyph name="dvQBa" format="1">
  <advance width="1249"/>
  <outline>
    <component base="uni0915094D"/>
    <component base="uni093C" xOffset="166" yOffset="94"/>
    <component base="uni092C" xOffset="606"/>
    <contour>
      <point x="1069" y="660" type="move" name="candrabindu"/>
    </contour>
    <contour>
      <point x="1352" y="660" type="move" name="candrabinduCXT"/>
    </contour>
    <contour>
      <point x="1088" y="660" type="move" name="bindu"/>
    </contour>
    <contour>
      <point x="1084" y="473" type="move" name="top"/>
    </contour>
    <contour>
      <point x="993" y="1" type="move" name="bottom"/>
    </contour>
  </outline>
</glyph>
<glyph name="dvQFa" format="1">
  <advance width="1403"/>
  <outline>
    <component base="dvK"/>
    <component base="dvNukta" xOffset="166" yOffset="94"/>
    <component base="dvFa" xOffset="563"/>
    <contour>
      <point x="1018" y="660" type="move" name="candrabindu"/>
    </contour>
    <contour>
      <point x="1358" y="660" type="move" name="candrabinduCXT"/>
    </contour>
    <contour>
      <point x="977" y="660" type="move" name="bindu"/>
    </contour>
    <contour>
      <point x="1008" y="473" type="move" name="top"/>
    </contour>
    <contour>
      <point x="888" y="-80" type="move" name="bottom"/>
    </contour>
  </outline>
</glyph>
<glyph name="dvQMa" format="1">
  <advance width="1283"/>
  <outline>
    <component base="uni0915094D.alt"/>
    <component base="uni092E" xOffset="599"/>
    <component base="uni093C" xOffset="166" yOffset="94"/>
    <contour>
      <point x="985" y="660" type="move" name="candrabindu"/>
    </contour>
    <contour>
      <point x="1386" y="660" type="move" name="candrabinduCXT"/>
    </contour>
    <contour>
      <point x="967" y="660" type="move" name="bindu"/>
    </contour>
    <contour>
      <point x="1118" y="473" type="move" name="top"/>
    </contour>
    <contour>
      <point x="1027" y="1" type="move" name="bottom"/>
    </contour>
  </outline>
</glyph>
<glyph name="dvQQa" format="1">
  <advance width="1415"/>
  <outline>
    <component base="uni0915094D"/>
    <component base="uni093C" xOffset="166" yOffset="94"/>
    <component base="uni0958" xOffset="600"/>
    <contour>
      <point x="1044" y="660" type="move" name="candrabindu"/>
    </contour>
    <contour>
      <point x="1343" y="660" type="move" name="candrabinduCXT"/>
    </contour>
    <contour>
      <point x="1004" y="660" type="move" name="bindu"/>
    </contour>
    <contour>
      <point x="1033" y="473" type="move" name="top"/>
    </contour>
    <contour>
      <point x="909" y="-80" type="move" name="bottom"/>
    </contour>
  </outline>
</glyph>
<glyph name="dvQRa" format="1">
  <advance width="820"/>
  <outline>
    <component base="uni093C" xOffset="275" yOffset="39"/>
    <component base="dvKRa"/>
    <contour>
      <point x="444" y="660" type="move" name="candrabindu"/>
    </contour>
    <contour>
      <point x="743" y="660" type="move" name="candrabinduCXT"/>
    </contour>
    <contour>
      <point x="404" y="660" type="move" name="bindu"/>
    </contour>
    <contour>
      <point x="433" y="473" type="move" name="top"/>
    </contour>
    <contour>
      <point x="389" y="-144" type="move" name="bottom"/>
    </contour>
  </outline>
</glyph>
<glyph name="dvQTa" format="1">
  <advance width="1232"/>
  <outline>
    <component base="dvK"/>
    <component base="dvTa" xOffset="604"/>
    <component base="dvNukta" xOffset="166" yOffset="94"/>
    <contour>
      <point x="1052" y="660" type="move" name="candrabindu"/>
    </contour>
    <contour>
      <point x="1334" y="660" type="move" name="candrabinduCXT"/>
    </contour>
    <contour>
      <point x="1070" y="660" type="move" name="bindu"/>
    </contour>
    <contour>
      <point x="1067" y="473" type="move" name="top"/>
    </contour>
    <contour>
      <point x="975" y="1" type="move" name="bottom"/>
    </contour>
  </outline>
</glyph>
<glyph name="dvS" format="1">
  <advance width="472"/>
  <outline>
    <contour>
      <point x="494" y="538" type="line"/>
      <point x="515" y="580" type="line"/>
      <point x="459" y="655" type="line"/>
      <point x="390" y="655" type="line"/>
      <point x="369" y="613" type="line"/>
      <point x="425" y="538" type="line"/>
    </contour>
    <contour>
      <point x="590" y="218" type="line"/>
      <point x="580" y="347" type="line"/>
      <point x="223" y="347" type="line"/>
      <point x="224" y="218" type="line"/>
    </contour>
    <component base="dvRa" xOffset="-8"/>
  </outline>
</glyph>
<glyph name="dvSMa" format="1">
  <advance width="1148"/>
  <outline>
    <contour>
      <point x="617" y="250" type="line"/>
      <point x="563" y="335"/>
      <point x="523" y="355"/>
      <point x="405" y="355" type="curve" smooth="yes"/>
      <point x="203" y="355" type="line"/>
      <point x="208" y="223" type="line"/>
      <point x="445" y="223" type="line" smooth="yes"/>
      <point x="504" y="223"/>
      <point x="526" y="217"/>
      <point x="568" y="187" type="curve"/>
    </contour>
    <component base="uni0930" xOffset="-8"/>
    <component base="uni092E" xOffset="464"/>
    <contour>
      <point x="850" y="660" type="move" name="candrabindu"/>
    </contour>
    <contour>
      <point x="1251" y="660" type="move" name="candrabinduCXT"/>
    </contour>
    <contour>
      <point x="832" y="660" type="move" name="bindu"/>
    </contour>
    <contour>
      <point x="983" y="473" type="move" name="top"/>
    </contour>
    <contour>
      <point x="892" y="1" type="move" name="bottom"/>
    </contour>
  </outline>
</glyph>
<glyph name="dvSTYa" format="1">
  <advance width="1447"/>
  <outline>
    <component base="dvS"/>
    <component base="dvTYa" xOffset="445"/>
    <contour>
      <point x="1170" y="660" type="move" name="candrabindu"/>
    </contour>
    <contour>
      <point x="1550" y="660" type="move" name="candrabinduCXT"/>
    </contour>
    <contour>
      <point x="1141" y="660" type="move" name="bindu"/>
    </contour>
    <contour>
      <point x="1282" y="473" type="move" name="top"/>
    </contour>
    <contour>
      <point x="1191" y="1" type="move" name="bottom"/>
    </contour>
  </outline>
</glyph>
<glyph name="dvSThYa" format="1">
  <advance width="1554"/>
  <outline>
    <component base="uni0938094D"/>
    <component base="uni0925094D" xOffset="476"/>
    <component base="uni092F" xOffset="897"/>
    <contour>
      <point x="1277" y="660" type="move" name="candrabindu"/>
    </contour>
    <contour>
      <point x="1657" y="660" type="move" name="candrabinduCXT"/>
    </contour>
    <contour>
      <point x="1248" y="660" type="move" name="bindu"/>
    </contour>
    <contour>
      <point x="1389" y="473" type="move" name="top"/>
    </contour>
    <contour>
      <point x="1298" y="1" type="move" name="bottom"/>
    </contour>
  </outline>
</glyph>
<glyph name="dvSh.MAR" format="1">
  <advance width="555"/>
  <outline>
    <contour>
      <point x="502" y="-36" type="line"/>
      <point x="253" y="114" type="line"/>
      <point x="155" y="60" type="line"/>
      <point x="434" y="-135" type="line"/>
      <point x="503" y="-81" type="line"/>
    </contour>
    <contour>
      <point x="593" y="538" type="line"/>
      <point x="614" y="580" type="line"/>
      <point x="558" y="655" type="line"/>
      <point x="-36" y="655" type="line"/>
      <point x="-57" y="613" type="line"/>
      <point x="0" y="538" type="line"/>
    </contour>
    <contour>
      <point x="102" y="271" type="line"/>
      <point x="173" y="322"/>
      <point x="275" y="373"/>
      <point x="339" y="379" type="curve"/>
      <point x="356" y="363"/>
      <point x="365" y="338"/>
      <point x="365" y="318" type="curve" smooth="yes"/>
      <point x="365" y="258"/>
      <point x="284" y="172"/>
      <point x="150" y="174" type="curve"/>
      <point x="261" y="32" type="line"/>
      <point x="440" y="59"/>
      <point x="516" y="167"/>
      <point x="516" y="262" type="curve" smooth="yes"/>
      <point x="516" y="386"/>
      <point x="388" y="511"/>
      <point x="258" y="511" type="curve" smooth="yes"/>
      <point x="180" y="511"/>
      <point x="81" y="465"/>
      <point x="21" y="414" type="curve"/>
    </contour>
    <contour>
      <point x="291" y="90" type="line"/>
      <point x="156" y="231" type="line"/>
      <point x="110" y="222" type="line"/>
      <point x="60" y="71" type="line"/>
      <point x="101" y="43"/>
      <point x="199" y="24"/>
      <point x="248" y="33" type="curve"/>
    </contour>
    <contour>
      <point x="216" y="454" type="line"/>
      <point x="375" y="420" type="line"/>
      <point x="375" y="558" type="line"/>
      <point x="272" y="564" type="line"/>
      <point x="216" y="590" type="line"/>
    </contour>
  </outline>
</glyph>
<glyph name="dvShR" format="1">
  <advance width="526"/>
  <outline>
    <contour>
      <point x="144" y="678"/>
      <point x="76" y="606"/>
      <point x="76" y="530" type="curve" smooth="yes"/>
      <point x="76" y="380"/>
      <point x="333" y="189"/>
      <point x="611" y="239" type="curve"/>
      <point x="588" y="350" type="line"/>
      <point x="430" y="302"/>
      <point x="218" y="357"/>
      <point x="218" y="479" type="curve" smooth="yes"/>
      <point x="218" y="543"/>
      <point x="277" y="585"/>
      <point x="321" y="547" type="curve"/>
      <point x="333" y="505"/>
      <point x="297" y="448"/>
      <point x="229" y="404" type="curve"/>
      <point x="208" y="389" type="line"/>
      <point x="14" y="270" type="line"/>
      <point x="114" y="156" type="line"/>
      <point x="299" y="276" type="line"/>
      <point x="315" y="286" type="line"/>
      <point x="384" y="336"/>
      <point x="429" y="402"/>
      <point x="429" y="475" type="curve" smooth="yes"/>
      <point x="429" y="580"/>
      <point x="337" y="678"/>
      <point x="233" y="678" type="curve" smooth="yes"/>
    </contour>
    <contour>
      <point x="512" y="322" type="line"/>
      <point x="199" y="104" type="line"/>
      <point x="302" y="0" type="line"/>
      <point x="611" y="239" type="line"/>
    </contour>
    <contour>
      <point x="575" y="538" type="line"/>
      <point x="596" y="580" type="line"/>
      <point x="540" y="655" type="line"/>
      <point x="440" y="655" type="line"/>
      <point x="419" y="613" type="line"/>
      <point x="475" y="538" type="line"/>
    </contour>
  </outline>
</glyph>
<glyph name="dvSsKRa" format="1">
  <advance width="1178"/>
  <outline>
    <component base="uni0937094D"/>
    <component base="dvKRa" xOffset="358"/>
    <contour>
      <point x="802" y="660" type="move" name="candrabindu"/>
    </contour>
    <contour>
      <point x="1101" y="660" type="move" name="candrabinduCXT"/>
    </contour>
    <contour>
      <point x="762" y="660" type="move" name="bindu"/>
    </contour>
    <contour>
      <point x="791" y="473" type="move" name="top"/>
    </contour>
    <contour>
      <point x="672" y="-69" type="move" name="bottom"/>
    </contour>
  </outline>
</glyph>
<glyph name="dvSsMYa" format="1">
  <advance width="1366"/>
  <outline>
    <component base="uni0937094D"/>
    <component base="uni092E094D" xOffset="337"/>
    <component base="uni092F" xOffset="709"/>
    <contour>
      <point x="1089" y="660" type="move" name="candrabindu"/>
    </contour>
    <contour>
      <point x="1469" y="660" type="move" name="candrabinduCXT"/>
    </contour>
    <contour>
      <point x="1060" y="660" type="move" name="bindu"/>
    </contour>
    <contour>
      <point x="1201" y="473" type="move" name="top"/>
    </contour>
    <contour>
      <point x="1110" y="1" type="move" name="bottom"/>
    </contour>
  </outline>
</glyph>
<glyph name="dvSsR" format="1">
  <advance width="358"/>
  <outline>
    <contour>
      <point x="11" y="35" type="line"/>
      <point x="123" y="-57" type="line"/>
      <point x="440" y="181" type="line"/>
      <point x="390" y="296" type="line" smooth="yes"/>
    </contour>
    <contour>
      <point x="387" y="313" type="line"/>
      <point x="371" y="296"/>
      <point x="353" y="283"/>
      <point x="331" y="269" type="curve" smooth="yes"/>
      <point x="308" y="254"/>
      <point x="281" y="246"/>
      <point x="256" y="246" type="curve" smooth="yes"/>
      <point x="238" y="246"/>
      <point x="220" y="252"/>
      <point x="208" y="264" type="curve"/>
      <point x="208" y="562" type="line"/>
      <point x="103" y="564" type="line"/>
      <point x="39" y="590" type="line"/>
      <point x="39" y="374" type="line" smooth="yes"/>
      <point x="39" y="308"/>
      <point x="85" y="239"/>
      <point x="143" y="190" type="curve" smooth="yes"/>
      <point x="200" y="142"/>
      <point x="263" y="121"/>
      <point x="319" y="121" type="curve" smooth="yes"/>
      <point x="326" y="121"/>
      <point x="332" y="121"/>
      <point x="338" y="123" type="curve"/>
      <point x="426" y="190" type="line"/>
    </contour>
    <contour>
      <point x="466" y="538" type="line"/>
      <point x="487" y="580" type="line"/>
      <point x="431" y="655" type="line"/>
      <point x="-36" y="655" type="line"/>
      <point x="-57" y="613" type="line"/>
      <point x="0" y="538" type="line"/>
    </contour>
    <contour>
      <point x="118" y="605" type="line"/>
      <point x="397" y="208" type="line"/>
      <point x="440" y="181" type="line"/>
      <point x="437" y="264" type="line"/>
      <point x="183" y="629" type="line"/>
    </contour>
  </outline>
</glyph>
<glyph name="dvSsTtYa" format="1">
  <advance width="1284"/>
  <outline>
    <component base="dvSsTta"/>
    <component base="dvYa.post" xOffset="604"/>
    <contour>
      <point x="1006" y="660" type="move" name="candrabindu"/>
    </contour>
    <contour>
      <point x="1386" y="660" type="move" name="candrabinduCXT"/>
    </contour>
    <contour>
      <point x="977" y="660" type="move" name="bindu"/>
    </contour>
    <contour>
      <point x="1119" y="473" type="move" name="top"/>
    </contour>
    <contour>
      <point x="1027" y="-41" type="move" name="bottom"/>
    </contour>
  </outline>
</glyph>
<glyph name="dvSsTthYa" format="1">
  <advance width="1284"/>
  <outline>
    <component base="dvSsTtha"/>
    <component base="uni092F.post" xOffset="604"/>
    <contour>
      <point x="1006" y="660" type="move" name="candrabindu"/>
    </contour>
    <contour>
      <point x="1386" y="660" type="move" name="candrabinduCXT"/>
    </contour>
    <contour>
      <point x="977" y="660" type="move" name="bindu"/>
    </contour>
    <contour>
      <point x="1119" y="473" type="move" name="top"/>
    </contour>
    <contour>
      <point x="1027" y="-41" type="move" name="bottom"/>
    </contour>
  </outline>
</glyph>
<glyph name="dvT.alt1" format="1">
  <advance width="338"/>
  <outline>
    <contour>
      <point x="506" y="324" type="line"/>
      <point x="439" y="386"/>
      <point x="356" y="417"/>
      <point x="273" y="417" type="curve" smooth="yes"/>
      <point x="146" y="417"/>
      <point x="42" y="346"/>
      <point x="42" y="225" type="curve" smooth="yes"/>
      <point x="42" y="130"/>
      <point x="106" y="46"/>
      <point x="225" y="-61" type="curve"/>
      <point x="307" y="11" type="line"/>
      <point x="231" y="81"/>
      <point x="196" y="127"/>
      <point x="196" y="176" type="curve" smooth="yes"/>
      <point x="196" y="232"/>
      <point x="241" y="267"/>
      <point x="301" y="267" type="curve" smooth="yes"/>
      <point x="353" y="267"/>
      <point x="397" y="241"/>
      <point x="451" y="190" type="curve"/>
    </contour>
    <contour>
      <point x="429" y="538" type="line"/>
      <point x="450" y="580" type="line"/>
      <point x="394" y="655" type="line"/>
      <point x="-36" y="655" type="line"/>
      <point x="-57" y="613" type="line"/>
      <point x="0" y="538" type="line"/>
    </contour>
  </outline>
</glyph>
<glyph name="dvTKSsa" format="1">
  <advance width="1176"/>
  <outline>
    <component base="uni0924094D.alt1"/>
    <component base="dvKSsa" xOffset="363"/>
    <contour>
      <point x="996" y="660" type="move" name="candrabindu"/>
    </contour>
    <contour>
      <point x="1279" y="660" type="move" name="candrabinduCXT"/>
    </contour>
    <contour>
      <point x="1015" y="660" type="move" name="bindu"/>
    </contour>
    <contour>
      <point x="1011" y="473" type="move" name="top"/>
    </contour>
    <contour>
      <point x="766" y="-155" type="move" name="bottom"/>
    </contour>
  </outline>
</glyph>
<glyph name="dvTR" format="1">
  <advance width="403"/>
  <outline>
    <contour>
      <point x="94" y="145" type="line"/>
      <point x="205" y="19" type="line"/>
      <point x="475" y="223" type="line"/>
      <point x="353" y="317" type="line"/>
    </contour>
    <contour>
      <point x="103" y="265" type="line"/>
      <point x="180" y="320"/>
      <point x="222" y="349"/>
      <point x="257" y="349" type="curve" smooth="yes"/>
      <point x="280" y="349"/>
      <point x="304" y="336"/>
      <point x="330" y="312" type="curve" smooth="yes"/>
      <point x="417" y="228" type="line"/>
      <point x="475" y="223" type="line"/>
      <point x="475" y="293" type="line"/>
      <point x="344" y="415" type="line" smooth="yes"/>
      <point x="286" y="469"/>
      <point x="238" y="494"/>
      <point x="184" y="494" type="curve" smooth="yes"/>
      <point x="127" y="494"/>
      <point x="74" y="467"/>
      <point x="4" y="412" type="curve"/>
    </contour>
    <contour>
      <point x="520" y="538" type="line"/>
      <point x="541" y="580" type="line"/>
      <point x="485" y="655" type="line"/>
      <point x="-36" y="655" type="line"/>
      <point x="-57" y="613" type="line"/>
      <point x="0" y="538" type="line"/>
    </contour>
  </outline>
</glyph>
<glyph name="dvTR.ss03" format="1">
  <advance width="418"/>
  <outline>
    <contour>
      <point x="429" y="339" type="line" smooth="yes"/>
      <point x="231" y="167" type="line"/>
      <point x="324" y="73" type="line"/>
      <point x="520" y="288" type="line"/>
    </contour>
    <contour>
      <point x="519" y="288" type="line"/>
      <point x="519" y="444" type="line"/>
      <point x="245" y="444" type="line" smooth="yes"/>
      <point x="95" y="444"/>
      <point x="26" y="362"/>
      <point x="26" y="272" type="curve" smooth="yes"/>
      <point x="26" y="169"/>
      <point x="115" y="53"/>
      <point x="233" y="-58" type="curve"/>
      <point x="316" y="14" type="line"/>
      <point x="244" y="85"/>
      <point x="194" y="159"/>
      <point x="194" y="209" type="curve" smooth="yes"/>
      <point x="194" y="252"/>
      <point x="229" y="299"/>
      <point x="301" y="299" type="curve" smooth="yes"/>
      <point x="413" y="299" type="line"/>
    </contour>
    <contour>
      <point x="497" y="538" type="line"/>
      <point x="518" y="580" type="line"/>
      <point x="461" y="655" type="line"/>
      <point x="-36" y="655" type="line"/>
      <point x="-57" y="613" type="line"/>
      <point x="0" y="538" type="line"/>
    </contour>
  </outline>
</glyph>
<glyph name="dvTSNYa" format="1">
  <advance width="1746"/>
  <outline>
    <component base="uni0924094D.alt1"/>
    <component base="uni0938094D" xOffset="338"/>
    <component base="uni0928094D.alt" xOffset="795"/>
    <component base="uni092F" xOffset="1088"/>
    <contour>
      <point x="1468" y="660" type="move" name="candrabindu"/>
    </contour>
    <contour>
      <point x="1848" y="660" type="move" name="candrabinduCXT"/>
    </contour>
    <contour>
      <point x="1439" y="660" type="move" name="bindu"/>
    </contour>
    <contour>
      <point x="1581" y="473" type="move" name="top"/>
    </contour>
    <contour>
      <point x="1489" y="1" type="move" name="bottom"/>
    </contour>
  </outline>
</glyph>
<glyph name="dvTT.alt1" format="1">
  <advance width="419"/>
  <outline>
    <contour>
      <point x="427" y="300" type="line"/>
      <point x="345" y="417" type="line"/>
      <point x="10" y="417" type="line"/>
      <point x="-12" y="375" type="line"/>
      <point x="45" y="300" type="line"/>
    </contour>
    <contour>
      <point x="442" y="538" type="line"/>
      <point x="463" y="580" type="line"/>
      <point x="406" y="655" type="line"/>
      <point x="-36" y="655" type="line"/>
      <point x="-57" y="613" type="line"/>
      <point x="0" y="538" type="line"/>
    </contour>
    <contour>
      <point x="578" y="324" type="line"/>
      <point x="511" y="386"/>
      <point x="428" y="417"/>
      <point x="345" y="417" type="curve" smooth="yes"/>
      <point x="218" y="417"/>
      <point x="114" y="346"/>
      <point x="114" y="225" type="curve" smooth="yes"/>
      <point x="114" y="130"/>
      <point x="178" y="46"/>
      <point x="297" y="-61" type="curve"/>
      <point x="379" y="11" type="line"/>
      <point x="303" y="81"/>
      <point x="268" y="127"/>
      <point x="268" y="176" type="curve" smooth="yes"/>
      <point x="268" y="232"/>
      <point x="313" y="267"/>
      <point x="373" y="267" type="curve" smooth="yes"/>
      <point x="425" y="267"/>
      <point x="469" y="241"/>
      <point x="523" y="190" type="curve"/>
    </contour>
  </outline>
</glyph>
<glyph name="dvTYa" format="1">
  <advance width="1003"/>
  <outline>
    <component base="dvT"/>
    <component base="dvYa" xOffset="345"/>
    <contour>
      <point x="725" y="660" type="move" name="candrabindu"/>
    </contour>
    <contour>
      <point x="1105" y="660" type="move" name="candrabinduCXT"/>
    </contour>
    <contour>
      <point x="696" y="660" type="move" name="bindu"/>
    </contour>
    <contour>
      <point x="838" y="473" type="move" name="top"/>
    </contour>
    <contour>
      <point x="746" y="1" type="move" name="bottom"/>
    </contour>
  </outline>
</glyph>
<glyph name="dvTtTtYa" format="1">
  <advance width="1207"/>
  <outline>
    <component base="dvTtTta"/>
    <component base="dvYa.post" xOffset="527"/>
    <contour>
      <point x="927" y="660" type="move" name="candrabindu"/>
    </contour>
    <contour>
      <point x="1307" y="660" type="move" name="candrabinduCXT"/>
    </contour>
    <contour>
      <point x="899" y="660" type="move" name="bindu"/>
    </contour>
    <contour>
      <point x="1040" y="473" type="move" name="top"/>
    </contour>
    <contour>
      <point x="951" y="-41" type="move" name="bottom"/>
    </contour>
  </outline>
</glyph>
<glyph name="dvTtYa" format="1">
  <advance width="1203"/>
  <outline>
    <component base="dvTta"/>
    <component base="dvYa.post" xOffset="523"/>
    <contour>
      <point x="925" y="660" type="move" name="candrabindu"/>
    </contour>
    <contour>
      <point x="1305" y="660" type="move" name="candrabinduCXT"/>
    </contour>
    <contour>
      <point x="897" y="660" type="move" name="bindu"/>
    </contour>
    <contour>
      <point x="1038" y="473" type="move" name="top"/>
    </contour>
    <contour>
      <point x="946" y="-41" type="move" name="bottom"/>
    </contour>
  </outline>
</glyph>
<glyph name="dvVR" format="1">
  <advance width="368"/>
  <outline>
    <contour>
      <point x="269" y="481" type="line"/>
      <point x="124" y="511"/>
      <point x="21" y="420"/>
      <point x="21" y="311" type="curve" smooth="yes"/>
      <point x="21" y="229"/>
      <point x="80" y="163"/>
      <point x="144" y="125" type="curve" smooth="yes"/>
      <point x="204" y="89"/>
      <point x="266" y="80"/>
      <point x="322" y="80" type="curve" smooth="yes"/>
      <point x="330" y="80"/>
      <point x="336" y="80"/>
      <point x="342" y="81" type="curve"/>
      <point x="504" y="165" type="line"/>
      <point x="453" y="282" type="line"/>
      <point x="429" y="263"/>
      <point x="391" y="237"/>
      <point x="345" y="215" type="curve" smooth="yes"/>
      <point x="299" y="192"/>
      <point x="245" y="181"/>
      <point x="208" y="195" type="curve"/>
      <point x="165" y="261"/>
      <point x="200" y="359"/>
      <point x="301" y="359" type="curve" smooth="yes"/>
      <point x="347" y="359"/>
      <point x="405" y="335"/>
      <point x="454" y="310" type="curve"/>
      <point x="476" y="389" type="line"/>
    </contour>
    <contour>
      <point x="490" y="538" type="line"/>
      <point x="511" y="580" type="line"/>
      <point x="455" y="655" type="line"/>
      <point x="-36" y="655" type="line"/>
      <point x="-57" y="613" type="line"/>
      <point x="0" y="538" type="line"/>
    </contour>
    <contour>
      <point x="49" y="21" type="line"/>
      <point x="164" y="-66" type="line"/>
      <point x="503" y="165" type="line"/>
      <point x="445" y="269" type="line" smooth="yes"/>
    </contour>
  </outline>
</glyph>
